<?xml version="1.0" encoding="utf-8"?>
<!-- Generator: Adobe Illustrator 23.0.1, SVG Export Plug-In . SVG Version: 6.00 Build 0)  -->
<svg version="1.1" xmlns="http://www.w3.org/2000/svg" xmlns:xlink="http://www.w3.org/1999/xlink" x="0px" y="0px"
	 viewBox="0 0 1440.42 485.35" style="enable-background:new 0 0 1440.42 485.35;" xml:space="preserve">
<style type="text/css">
	.st0{fill:#429973;}
	.st1{fill:#76B595;}
	.st2{fill:#9ECCB6;}
	.st3{fill:none;stroke:#000000;stroke-width:2;stroke-linecap:round;stroke-miterlimit:10;}
	.st4{fill:#7694B5;}
	.st5{fill:#417399;}
	.st6{fill:#9EB6CC;}
	.st7{fill:#9A4189;}
	.st8{fill:#B576A5;}
	.st9{fill:#CD9EC2;}
	.st10{fill:#6B429A;}
	.st11{fill:#9476B5;}
	.st12{fill:#B69ECB;}
	.st13{fill:#A1CC9E;}
	.st14{fill:#469945;}
	.st15{fill:#7AB576;}
	.st16{fill:#B5767F;}
	.st17{fill:#9A4155;}
	.st18{fill:#CD9EA6;}
	.st19{fill:#409992;}
	.st20{fill:#76B5B5;}
	.st21{fill:#9FCDCC;}
	.st22{fill:#42409A;}
	.st23{fill:#7775B7;}
	.st24{fill:#9E9BCC;}
	.st25{fill:#B476B2;}
	.st26{fill:#994395;}
	.st27{fill:#CC9EC9;}
	.st28{fill:#7676B4;}
	.st29{fill:#424399;}
	.st30{display:none;}
	.st31{display:inline;fill:none;stroke:#000000;stroke-width:5;stroke-linecap:round;stroke-miterlimit:10;}
	.st32{display:inline;stroke:#000000;stroke-width:5;stroke-linecap:round;stroke-linejoin:round;stroke-miterlimit:10;}
	.st33{display:inline;fill:none;stroke:#000000;stroke-width:5.4919;stroke-linecap:round;stroke-miterlimit:10;}
	.st34{display:inline;stroke:#000000;stroke-width:5.4919;stroke-linecap:round;stroke-linejoin:round;stroke-miterlimit:10;}
	.st35{display:inline;fill:none;stroke:#000000;stroke-width:4.2764;stroke-linecap:round;stroke-miterlimit:10;}
	.st36{display:inline;stroke:#000000;stroke-width:4.2764;stroke-linecap:round;stroke-linejoin:round;stroke-miterlimit:10;}
	.st37{fill:none;stroke:#000000;stroke-width:2.6023;stroke-linecap:round;stroke-miterlimit:10;}
	.st38{fill:none;stroke:#000000;stroke-width:2.9029;stroke-linecap:round;stroke-miterlimit:10;}
	.st39{fill:none;stroke:#000000;stroke-width:2.8926;stroke-linecap:round;stroke-miterlimit:10;}
	.st40{fill:none;stroke:#000000;stroke-width:2.4145;stroke-linecap:round;stroke-miterlimit:10;}
	.st41{fill:none;stroke:#000000;stroke-width:2.1927;stroke-linecap:round;stroke-miterlimit:10;}
	.st42{stroke:#000000;stroke-width:1.9987;stroke-linecap:round;stroke-miterlimit:10;}
	.st43{fill:none;stroke:#000000;stroke-width:1.5082;stroke-linecap:round;stroke-miterlimit:10;}
	.st44{stroke:#000000;stroke-width:1.3747;stroke-linecap:round;stroke-miterlimit:10;}
	.st45{fill:#E7797C;}
	.st46{fill:none;stroke:#E7797C;stroke-width:2.1927;stroke-linecap:round;stroke-miterlimit:10;}
	.st47{fill:#FFFFFF;}
	.st48{fill:none;stroke:#E7797C;stroke-width:1.7096;stroke-linecap:round;stroke-miterlimit:10;}
	.st49{fill:none;stroke:#E7797C;stroke-width:1.6003;stroke-linecap:round;stroke-miterlimit:10;}
	.st50{fill:none;stroke:#000000;stroke-width:0.3649;stroke-linecap:round;stroke-miterlimit:10;}
	.st51{fill:none;stroke:#E7797C;stroke-width:1.5019;stroke-linecap:round;stroke-miterlimit:10;}
	.st52{fill:none;stroke:#E7797C;stroke-width:1.7275;stroke-linecap:round;stroke-miterlimit:10;}
	.st53{fill:none;stroke:#E7797C;stroke-width:2.6406;stroke-linecap:round;stroke-miterlimit:10;}
</style>
<g id="people">
	<g id="XMLID_7_">
		<g>
			<polygon class="st0" points="1177.71,213.13 1208.45,268.63 1182.23,376.74 1156.47,290.94 1156.46,290.94 1166.86,275.39 
				1146.07,233.36 			"/>
			<polygon class="st1" points="1134.32,324.05 1195.34,483.62 1069.81,483.62 			"/>
			<polygon class="st0" points="1146.07,233.36 1166.86,275.39 1132.51,249.44 1095.45,275.39 1107.2,239.27 			"/>
			<polygon class="st2" points="1166.86,275.39 1156.46,290.94 1134.32,324.05 1095.45,275.39 1132.51,249.44 			"/>
		</g>
		<g>
			<line class="st3" x1="1095.45" y1="275.39" x2="1134.32" y2="324.05"/>
			<polyline class="st3" points="1166.86,275.39 1156.46,290.94 1134.32,324.05 			"/>
			<line class="st3" x1="1095.45" y1="275.39" x2="1132.51" y2="249.44"/>
			<line class="st3" x1="1166.86" y1="275.39" x2="1132.51" y2="249.44"/>
			<line class="st3" x1="1095.45" y1="275.39" x2="1107.2" y2="239.27"/>
			<line class="st3" x1="1146.07" y1="233.36" x2="1107.2" y2="239.27"/>
			<line class="st3" x1="1166.86" y1="275.39" x2="1146.07" y2="233.36"/>
			<line class="st3" x1="1177.71" y1="213.13" x2="1146.07" y2="233.36"/>
			<line class="st3" x1="1208.45" y1="268.63" x2="1177.71" y2="213.13"/>
			<line class="st3" x1="1182.23" y1="376.74" x2="1208.45" y2="268.63"/>
			<line class="st3" x1="1156.47" y1="290.94" x2="1182.23" y2="376.74"/>
			<line class="st3" x1="1134.32" y1="324.05" x2="1069.81" y2="483.62"/>
			<line class="st3" x1="1195.34" y1="483.62" x2="1069.81" y2="483.62"/>
			<line class="st3" x1="1134.32" y1="324.05" x2="1195.34" y2="483.62"/>
		</g>
	</g>
	<g id="XMLID_8_">
		<g>
			<polygon class="st4" points="1298.5,404.46 1318.07,485.6 1287.63,455.23 1290.53,485.6 1247.57,485.6 1247.57,456.68 
				1220.95,485.6 1239.99,407.39 1270.33,398.51 			"/>
			<polygon class="st5" points="1282.25,310.6 1309.34,355.29 1295.79,348.9 1295.79,348.89 1255.16,329.72 1239.99,347.03 
				1239.99,322.77 			"/>
			<polygon class="st6" points="1295.79,348.9 1295.79,381.48 1270.33,398.51 1239.99,387.17 1239.99,347.03 1255.16,329.72 
				1295.79,348.89 			"/>
		</g>
		<g>
			<line class="st3" x1="1239.99" y1="347.03" x2="1239.99" y2="387.17"/>
			<line class="st3" x1="1295.79" y1="348.9" x2="1309.34" y2="355.29"/>
			<line class="st3" x1="1255.16" y1="329.72" x2="1295.79" y2="348.89"/>
			<line class="st3" x1="1282.25" y1="310.6" x2="1309.34" y2="355.29"/>
			<line class="st3" x1="1239.99" y1="322.77" x2="1282.25" y2="310.6"/>
			<line class="st3" x1="1239.99" y1="347.03" x2="1255.16" y2="329.72"/>
			<line class="st3" x1="1239.99" y1="322.77" x2="1239.99" y2="347.03"/>
			<line class="st3" x1="1270.33" y1="398.51" x2="1239.99" y2="387.17"/>
			<line class="st3" x1="1295.79" y1="381.48" x2="1270.33" y2="398.51"/>
			<polyline class="st3" points="1295.79,348.89 1295.79,348.9 1295.79,381.48 			"/>
			<line class="st3" x1="1270.33" y1="398.51" x2="1239.99" y2="407.39"/>
			<line class="st3" x1="1220.95" y1="485.6" x2="1239.99" y2="407.39"/>
			<line class="st3" x1="1298.5" y1="404.46" x2="1270.33" y2="398.51"/>
			<line class="st3" x1="1318.07" y1="485.6" x2="1298.5" y2="404.46"/>
			<line class="st3" x1="1220.95" y1="485.6" x2="1247.57" y2="456.68"/>
			<line class="st3" x1="1287.63" y1="455.23" x2="1318.07" y2="485.6"/>
			<line class="st3" x1="1247.57" y1="485.6" x2="1247.57" y2="456.68"/>
			<line class="st3" x1="1290.53" y1="485.6" x2="1287.63" y2="455.23"/>
			<line class="st3" x1="1247.57" y1="485.6" x2="1290.53" y2="485.6"/>
		</g>
	</g>
	<g id="XMLID_6_">
		<g>
			<polygon class="st7" points="1045.96,324.91 1033.08,407.59 1019.34,370.79 1018.48,322.99 979.83,322.99 979.83,321.71 
				1009.89,297.66 			"/>
			<polygon class="st8" points="993.57,390.64 1039.52,489.38 947.2,485.03 			"/>
			<polygon class="st9" points="1018.48,322.99 1019.34,370.79 993.57,390.64 968.24,378.63 956.65,373.13 956.65,322.99 
				979.83,322.99 			"/>
			<polygon class="st7" points="979.83,321.71 979.83,322.99 956.65,322.99 956.65,373.13 968.24,378.63 956.65,413.6 
				937.75,340.98 956.65,309.47 			"/>
		</g>
		<g>
			<line class="st3" x1="956.65" y1="322.99" x2="956.65" y2="373.13"/>
			<polyline class="st3" points="993.57,390.64 968.24,378.63 956.65,373.13 			"/>
			<line class="st3" x1="1019.34" y1="370.79" x2="993.57" y2="390.64"/>
			<line class="st3" x1="1018.48" y1="322.99" x2="1019.34" y2="370.79"/>
			<polyline class="st3" points="956.65,322.99 979.83,322.99 1018.48,322.99 			"/>
			<line class="st3" x1="979.83" y1="321.71" x2="1009.89" y2="297.66"/>
			<line class="st3" x1="1045.96" y1="324.91" x2="1009.89" y2="297.66"/>
			<line class="st3" x1="1033.08" y1="407.59" x2="1045.96" y2="324.91"/>
			<line class="st3" x1="1019.34" y1="370.79" x2="1033.08" y2="407.59"/>
			<line class="st3" x1="979.83" y1="321.71" x2="956.65" y2="309.47"/>
			<line class="st3" x1="937.75" y1="340.98" x2="956.65" y2="309.47"/>
			<line class="st3" x1="956.65" y1="413.6" x2="937.75" y2="340.98"/>
			<line class="st3" x1="968.24" y1="378.63" x2="956.65" y2="413.6"/>
			<line class="st3" x1="993.57" y1="390.64" x2="947.2" y2="485.03"/>
			<line class="st3" x1="1039.52" y1="489.38" x2="947.2" y2="485.03"/>
			<line class="st3" x1="993.57" y1="390.64" x2="1039.52" y2="489.38"/>
		</g>
	</g>
	<g id="XMLID_9_">
		<g>
			<polygon class="st10" points="859.47,283.84 846.82,351.33 824.33,326.56 824.32,326.56 842.44,293.8 813.98,294.9 
				807.96,283.32 801.94,294.9 778.4,294.9 799.96,325.4 799.96,325.41 782.23,351.33 762.88,284.33 780.51,268.95 840.34,268.87 
							"/>
			<polygon class="st11" points="843.01,373.82 811.99,427.45 778.4,368.75 813.98,345.25 			"/>
			<polygon class="st12" points="842.44,293.8 824.32,326.56 813.98,345.25 799.96,325.41 799.96,325.4 778.4,294.9 801.94,294.9 
				807.96,283.32 813.98,294.9 			"/>
			<polygon class="st11" points="811.99,427.45 860.15,483.98 767.58,486.16 			"/>
		</g>
		<g>
			<line class="st3" x1="799.96" y1="325.41" x2="813.98" y2="345.25"/>
			<line class="st3" x1="778.4" y1="294.9" x2="799.96" y2="325.4"/>
			<polyline class="st3" points="842.44,293.8 824.32,326.56 813.98,345.25 			"/>
			<line class="st3" x1="846.82" y1="351.33" x2="859.47" y2="283.84"/>
			<line class="st3" x1="824.33" y1="326.56" x2="846.82" y2="351.33"/>
			<polyline class="st3" points="799.96,325.4 799.96,325.41 782.23,351.33 			"/>
			<line class="st3" x1="762.88" y1="284.33" x2="782.23" y2="351.33"/>
			<line class="st3" x1="778.4" y1="294.9" x2="801.94" y2="294.9"/>
			<line class="st3" x1="807.96" y1="283.32" x2="801.94" y2="294.9"/>
			<line class="st3" x1="813.98" y1="294.9" x2="807.96" y2="283.32"/>
			<line class="st3" x1="842.44" y1="293.8" x2="813.98" y2="294.9"/>
			<line class="st3" x1="780.51" y1="268.95" x2="840.34" y2="268.87"/>
			<line class="st3" x1="780.51" y1="268.95" x2="762.88" y2="284.33"/>
			<line class="st3" x1="840.34" y1="268.87" x2="859.47" y2="283.84"/>
			<line class="st3" x1="813.98" y1="345.25" x2="778.4" y2="368.75"/>
			<line class="st3" x1="843.01" y1="373.82" x2="813.98" y2="345.25"/>
			<line class="st3" x1="778.4" y1="368.75" x2="811.99" y2="427.45"/>
			<line class="st3" x1="843.01" y1="373.82" x2="811.99" y2="427.45"/>
			<line class="st3" x1="767.58" y1="486.16" x2="811.99" y2="427.45"/>
			<line class="st3" x1="860.15" y1="483.98" x2="811.99" y2="427.45"/>
			<line class="st3" x1="767.58" y1="486.16" x2="860.15" y2="483.98"/>
		</g>
	</g>
	<g id="XMLID_5_">
		<g>
			<polygon class="st13" points="698.45,352.46 698.45,389.5 670.49,410.78 637.15,389.5 637.15,352.46 661.88,333.04 			"/>
			<polygon class="st14" points="707.06,337.34 715.66,370.98 698.45,389.5 698.45,352.46 661.88,333.04 637.15,352.46 
				637.15,389.5 617.79,370.98 626.39,337.34 661.88,315.83 684.47,324.97 			"/>
			<polygon class="st15" points="711.36,409.62 672.7,485.44 628.73,412.31 			"/>
		</g>
		<g>
			<line class="st3" x1="661.88" y1="333.04" x2="698.45" y2="352.46"/>
			<line class="st3" x1="698.45" y1="389.5" x2="698.45" y2="352.46"/>
			<line class="st3" x1="670.49" y1="410.78" x2="698.45" y2="389.5"/>
			<line class="st3" x1="637.15" y1="389.5" x2="670.49" y2="410.78"/>
			<line class="st3" x1="637.15" y1="352.46" x2="637.15" y2="389.5"/>
			<line class="st3" x1="661.88" y1="333.04" x2="637.15" y2="352.46"/>
			<line class="st3" x1="698.45" y1="389.5" x2="715.66" y2="370.98"/>
			<line class="st3" x1="684.47" y1="324.97" x2="707.06" y2="337.34"/>
			<line class="st3" x1="715.66" y1="370.98" x2="707.06" y2="337.34"/>
			<line class="st3" x1="661.88" y1="315.83" x2="684.47" y2="324.97"/>
			<line class="st3" x1="626.39" y1="337.34" x2="661.88" y2="315.83"/>
			<line class="st3" x1="617.79" y1="370.98" x2="626.39" y2="337.34"/>
			<line class="st3" x1="637.15" y1="389.5" x2="617.79" y2="370.98"/>
			<line class="st3" x1="628.73" y1="412.31" x2="711.36" y2="409.62"/>
			<line class="st3" x1="672.7" y1="485.44" x2="628.73" y2="412.31"/>
			<line class="st3" x1="711.36" y1="409.62" x2="672.7" y2="485.44"/>
		</g>
	</g>
	<g id="XMLID_4_">
		<g>
			<polygon class="st16" points="606.91,414.98 607.63,485.71 525.91,485.71 525.91,414.98 564.49,396.28 			"/>
			<polygon class="st17" points="600.03,333.17 592.46,375 587.56,339 561.44,322.51 535.5,337.96 531.15,375 520.67,333.17 
				540.95,318.11 525.91,303.97 563.32,274.77 596.24,301.66 582.49,320.58 			"/>
			<polygon class="st18" points="587.56,339 592.46,375 564.49,396.28 531.15,375 535.5,337.96 561.44,322.51 			"/>
		</g>
		<g>
			<line class="st3" x1="561.44" y1="322.51" x2="587.56" y2="339"/>
			<line class="st3" x1="592.46" y1="375" x2="587.56" y2="339"/>
			<line class="st3" x1="564.49" y1="396.28" x2="592.46" y2="375"/>
			<line class="st3" x1="531.15" y1="375" x2="564.49" y2="396.28"/>
			<line class="st3" x1="535.5" y1="337.96" x2="531.15" y2="375"/>
			<line class="st3" x1="561.44" y1="322.51" x2="535.5" y2="337.96"/>
			<line class="st3" x1="582.49" y1="320.58" x2="600.03" y2="333.17"/>
			<line class="st3" x1="592.46" y1="375" x2="600.03" y2="333.17"/>
			<line class="st3" x1="520.67" y1="333.17" x2="540.95" y2="318.11"/>
			<line class="st3" x1="531.15" y1="375" x2="520.67" y2="333.17"/>
			<line class="st3" x1="540.95" y1="318.11" x2="525.91" y2="303.97"/>
			<line class="st3" x1="563.32" y1="274.77" x2="525.91" y2="303.97"/>
			<line class="st3" x1="596.24" y1="301.66" x2="563.32" y2="274.77"/>
			<line class="st3" x1="582.49" y1="320.58" x2="596.24" y2="301.66"/>
			<line class="st3" x1="564.49" y1="396.28" x2="525.91" y2="414.98"/>
			<line class="st3" x1="606.91" y1="414.98" x2="564.49" y2="396.28"/>
			<line class="st3" x1="525.91" y1="414.98" x2="525.91" y2="485.71"/>
			<line class="st3" x1="607.63" y1="485.71" x2="606.91" y2="414.98"/>
			<line class="st3" x1="525.91" y1="485.71" x2="607.63" y2="485.71"/>
		</g>
	</g>
	<g id="XMLID_3_">
		<g>
			<polygon class="st19" points="436.19,302.29 441.1,363.92 431.27,377.82 417.08,363.92 417.08,311.5 375.03,265.64 
				361.38,282.15 358.11,321.88 376.27,334.47 376.27,334.48 359.74,377.82 342.82,354.5 359.74,247.62 404.52,247.62 			"/>
			<polygon class="st20" points="391.96,345.36 436.19,484.89 344.8,484.89 			"/>
			<polygon class="st21" points="375.03,265.64 417.08,311.5 391.96,345.36 376.27,334.48 376.27,334.47 358.11,321.88 
				361.38,282.15 			"/>
		</g>
		<g>
			<line class="st3" x1="361.38" y1="282.15" x2="358.11" y2="321.88"/>
			<line class="st3" x1="376.27" y1="334.47" x2="358.11" y2="321.88"/>
			<line class="st3" x1="391.96" y1="345.36" x2="376.27" y2="334.48"/>
			<line class="st3" x1="417.08" y1="311.5" x2="391.96" y2="345.36"/>
			<line class="st3" x1="375.03" y1="265.64" x2="417.08" y2="311.5"/>
			<line class="st3" x1="417.08" y1="363.92" x2="417.08" y2="311.5"/>
			<line class="st3" x1="431.27" y1="377.82" x2="417.08" y2="363.92"/>
			<line class="st3" x1="441.1" y1="363.92" x2="431.27" y2="377.82"/>
			<line class="st3" x1="436.19" y1="302.29" x2="441.1" y2="363.92"/>
			<line class="st3" x1="404.52" y1="247.62" x2="436.19" y2="302.29"/>
			<line class="st3" x1="359.74" y1="247.62" x2="404.52" y2="247.62"/>
			<line class="st3" x1="342.82" y1="354.5" x2="359.74" y2="247.62"/>
			<line class="st3" x1="359.74" y1="377.82" x2="342.82" y2="354.5"/>
			<polyline class="st3" points="376.27,334.47 376.27,334.48 359.74,377.82 			"/>
			<line class="st3" x1="375.03" y1="265.64" x2="361.38" y2="282.15"/>
			<line class="st3" x1="391.96" y1="345.36" x2="344.8" y2="484.89"/>
			<line class="st3" x1="436.19" y1="484.89" x2="391.96" y2="345.36"/>
			<line class="st3" x1="344.8" y1="484.89" x2="436.19" y2="484.89"/>
		</g>
	</g>
	<g id="XMLID_1_">
		<g>
			<polygon class="st22" points="131.85,393.32 120.8,418.73 117.32,375.56 117.94,338 79.78,321.81 59.73,347.51 66.13,378.97 
				65.05,423.5 57.06,410.2 43.95,388.36 39.68,329.91 79.78,285.98 125.42,297.92 142.91,367.88 			"/>
			<polygon class="st23" points="131.85,393.32 133.61,485.3 70.39,485.3 57.06,410.2 65.05,423.5 66.13,378.97 93.43,390.06 
				117.32,375.56 120.8,418.73 			"/>
			<polygon class="st24" points="117.94,338 117.32,375.56 93.43,390.06 66.13,378.97 59.73,347.51 79.78,321.81 			"/>
		</g>
		<g>
			<polyline class="st3" points="55.89,328.64 59.73,347.51 66.13,378.97 			"/>
			<line class="st3" x1="66.13" y1="378.97" x2="93.43" y2="390.06"/>
			<line class="st3" x1="117.32" y1="375.56" x2="93.43" y2="390.06"/>
			<polyline class="st3" points="118.17,324.37 117.94,338 117.32,375.56 			"/>
			<line class="st3" x1="79.78" y1="321.81" x2="117.94" y2="338"/>
			<line class="st3" x1="117.32" y1="375.56" x2="120.8" y2="418.73"/>
			<polyline class="st3" points="142.91,367.88 131.85,393.32 120.8,418.73 			"/>
			<line class="st3" x1="125.42" y1="297.92" x2="142.91" y2="367.88"/>
			<line class="st3" x1="79.78" y1="285.98" x2="125.42" y2="297.92"/>
			<line class="st3" x1="39.68" y1="329.91" x2="79.78" y2="285.98"/>
			<line class="st3" x1="43.95" y1="388.36" x2="39.68" y2="329.91"/>
			<polyline class="st3" points="65.05,423.5 57.06,410.2 43.95,388.36 			"/>
			<line class="st3" x1="66.13" y1="378.97" x2="65.05" y2="423.5"/>
			<line class="st3" x1="59.73" y1="347.51" x2="79.78" y2="321.81"/>
			<line class="st3" x1="57.06" y1="410.2" x2="70.39" y2="485.3"/>
			<line class="st3" x1="133.61" y1="485.3" x2="70.39" y2="485.3"/>
			<polyline class="st3" points="131.85,393.3 131.85,393.32 133.61,485.3 			"/>
		</g>
	</g>
	<g id="XMLID_2_">
		<g>
			<polygon class="st25" points="237.65,378.36 275.15,489.13 175.32,484.56 208.45,379.97 225.42,393.08 			"/>
			<polygon class="st26" points="266.12,309.07 258.81,352.9 246.29,328.36 219.15,316.37 187.85,328.36 179.5,357.6 171.15,312.2 
				228.55,289.24 			"/>
			<polygon class="st27" points="246.29,328.36 258.81,352.9 237.65,378.36 225.42,393.08 208.45,379.97 179.5,357.6 187.85,328.36 
				219.15,316.37 			"/>
		</g>
		<g>
			<polyline class="st3" points="225.42,393.08 208.45,379.97 179.5,357.6 			"/>
			<polyline class="st3" points="258.81,352.9 237.65,378.36 225.42,393.08 			"/>
			<line class="st3" x1="246.29" y1="328.36" x2="258.81" y2="352.9"/>
			<line class="st3" x1="187.85" y1="328.36" x2="219.15" y2="316.37"/>
			<line class="st3" x1="246.29" y1="328.36" x2="219.15" y2="316.37"/>
			<line class="st3" x1="179.5" y1="357.6" x2="187.85" y2="328.36"/>
			<line class="st3" x1="171.15" y1="312.2" x2="179.5" y2="357.6"/>
			<line class="st3" x1="228.55" y1="289.24" x2="171.15" y2="312.2"/>
			<line class="st3" x1="258.81" y1="352.9" x2="266.12" y2="309.07"/>
			<line class="st3" x1="228.55" y1="289.24" x2="266.12" y2="309.07"/>
			<line class="st3" x1="208.45" y1="379.97" x2="175.32" y2="484.56"/>
			<line class="st3" x1="237.65" y1="378.36" x2="275.15" y2="489.13"/>
			<line class="st3" x1="175.32" y1="484.56" x2="275.15" y2="489.13"/>
		</g>
	</g>
	<g id="Layer_3">
	</g>
</g>
<g id="eyes" class="st30">
	<line class="st31" x1="906.55" y1="250.81" x2="906.55" y2="264.54"/>
	<rect x="906.55" y="256.9" class="st32" width="7.64" height="7.64"/>
	<line class="st31" x1="929.05" y1="250.81" x2="929.05" y2="264.54"/>
	<rect x="929.05" y="256.9" class="st32" width="7.64" height="7.64"/>
	<line class="st31" x1="1041.99" y1="252.05" x2="1041.99" y2="265.78"/>
	<rect x="1041.99" y="258.14" class="st32" width="7.64" height="7.64"/>
	<line class="st31" x1="1064.5" y1="252.05" x2="1064.5" y2="265.78"/>
	<rect x="1064.5" y="258.14" class="st32" width="7.64" height="7.64"/>
	<line class="st31" x1="1192.77" y1="258.91" x2="1192.77" y2="272.64"/>
	<rect x="1192.77" y="265.01" class="st32" width="7.64" height="7.64"/>
	<line class="st31" x1="1215.28" y1="258.91" x2="1215.28" y2="272.64"/>
	<rect x="1215.28" y="265.01" class="st32" width="7.64" height="7.64"/>
	<line class="st31" x1="493.42" y1="256.45" x2="493.42" y2="270.18"/>
	<rect x="493.42" y="262.54" class="st32" width="7.64" height="7.64"/>
	<line class="st31" x1="515.93" y1="256.45" x2="515.93" y2="270.18"/>
	<rect x="515.93" y="262.54" class="st32" width="7.64" height="7.64"/>
	<line class="st31" x1="347.3" y1="255.41" x2="347.3" y2="269.14"/>
	<rect x="347.3" y="261.5" class="st32" width="7.64" height="7.64"/>
	<line class="st31" x1="369.81" y1="255.41" x2="369.81" y2="269.14"/>
	<rect x="369.81" y="261.5" class="st32" width="7.64" height="7.64"/>
	<line class="st33" x1="213.69" y1="255.41" x2="213.69" y2="270.49"/>
	<rect x="213.69" y="262.1" class="st34" width="8.39" height="8.39"/>
	<line class="st33" x1="238.41" y1="255.41" x2="238.41" y2="270.49"/>
	<rect x="238.41" y="262.1" class="st34" width="8.39" height="8.39"/>
	<line class="st31" x1="76.37" y1="257.47" x2="76.37" y2="271.2"/>
	<rect x="76.37" y="263.56" class="st32" width="7.64" height="7.64"/>
	<line class="st31" x1="98.88" y1="257.47" x2="98.88" y2="271.2"/>
	<rect x="98.88" y="263.56" class="st32" width="7.64" height="7.64"/>
	<line class="st31" x1="622.35" y1="261.95" x2="622.35" y2="275.68"/>
	<rect x="622.35" y="268.04" class="st32" width="7.64" height="7.64"/>
	<line class="st31" x1="644.85" y1="261.95" x2="644.85" y2="275.68"/>
	<rect x="644.85" y="268.04" class="st32" width="7.64" height="7.64"/>
	<line class="st35" x1="767.26" y1="251.57" x2="767.26" y2="263.32"/>
	<rect x="767.26" y="256.78" class="st36" width="6.53" height="6.53"/>
	<line class="st35" x1="786.51" y1="251.57" x2="786.51" y2="263.32"/>
	<rect x="786.51" y="256.78" class="st36" width="6.53" height="6.53"/>
</g>
<g id="messages">
	<g>
		<g id="XMLID_16_">
			<g>
				<polygon points="256.4,117.53 256.4,213.32 144.21,213.32 103.82,242.67 110.43,213.32 88.22,213.32 88.22,117.53 				"/>
			</g>
			<g>
				<line class="st37" x1="103.82" y1="242.67" x2="110.43" y2="213.32"/>
				<line class="st37" x1="144.21" y1="213.32" x2="103.82" y2="242.67"/>
				<line class="st37" x1="144.21" y1="213.32" x2="256.4" y2="213.32"/>
				<line class="st37" x1="256.4" y1="117.53" x2="256.4" y2="213.32"/>
				<line class="st37" x1="88.22" y1="117.53" x2="256.4" y2="117.53"/>
				<line class="st37" x1="88.22" y1="213.32" x2="88.22" y2="117.53"/>
				<line class="st37" x1="110.43" y1="213.32" x2="88.22" y2="213.32"/>
			</g>
		</g>
	</g>
	<g>
		<g id="XMLID_17_">
			<g>
				<polygon points="689.1,128.39 689.1,247.44 666.87,247.44 673.49,283.93 633.05,247.44 520.72,247.44 520.72,128.39 				"/>
			</g>
			<g>
				<line class="st38" x1="673.49" y1="283.93" x2="666.87" y2="247.44"/>
				<line class="st38" x1="633.05" y1="247.44" x2="673.49" y2="283.93"/>
				<line class="st38" x1="633.05" y1="247.44" x2="520.72" y2="247.44"/>
				<line class="st38" x1="520.72" y1="128.39" x2="520.72" y2="247.44"/>
				<line class="st38" x1="689.1" y1="128.39" x2="520.72" y2="128.39"/>
				<line class="st38" x1="689.1" y1="247.44" x2="689.1" y2="128.39"/>
				<line class="st38" x1="666.87" y1="247.44" x2="689.1" y2="247.44"/>
			</g>
		</g>
	</g>
	<g>
		<g id="XMLID_18_">
			<g>
				<polygon points="987.56,106.8 987.56,210.8 859.89,210.8 813.94,242.67 821.46,210.8 796.19,210.8 796.19,106.8 				"/>
			</g>
			<g>
				<line class="st39" x1="813.94" y1="242.67" x2="821.46" y2="210.8"/>
				<line class="st39" x1="859.89" y1="210.8" x2="813.94" y2="242.67"/>
				<line class="st39" x1="859.89" y1="210.8" x2="987.56" y2="210.8"/>
				<line class="st39" x1="987.56" y1="106.8" x2="987.56" y2="210.8"/>
				<line class="st39" x1="796.19" y1="106.8" x2="987.56" y2="106.8"/>
				<line class="st39" x1="796.19" y1="210.8" x2="796.19" y2="106.8"/>
				<line class="st39" x1="821.46" y1="210.8" x2="796.19" y2="210.8"/>
			</g>
		</g>
	</g>
	<g>
		<g id="XMLID_19_">
			<g>
				<polygon points="1404.08,158.8 1404.08,259.12 1311.85,259.12 1278.65,289.86 1284.09,259.12 1265.83,259.12 1265.83,158.8 				
					"/>
			</g>
			<g>
				<line class="st40" x1="1278.65" y1="289.86" x2="1284.09" y2="259.12"/>
				<line class="st40" x1="1311.85" y1="259.12" x2="1278.65" y2="289.86"/>
				<line class="st40" x1="1311.85" y1="259.12" x2="1404.08" y2="259.12"/>
				<line class="st40" x1="1404.08" y1="158.8" x2="1404.08" y2="259.12"/>
				<line class="st40" x1="1265.83" y1="158.8" x2="1404.08" y2="158.8"/>
				<line class="st40" x1="1265.83" y1="259.12" x2="1265.83" y2="158.8"/>
				<line class="st40" x1="1284.09" y1="259.12" x2="1265.83" y2="259.12"/>
			</g>
		</g>
	</g>
	<g>
		<g id="XMLID_12_">
			<g>
				<polygon class="st45" points="423.9,196.53 398.91,216.6 396.66,190.63 				"/>
				<path class="st45" d="M440.65,128.31c19.85,3.85,42.57,20.06,40.04,38.55c-2.39,17.41-26.74,33.68-56.79,29.67l-27.24-5.9
					c-2.42-1.85-20.01-15.75-17.48-32.78C382.34,136.52,415.11,123.35,440.65,128.31z"/>
			</g>
			<g>
				<line class="st46" x1="398.91" y1="216.6" x2="396.66" y2="190.63"/>
				<line class="st46" x1="423.9" y1="196.53" x2="398.91" y2="216.6"/>
				<path class="st46" d="M396.66,190.63c-2.42-1.85-20.01-15.75-17.48-32.78c3.16-21.33,35.93-34.5,61.47-29.54
					c19.85,3.85,42.57,20.06,40.04,38.55c-2.39,17.41-26.74,33.68-56.79,29.67"/>
			</g>
		</g>
		<g>
			<g>
				<path class="st47" d="M404.09,175.31c1.38,5.4,7.43,3.1,10.03,0.13c0.57-0.65,1.41-2.33,2.26-2.64c1.88-0.7,3.41,1.43,4.36,2.36
					c0.96,0.95,1.14,2.07,2.44,2.84c2.77,1.65,5.79,0.13,8.14-1.49c2.32-1.6,4.12-3.99,6.6-1.11c0.6,0.7,0.59,1.87,1.3,2.57
					c1.38,1.38,2.9,1.15,4.51,0.23c2.47-1.42,3.78-4.32,6.7-2.75c0.7,0.38,0.86,1.39,1.87,1.79c1.11,0.42,2.32,0.1,3.43-0.12
					c3.58-0.72,6.22-1.51,9.91-0.54c1.56,0.41,2.22-2,0.66-2.41c-3.72-0.98-6.27-0.18-9.91,0.11c-1.4,0.77-2.76,0.54-4.09-0.68
					c-0.31-0.42-0.62-0.84-0.94-1.25c-0.62-0.24-1.15-0.5-1.89-0.53c-1.96-0.07-3.78,1.87-5.33,2.75c-4.83,2.75-2.94-1.08-5.61-3.31
					c-1.66-1.38-3.25-0.58-4.98,0.37c-0.94,0.52-1.84,1.39-2.68,2.03c-2.17,2.48-4.82,2.56-7.95,0.22c-0.42-0.94-0.95-1.82-1.6-2.62
					c-1.46-1.62-3.11-2.19-5.15-1.37c-1.59,0.64-8.25,10.17-9.64,4.73C406.1,173.09,403.69,173.75,404.09,175.31L404.09,175.31z"/>
			</g>
		</g>
		<g>
			<g>
				<path class="st47" d="M392.79,150.91c1.24,1.71,2.98,5.71,5.54,5.67c1.35-0.02,2.17-1.03,3.07-1.89
					c2.45-2.31,4.77-4.8,7.14-7.19c-0.7-0.18-1.39-0.37-2.09-0.55c0.65,4.48,2.14,9.6,7.41,10.12c5.37,0.53,8.86-4.23,11.46-8.18
					c-0.57,0.15-1.14,0.3-1.71,0.45c2.63,1.97,2.64,6.39,6.14,7.45c1.72,0.52,2.38-0.22,3.86-0.82c3.41-1.37,2.68,0.18,5.46,0.26
					c0.78,0.02,1.07-0.09,2-0.37c4.02-1.25,8.07-4.47,11.73-6.55c-0.61-0.25-1.22-0.5-1.84-0.75c0.95,4.5,4.2,7.2,8.72,7.66
					c1.6,0.16,1.59-2.34,0-2.5c-3.38-0.34-5.63-2.62-6.3-5.82c-0.17-0.81-1.17-1.13-1.84-0.75c-3,1.7-6.11,4.04-9.31,5.3
					c-2.85,1.12-4.47-0.26-6.88-0.21c-0.76,0.02-1.21,0.53-1.84,0.64c-1.3,0.23-3.72,0.42-5.04-0.71c-1.5-1.29-1.79-3.64-3.6-5
					c-0.56-0.42-1.37-0.06-1.71,0.45c-1.96,2.98-5.47,8.21-9.91,6.84c-3.33-1.03-3.96-5.31-4.39-8.18
					c-0.14-0.96-1.49-1.16-2.09-0.55c-1.95,1.96-3.89,3.92-5.84,5.88c-1.25,1.26-1.32,2.03-2.97,1.37
					c-1.39-0.56-2.18-2.19-3.01-3.34C394.02,148.36,391.85,149.6,392.79,150.91L392.79,150.91z"/>
			</g>
		</g>
	</g>
	<g>
		<g id="XMLID_11_">
			<g>
				<path class="st45" d="M301.28,229.41c12.17,2.95,26.1,15.35,24.55,29.5c-1.47,13.32-16.39,25.77-34.82,22.7l-16.7-4.51
					c-1.48-1.42-12.27-12.05-10.72-25.08C265.54,235.69,285.63,225.61,301.28,229.41z"/>
				<polygon class="st45" points="291.02,281.61 275.7,296.97 274.32,277.09 				"/>
			</g>
			<g>
				<line class="st51" x1="275.7" y1="296.97" x2="274.32" y2="277.09"/>
				<line class="st51" x1="291.02" y1="281.61" x2="275.7" y2="296.97"/>
				<path class="st51" d="M274.32,277.09c-1.48-1.42-12.27-12.05-10.72-25.08c1.94-16.32,22.03-26.4,37.69-22.6
					c12.17,2.95,26.1,15.35,24.55,29.5c-1.47,13.32-16.39,25.77-34.82,22.7"/>
			</g>
		</g>
		<g>
			<g>
				<path class="st47" d="M278.78,265.35c0.86,3.11,3.76,2.91,5.72,0.86c1.53-1.6,1.33-3.71,4.49-1c0.71,0.61,0.55,1.5,1.43,2.09
					c1.43,0.95,2.82,0.53,4.19-0.28c1.22-0.72,2.79-3.64,4.77-2.06c0.58,0.47,0.33,1.93,1.06,2.5c0.95,0.74,1.36,0.72,2.5,0.24
					c0.8-0.34,1.07-1.42,1.83-1.8c6.32-3.15,1.22-0.01,2.9,0.3c1.87,0.35,0.27,0.49,2.36,0.59c2.41,0.12,3.79-1.34,6.53-0.54
					c1.06,0.31,1.51-1.34,0.46-1.65c-2.7-0.79-6.06,0.82-8.45-0.28c-1.28-0.59-0.16-1.42-1.9-1.51c-1.73-0.09-2.65,2.52-3.95,2.74
					c-2.03,0.34-1.83-2.38-3.14-3.55c-0.22-0.19-0.54-0.33-0.83-0.22c-1.79,0.64-2.71,2.54-4.27,3.15c-5.05,1.99-3.6-2.48-6.02-3.61
					c-1.01-0.47-1.52-0.36-2.44,0.11c-0.78,0.4-4.75,6.53-5.59,3.47C280.14,263.83,278.49,264.28,278.78,265.35L278.78,265.35z"/>
			</g>
		</g>
		<g>
			<g>
				<path class="st47" d="M271.87,246.65c0.83,1.44,1.53,2.86,2.66,4.08c0.21,0.22,0.54,0.29,0.83,0.22
					c2.68-0.67,4.68-4.88,6.3-6.92c-0.49-0.2-0.97-0.4-1.46-0.61c0.34,2.78,0.82,7.16,4.24,7.86c3.8,0.77,6.09-3.47,7.52-6.17
					c-0.45,0.06-0.9,0.12-1.34,0.17c3.07,3.22,1.7,6.16,6.19,5.35c1.44-0.26,2.75,0.19,4.23-0.04c2.51-0.38,5.77-3.81,7.73-5.2
					c-0.42-0.17-0.84-0.34-1.26-0.51c0.58,2.95,2.12,5.24,5.2,5.75c1.08,0.18,1.54-1.47,0.46-1.65c-2.51-0.65-3.85-2.17-4.01-4.56
					c-0.1-0.51-0.83-0.82-1.26-0.51c-1.96,1.39-4.81,4.36-7.27,4.51c-0.98,0.06-1.69-0.76-2.52-0.62c-0.45,0.08-2.01,1.3-2.11,1.29
					c-1.57-0.08-3.14-3.93-4.19-5.03c-0.37-0.39-1.09-0.31-1.34,0.17c-1.38,2.6-0.98,2.49-4.65,2.6c-4.03,0.13-3.47,0.23-3.91-3.43
					c-0.08-0.63-0.94-1.26-1.46-0.61c-0.99,1.24-2.33,3.53-3.58,4.5c-0.4,0.5-0.8,1-1.19,1.5c-1.03-0.82-1.81-1.83-2.33-3.03
					C272.79,244.83,271.31,245.69,271.87,246.65L271.87,246.65z"/>
			</g>
		</g>
	</g>
	<g>
		<g id="XMLID_14_">
			<g>
				<path class="st45" d="M945.74,229.04c-16.1,2.95-34.53,15.35-32.48,29.5c1.94,13.32,21.69,25.77,46.06,22.7l22.09-4.51
					c1.96-1.42,16.23-12.05,14.18-25.08C993.04,235.33,966.46,225.25,945.74,229.04z"/>
				<polygon class="st45" points="959.33,281.25 979.6,296.61 981.42,276.73 				"/>
			</g>
			<g>
				<line class="st52" x1="979.6" y1="296.61" x2="981.42" y2="276.73"/>
				<line class="st52" x1="959.33" y1="281.25" x2="979.6" y2="296.61"/>
				<path class="st52" d="M981.42,276.73c1.96-1.42,16.23-12.05,14.18-25.08c-2.56-16.32-29.14-26.4-49.86-22.6
					c-16.1,2.95-34.53,15.35-32.48,29.5c1.94,13.32,21.69,25.77,46.06,22.7"/>
			</g>
		</g>
		<g>
			<g>
				<path class="st47" d="M973.47,264.5c-1.19,3.25-6.92-3.7-8.79-3.96c-1.29-0.18-2.33,0.52-3.2,1.38
					c-2.57,2.54-0.02,5.42-8.03,1.64c-0.96-0.45-1.71-1.35-2.72-1.77c-1.5-0.62-2.18-0.77-3.35,0.26c-0.54,0.47-0.59,1.37-1.05,1.84
					c-2.35,2.38-2.03,0.87-3.79,0.28c-1.3-0.44-2.62-2.06-4.18-1.8c-2.18,0.37-2.66,1.92-5.36,1.84c-2.79-0.08-5.12-0.77-8.02-0.08
					c-1.23,0.29-0.71,2.19,0.52,1.9c3.89-0.92,7.02,1.07,10.69,0.55c0.59-0.08,0.93-0.83,1.39-0.98c3.45-1.07,3.14,0.51,5.71,1.66
					c1.2,0.54,2.1,0.94,3.29,0.11c0.71-0.5,0.68-1.22,1.2-1.82c0.19-1.9,1.27-2.35,3.25-1.33c0.78,0.57,1.55,1.15,2.32,1.75
					c1.94,1.22,4.18,2.37,6.45,1.19c2.81-1.45,2.42-6,7.04-2.52c2.54,1.91,6.74,5.29,8.53,0.4
					C975.81,263.83,973.91,263.31,973.47,264.5L973.47,264.5z"/>
			</g>
		</g>
		<g>
			<g>
				<path class="st47" d="M982.83,245.36c-0.77,1.35-1.88,2.36-3.32,3c-0.63-0.6-1.26-1.2-1.89-1.8c-1.47-1.4-2.95-2.8-4.42-4.2
					c-0.49-0.46-1.52-0.33-1.65,0.43c-0.45,2.8-0.93,6.74-5.78,6.21c-2.45-0.27-4.66-3.46-5.87-5.19c-0.28-0.41-0.88-0.68-1.35-0.35
					c-1.22,0.86-1.48,1.69-2.42,2.83c-1.16,1.4-2.24,2.18-4.23,1.81c-0.74-0.14-0.9-0.61-1.87-0.77c-1.04-0.17-2.18,0.57-3.33,0.55
					c-3.21-0.05-7-2.93-9.81-4.44c-0.54-0.29-1.29-0.05-1.45,0.59c-0.55,2.69-2.26,4.16-5.14,4.43c-1.25,0.13-1.26,2.11,0,1.97
					c3.56-0.39,6.18-2.3,7.04-5.88c-0.48,0.2-0.96,0.39-1.45,0.59c2.91,1.56,6.57,4.42,9.81,5.1c1.6,0.33,2.32-0.61,3.56-0.64
					c2.32-0.05,3.07,2,5.4,1.25c2.12-0.68,1.89-3.21,3.42-4.06c1.95-1.08,2.4,1.56,4.48,2.9c1.44,0.93,3.1,1.52,4.83,1.37
					c4.19-0.34,5.47-4.15,6.05-7.75c-0.55,0.14-1.1,0.29-1.65,0.43c1.82,1.72,5.25,6.62,7.86,6.87c2.34,0.23,3.64-2.67,4.87-4.28
					C985.3,245.35,983.59,244.37,982.83,245.36L982.83,245.36z"/>
			</g>
		</g>
	</g>
	<g>
		<g id="XMLID_15_">
			<g>
				<path class="st45" d="M1192.15,91.13c24.59,4.51,52.75,23.48,49.61,45.12c-2.96,20.38-33.13,39.42-70.36,34.73l-33.75-6.91
					c-3-2.17-24.79-18.43-21.66-38.37C1119.91,100.74,1160.51,85.33,1192.15,91.13z"/>
				<polygon class="st45" points="1171.4,170.98 1140.44,194.47 1137.65,164.07 				"/>
			</g>
			<g>
				<line class="st53" x1="1140.44" y1="194.47" x2="1137.65" y2="164.07"/>
				<line class="st53" x1="1171.4" y1="170.98" x2="1140.44" y2="194.47"/>
				<path class="st53" d="M1137.65,164.07c-3-2.17-24.79-18.43-21.66-38.37c3.92-24.97,44.52-40.38,76.16-34.57
					c24.59,4.51,52.75,23.48,49.61,45.12c-2.96,20.38-33.13,39.42-70.36,34.73"/>
			</g>
		</g>
		<g>
			<g>
				<path class="st47" d="M1146.89,146.16c0.59,2.43,2.51,3.74,5,3.93c4.07,0.3,5.49-2.57,8.26-4.81c6.73-5.43,6.82,3.38,11.89,4.7
					c3.7,0.97,7.08-1.39,9.87-3.46c0.94-0.7,2.28-2.13,3.48-2.4c2.98-0.67,2.76,0.78,3.56,2.58c0.44,0.99,0.82,2.1,1.67,2.83
					c1.84,1.58,3.78,0.92,5.63-0.21c2.75-1.69,4.8-4.73,8.12-2.74c0.96,0.58,1.37,1.62,2.69,1.96c1.58,0.41,3.2-0.11,4.71-0.53
					c3.96-1.1,7.25-1.37,11.31-0.33c1.88,0.48,2.68-2.42,0.8-2.9c-4.48-1.15-7.84-0.42-12.26,0.13c-1.46,0.18-3.53,0.67-4.91-0.29
					c-0.35-0.24-0.28-0.99-0.68-1.24c-1.2-0.75-1.15-1.3-2.8-1.31c-3.72-0.04-6.19,4.37-9.6,4.27c-2.5-0.07-1.9-1.53-3.01-3.39
					c-0.49-0.83-1.1-1.68-1.99-2.11c-2.47-1.17-5.37,0.98-7.32,2.39c-2.97,2.13-4.81,4.4-8.53,2.92c-3.06-1.22-2.56-2.46-4.58-4.68
					c-1.76-1.92-4.14-2.81-6.59-1.59c-2.19,1.1-10.29,11.8-11.82,5.49C1149.34,143.47,1146.43,144.27,1146.89,146.16L1146.89,146.16
					z"/>
			</g>
		</g>
		<g>
			<g>
				<path class="st47" d="M1132.9,117.61c1.57,2.05,3.76,6.72,6.81,6.66c1.89-0.03,3.08-1.59,4.36-2.77
					c2.8-2.57,5.52-5.25,8.27-7.87c-0.84-0.22-1.68-0.44-2.52-0.66c0.82,5.33,2.72,11.15,8.89,11.87c6.6,0.77,11.06-4.77,14.4-9.59
					c-0.69,0.18-1.37,0.36-2.06,0.54c3.16,2.08,3.23,6.82,6.87,8.44c2.94,1.31,3.67-0.34,6.17-1.23c2.99-1.07,5.63,1.54,8.92,0.28
					c4.88-1.86,9.56-5.05,14.16-7.52c-0.74-0.3-1.47-0.6-2.21-0.9c1.09,5.38,5.41,8.59,10.76,8.99c1.93,0.15,1.92-2.86,0-3.01
					c-4-0.3-7.06-2.83-7.85-6.78c-0.2-0.99-1.41-1.33-2.21-0.9c-3.59,1.93-7.24,4.36-11.01,5.92c-1.09,0.85-2.34,1.2-3.74,1.04
					c-1.23,0.58-2.27,0.43-3.11-0.46c-0.88-0.18-1.43-0.59-2.34-0.54c-3.77,0.18-3.95,5.36-8.43-0.06c-1.81-2.19-1.9-4.19-4.45-5.87
					c-0.72-0.47-1.62-0.1-2.06,0.54c-2.57,3.71-5.79,8.34-10.89,7.97c-5.31-0.39-6.24-5.23-6.9-9.53c-0.18-1.18-1.78-1.37-2.52-0.66
					c-2.53,2.4-5.05,4.81-7.58,7.21c-1.58,1.5-1.94,2.81-4.37,0.99c-1.08-0.81-1.96-2.56-2.77-3.62
					C1134.33,114.57,1131.72,116.07,1132.9,117.61L1132.9,117.61z"/>
			</g>
		</g>
	</g>
</g>
<g id="text">
	<g>
		<g>
			<path class="st47" d="M535.37,148.78c0-4.49,2.81-7.16,6.29-7.16c1.72,0,3.09,0.82,3.96,1.74l-1.3,1.57
				c-0.71-0.71-1.53-1.19-2.6-1.19c-2.23,0-3.84,1.89-3.84,4.97c0,3.13,1.48,5.03,3.78,5.03c1.22,0,2.16-0.56,2.93-1.41l1.3,1.53
				c-1.11,1.29-2.54,2-4.33,2C538.11,155.85,535.37,153.32,535.37,148.78z"/>
			<path class="st47" d="M547.3,150.45c0-3.43,2.33-5.42,4.9-5.42s4.9,1.98,4.9,5.42c0,3.42-2.33,5.4-4.9,5.4
				S547.3,153.87,547.3,150.45z M554.62,150.45c0-2.07-0.91-3.44-2.42-3.44s-2.42,1.38-2.42,3.44c0,2.07,0.91,3.43,2.42,3.43
				S554.62,152.52,554.62,150.45z"/>
			<path class="st47" d="M559.51,145.28h1.98l0.18,1.39h0.07c0.92-0.9,1.97-1.65,3.38-1.65c2.21,0,3.17,1.5,3.17,4.1v6.47h-2.42
				v-6.16c0-1.7-0.49-2.33-1.6-2.33c-0.91,0-1.5,0.44-2.35,1.28v7.21h-2.42V145.28z"/>
			<path class="st47" d="M570.25,154.41l1.13-1.54c0.92,0.71,1.8,1.15,2.85,1.15c1.13,0,1.65-0.53,1.65-1.23
				c0-0.86-1.12-1.25-2.22-1.67c-1.35-0.51-2.9-1.28-2.9-3.01c0-1.79,1.44-3.08,3.75-3.08c1.44,0,2.59,0.58,3.43,1.23l-1.11,1.49
				c-0.72-0.53-1.45-0.9-2.26-0.9c-1.04,0-1.53,0.5-1.53,1.14c0,0.81,1.04,1.13,2.16,1.54c1.39,0.52,2.96,1.19,2.96,3.12
				c0,1.77-1.4,3.2-4.01,3.2C572.74,155.85,571.25,155.25,570.25,154.41z"/>
			<path class="st47" d="M580.04,142.11c0-0.81,0.64-1.37,1.5-1.37c0.86,0,1.49,0.55,1.49,1.37c0,0.8-0.64,1.37-1.49,1.37
				C580.68,143.48,580.04,142.91,580.04,142.11z M580.32,145.28h2.42v10.31h-2.42V145.28z"/>
			<path class="st47" d="M585.19,150.45c0-3.36,2.11-5.42,4.37-5.42c1.17,0,1.91,0.44,2.7,1.13l-0.09-1.66v-3.74h2.42v14.83h-1.98
				l-0.18-1.12h-0.07c-0.76,0.76-1.82,1.37-2.93,1.37C586.86,155.85,585.19,153.85,585.19,150.45z M592.17,152.69v-4.8
				c-0.71-0.63-1.4-0.86-2.1-0.86c-1.31,0-2.39,1.24-2.39,3.39c0,2.24,0.86,3.43,2.34,3.43
				C590.82,153.85,591.49,153.5,592.17,152.69z"/>
			<path class="st47" d="M596.99,150.45c0-3.35,2.33-5.42,4.75-5.42c2.79,0,4.26,2.02,4.26,4.9c0,0.46-0.05,0.92-0.1,1.18h-6.55
				c0.2,1.83,1.38,2.87,3.04,2.87c0.88,0,1.64-0.28,2.39-0.75l0.82,1.5c-0.98,0.66-2.23,1.12-3.54,1.12
				C599.22,155.85,596.99,153.85,596.99,150.45z M603.91,149.46c0-1.59-0.71-2.55-2.12-2.55c-1.2,0-2.26,0.9-2.47,2.55H603.91z"/>
			<path class="st47" d="M608.31,145.28h1.98l0.18,1.84h0.07c0.73-1.34,1.83-2.09,2.93-2.09c0.52,0,0.86,0.07,1.17,0.21l-0.42,2.1
				c-0.36-0.1-0.63-0.17-1.06-0.17c-0.82,0-1.81,0.56-2.44,2.13v6.29h-2.42V145.28z"/>
			<path class="st47" d="M535.21,175.65c0-3.43,2.43-5.42,5.17-5.42c1.31,0,2.27,0.5,3.01,1.16l-1.18,1.57
				c-0.55-0.48-1.07-0.76-1.71-0.76c-1.66,0-2.81,1.38-2.81,3.44c0,2.07,1.13,3.43,2.74,3.43c0.81,0,1.55-0.39,2.13-0.89l0.98,1.6
				c-0.97,0.86-2.19,1.27-3.37,1.27C537.36,181.05,535.21,179.07,535.21,175.65z"/>
			<path class="st47" d="M545.59,170.48h1.98l0.18,1.84h0.07c0.73-1.34,1.83-2.09,2.93-2.09c0.52,0,0.86,0.07,1.17,0.21l-0.42,2.1
				c-0.36-0.1-0.63-0.17-1.06-0.17c-0.82,0-1.81,0.56-2.44,2.13v6.29h-2.42V170.48z"/>
			<path class="st47" d="M552.76,184.82l0.44-1.87c0.2,0.06,0.5,0.14,0.74,0.14c1.08,0,1.71-0.74,2.06-1.77l0.19-0.65l-4.06-10.19
				h2.45l1.78,5.06c0.31,0.92,0.6,1.93,0.91,2.91h0.08c0.26-0.96,0.52-1.97,0.79-2.91l1.54-5.06h2.33l-3.73,10.78
				c-0.86,2.32-1.94,3.76-4.19,3.76C553.54,185.03,553.13,184.95,552.76,184.82z"/>
			<path class="st47" d="M563.13,175.65c0-3.43,2.33-5.42,4.9-5.42s4.9,1.98,4.9,5.42c0,3.42-2.33,5.4-4.9,5.4
				S563.13,179.07,563.13,175.65z M570.46,175.65c0-2.07-0.91-3.44-2.42-3.44s-2.42,1.38-2.42,3.44c0,2.07,0.91,3.43,2.42,3.43
				S570.46,177.72,570.46,175.65z"/>
			<path class="st47" d="M575.7,177.32v-4.91h-1.47v-1.81l1.6-0.11l0.29-2.81h2.01v2.81h2.63v1.92h-2.63v4.91
				c0,1.21,0.47,1.81,1.46,1.81c0.35,0,0.77-0.12,1.07-0.23l0.41,1.78c-0.56,0.18-1.28,0.38-2.11,0.38
				C576.59,181.05,575.7,179.55,575.7,177.32z"/>
			<path class="st47" d="M582.92,165.97h2.42v3.84l-0.1,1.99c0.86-0.81,1.89-1.56,3.3-1.56c2.21,0,3.17,1.5,3.17,4.1v6.47h-2.42
				v-6.16c0-1.7-0.49-2.33-1.6-2.33c-0.91,0-1.5,0.44-2.35,1.28v7.21h-2.42V165.97z"/>
			<path class="st47" d="M593.96,175.65c0-3.35,2.33-5.42,4.75-5.42c2.79,0,4.26,2.02,4.26,4.9c0,0.46-0.05,0.92-0.1,1.18h-6.55
				c0.2,1.83,1.38,2.87,3.04,2.87c0.88,0,1.64-0.28,2.39-0.75l0.82,1.5c-0.98,0.66-2.23,1.12-3.54,1.12
				C596.2,181.05,593.96,179.05,593.96,175.65z M600.88,174.66c0-1.59-0.71-2.55-2.12-2.55c-1.2,0-2.26,0.9-2.47,2.55H600.88z"/>
			<path class="st47" d="M605.29,170.48h1.98l0.18,1.84h0.07c0.73-1.34,1.83-2.09,2.93-2.09c0.52,0,0.86,0.07,1.17,0.21l-0.42,2.1
				c-0.36-0.1-0.63-0.17-1.06-0.17c-0.82,0-1.81,0.56-2.44,2.13v6.29h-2.42V170.48z"/>
			<path class="st47" d="M612.57,178.03c0-2.21,1.83-3.36,6.06-3.81c-0.03-1.11-0.48-2.03-1.87-2.03c-1.02,0-1.99,0.46-2.9,1.02
				l-0.89-1.61c1.13-0.71,2.6-1.35,4.23-1.35c2.58,0,3.85,1.59,3.85,4.46v6.11h-1.98l-0.18-1.14h-0.07
				c-0.92,0.79-1.98,1.39-3.2,1.39C613.81,181.05,612.57,179.82,612.57,178.03z M618.63,178.04v-2.32c-2.8,0.35-3.73,1.08-3.73,2.13
				c0,0.91,0.62,1.31,1.49,1.31C617.23,179.15,617.87,178.74,618.63,178.04z"/>
			<path class="st47" d="M623.96,170.48h1.98l0.18,1.1h0.07c0.87-0.75,1.97-1.35,3.11-1.35c2.58,0,4.06,2.07,4.06,5.25
				c0,3.53-2.11,5.57-4.4,5.57c-0.92,0-1.81-0.41-2.65-1.13l0.08,1.71v3.25h-2.42V170.48z M630.87,175.51
				c0-2.06-0.67-3.28-2.24-3.28c-0.75,0-1.45,0.38-2.25,1.16v4.8c0.74,0.63,1.47,0.86,2.07,0.86
				C629.82,179.05,630.87,177.84,630.87,175.51z"/>
			<path class="st47" d="M635.14,184.82l0.44-1.87c0.2,0.06,0.5,0.14,0.74,0.14c1.08,0,1.71-0.74,2.06-1.77l0.19-0.65l-4.06-10.19
				h2.45l1.78,5.06c0.31,0.92,0.6,1.93,0.91,2.91h0.08c0.26-0.96,0.52-1.97,0.79-2.91l1.54-5.06h2.33l-3.73,10.78
				c-0.86,2.32-1.94,3.76-4.19,3.76C635.92,185.03,635.52,184.95,635.14,184.82z"/>
			<path class="st47" d="M535.61,192.51c0-0.81,0.64-1.37,1.5-1.37c0.86,0,1.49,0.55,1.49,1.37c0,0.8-0.64,1.37-1.49,1.37
				C536.25,193.88,535.61,193.31,535.61,192.51z M535.89,195.69h2.42V206h-2.42V195.69z"/>
			<path class="st47" d="M541.39,195.69h1.98l0.18,1.39h0.07c0.92-0.9,1.97-1.65,3.38-1.65c2.21,0,3.17,1.5,3.17,4.1V206h-2.42
				v-6.16c0-1.7-0.49-2.33-1.6-2.33c-0.91,0-1.5,0.44-2.35,1.28V206h-2.42V195.69z"/>
			<path class="st47" d="M552.12,204.81l1.13-1.54c0.92,0.71,1.8,1.15,2.85,1.15c1.13,0,1.65-0.53,1.65-1.23
				c0-0.86-1.12-1.25-2.22-1.67c-1.35-0.51-2.9-1.28-2.9-3.01c0-1.79,1.44-3.08,3.75-3.08c1.44,0,2.59,0.58,3.43,1.23l-1.11,1.49
				c-0.72-0.53-1.45-0.9-2.26-0.9c-1.04,0-1.53,0.5-1.53,1.14c0,0.81,1.04,1.13,2.16,1.54c1.39,0.52,2.96,1.19,2.96,3.12
				c0,1.77-1.4,3.2-4.01,3.2C554.62,206.25,553.13,205.65,552.12,204.81z"/>
			<path class="st47" d="M562.56,202.52v-4.91h-1.47v-1.81l1.6-0.11l0.29-2.81h2.01v2.81h2.63v1.92h-2.63v4.91
				c0,1.21,0.47,1.81,1.46,1.81c0.35,0,0.77-0.12,1.07-0.23l0.41,1.78c-0.56,0.18-1.28,0.38-2.11,0.38
				C563.44,206.25,562.56,204.75,562.56,202.52z"/>
			<path class="st47" d="M569.1,200.85c0-3.35,2.33-5.42,4.75-5.42c2.79,0,4.26,2.02,4.26,4.9c0,0.46-0.05,0.92-0.1,1.18h-6.55
				c0.2,1.83,1.38,2.87,3.04,2.87c0.88,0,1.64-0.28,2.39-0.75l0.82,1.5c-0.98,0.66-2.23,1.12-3.54,1.12
				C571.33,206.25,569.1,204.25,569.1,200.85z M576.02,199.86c0-1.59-0.71-2.55-2.12-2.55c-1.2,0-2.26,0.9-2.47,2.55H576.02z"/>
			<path class="st47" d="M579.87,203.23c0-2.21,1.83-3.36,6.06-3.81c-0.03-1.11-0.48-2.03-1.87-2.03c-1.02,0-1.99,0.46-2.9,1.02
				l-0.89-1.61c1.13-0.71,2.6-1.35,4.23-1.35c2.58,0,3.85,1.59,3.85,4.46V206h-1.98l-0.18-1.14h-0.07c-0.92,0.79-1.98,1.39-3.2,1.39
				C581.11,206.25,579.87,205.02,579.87,203.23z M585.94,203.24v-2.32c-2.8,0.35-3.73,1.08-3.73,2.13c0,0.91,0.62,1.31,1.49,1.31
				C584.53,204.35,585.17,203.94,585.94,203.24z"/>
			<path class="st47" d="M590.63,200.85c0-3.36,2.11-5.42,4.37-5.42c1.17,0,1.91,0.44,2.7,1.13l-0.09-1.66v-3.74h2.42V206h-1.98
				l-0.18-1.12h-0.07c-0.76,0.76-1.82,1.37-2.93,1.37C592.29,206.25,590.63,204.25,590.63,200.85z M597.61,203.09v-4.8
				c-0.71-0.63-1.4-0.86-2.1-0.86c-1.31,0-2.39,1.24-2.39,3.39c0,2.24,0.86,3.43,2.34,3.43
				C596.26,204.25,596.93,203.9,597.61,203.09z"/>
			<path class="st47" d="M606.63,200.85c0-3.43,2.33-5.42,4.9-5.42s4.9,1.98,4.9,5.42c0,3.42-2.33,5.4-4.9,5.4
				S606.63,204.27,606.63,200.85z M613.95,200.85c0-2.07-0.91-3.44-2.42-3.44s-2.42,1.38-2.42,3.44c0,2.07,0.91,3.43,2.42,3.43
				S613.95,202.92,613.95,200.85z"/>
			<path class="st47" d="M617.86,195.79l1.51-0.11h4.31v1.92h-5.82V195.79z M619.25,194.62c0-2.14,0.98-3.7,3.42-3.7
				c0.75,0,1.43,0.18,1.89,0.36l-0.46,1.81c-0.37-0.16-0.76-0.24-1.12-0.24c-0.86,0-1.31,0.54-1.31,1.74V206h-2.42V194.62z"/>
			<path class="st47" d="M535.21,226.05c0-3.43,2.43-5.42,5.17-5.42c1.31,0,2.27,0.5,3.01,1.16l-1.18,1.57
				c-0.55-0.48-1.07-0.76-1.71-0.76c-1.66,0-2.81,1.38-2.81,3.44c0,2.07,1.13,3.43,2.74,3.43c0.81,0,1.55-0.39,2.13-0.89l0.98,1.6
				c-0.97,0.86-2.19,1.27-3.37,1.27C537.36,231.45,535.21,229.47,535.21,226.05z"/>
			<path class="st47" d="M545.59,216.37h2.42v3.84l-0.1,1.99c0.86-0.81,1.89-1.56,3.3-1.56c2.21,0,3.17,1.5,3.17,4.1v6.47h-2.42
				v-6.16c0-1.7-0.49-2.33-1.6-2.33c-0.91,0-1.5,0.44-2.35,1.28v7.21h-2.42V216.37z"/>
			<path class="st47" d="M556.62,226.05c0-3.35,2.33-5.42,4.75-5.42c2.79,0,4.26,2.02,4.26,4.9c0,0.46-0.05,0.92-0.1,1.18h-6.55
				c0.2,1.83,1.38,2.87,3.04,2.87c0.88,0,1.64-0.28,2.39-0.75l0.82,1.5c-0.98,0.66-2.23,1.12-3.54,1.12
				C558.86,231.45,556.62,229.45,556.62,226.05z M563.54,225.06c0-1.59-0.71-2.55-2.12-2.55c-1.2,0-2.26,0.9-2.47,2.55H563.54z"/>
			<path class="st47" d="M567.95,220.88h1.98l0.18,1.41h0.07c0.87-0.91,1.87-1.66,3.17-1.66c1.51,0,2.37,0.69,2.85,1.85
				c0.99-1.05,2.01-1.85,3.32-1.85c2.18,0,3.18,1.5,3.18,4.1v6.47h-2.42v-6.16c0-1.7-0.5-2.33-1.59-2.33
				c-0.65,0-1.36,0.42-2.16,1.28v7.21h-2.42v-6.16c0-1.7-0.5-2.33-1.59-2.33c-0.64,0-1.36,0.42-2.16,1.28v7.21h-2.42V220.88z"/>
			<path class="st47" d="M584.97,226.05c0-3.43,2.33-5.42,4.9-5.42s4.9,1.98,4.9,5.42c0,3.42-2.33,5.4-4.9,5.4
				S584.97,229.47,584.97,226.05z M592.3,226.05c0-2.07-0.91-3.44-2.42-3.44s-2.42,1.38-2.42,3.44c0,2.07,0.91,3.43,2.42,3.43
				S592.3,228.12,592.3,226.05z"/>
			<path class="st47" d="M597.54,227.72v-4.91h-1.47v-1.81l1.6-0.11l0.29-2.81h2.01v2.81h2.63v1.92h-2.63v4.91
				c0,1.21,0.47,1.81,1.46,1.81c0.35,0,0.77-0.12,1.07-0.23l0.41,1.78c-0.56,0.18-1.28,0.38-2.11,0.38
				C598.43,231.45,597.54,229.95,597.54,227.72z"/>
			<path class="st47" d="M604.76,216.37h2.42v3.84l-0.1,1.99c0.86-0.81,1.89-1.56,3.3-1.56c2.21,0,3.17,1.5,3.17,4.1v6.47h-2.42
				v-6.16c0-1.7-0.49-2.33-1.6-2.33c-0.91,0-1.5,0.44-2.35,1.28v7.21h-2.42V216.37z"/>
			<path class="st47" d="M615.8,226.05c0-3.35,2.33-5.42,4.75-5.42c2.79,0,4.26,2.02,4.26,4.9c0,0.46-0.05,0.92-0.1,1.18h-6.55
				c0.2,1.83,1.38,2.87,3.04,2.87c0.88,0,1.64-0.28,2.39-0.75l0.82,1.5c-0.98,0.66-2.23,1.12-3.54,1.12
				C618.04,231.45,615.8,229.45,615.8,226.05z M622.72,225.06c0-1.59-0.71-2.55-2.12-2.55c-1.2,0-2.26,0.9-2.47,2.55H622.72z"/>
			<path class="st47" d="M627.13,220.88h1.98l0.18,1.84h0.07c0.73-1.34,1.83-2.09,2.93-2.09c0.52,0,0.86,0.07,1.17,0.21l-0.42,2.1
				c-0.36-0.1-0.63-0.17-1.06-0.17c-0.82,0-1.81,0.56-2.44,2.13v6.29h-2.42V220.88z"/>
			<path class="st47" d="M634.41,228.43c0-2.21,1.83-3.36,6.06-3.81c-0.03-1.11-0.48-2.03-1.87-2.03c-1.02,0-1.99,0.46-2.9,1.02
				l-0.89-1.61c1.13-0.71,2.6-1.35,4.23-1.35c2.58,0,3.85,1.59,3.85,4.46v6.11h-1.98l-0.18-1.14h-0.07
				c-0.92,0.79-1.98,1.39-3.2,1.39C635.65,231.45,634.41,230.22,634.41,228.43z M640.47,228.44v-2.32c-2.8,0.35-3.73,1.08-3.73,2.13
				c0,0.91,0.62,1.31,1.49,1.31C639.07,229.55,639.71,229.14,640.47,228.44z"/>
			<path class="st47" d="M645.8,220.88h1.98l0.18,1.1h0.07c0.87-0.75,1.97-1.35,3.11-1.35c2.58,0,4.06,2.07,4.06,5.25
				c0,3.53-2.11,5.57-4.4,5.57c-0.92,0-1.81-0.41-2.65-1.13l0.08,1.71v3.25h-2.42V220.88z M652.71,225.91
				c0-2.06-0.67-3.28-2.24-3.28c-0.75,0-1.45,0.38-2.25,1.16v4.8c0.74,0.63,1.47,0.86,2.07,0.86
				C651.66,229.45,652.71,228.24,652.71,225.91z"/>
			<path class="st47" d="M656.98,235.22l0.44-1.87c0.2,0.06,0.5,0.14,0.74,0.14c1.08,0,1.71-0.74,2.06-1.77l0.19-0.65l-4.06-10.19
				h2.45l1.78,5.06c0.31,0.92,0.6,1.93,0.91,2.91h0.08c0.26-0.96,0.52-1.97,0.79-2.91l1.54-5.06h2.33l-3.73,10.78
				c-0.86,2.32-1.94,3.76-4.19,3.76C657.76,235.43,657.36,235.35,656.98,235.22z"/>
			<path class="st47" d="M667.83,229.82c0-0.95,0.68-1.65,1.56-1.65s1.56,0.7,1.56,1.65c0,0.93-0.68,1.63-1.56,1.63
				S667.83,230.75,667.83,229.82z"/>
		</g>
	</g>
	<g>
		<g>
			<path class="st47" d="M810.57,119.66h2.44v11.68h5.7v2.05h-8.14V119.66z"/>
			<path class="st47" d="M820.79,129.54v-6.47h2.42v6.16c0,1.7,0.49,2.33,1.6,2.33c0.91,0,1.5-0.42,2.28-1.43v-7.06h2.42v10.31
				h-1.98l-0.18-1.52h-0.07c-0.91,1.07-1.91,1.77-3.32,1.77C821.75,133.64,820.79,132.15,820.79,129.54z"/>
			<path class="st47" d="M832.58,123.07h1.98l0.18,1.41h0.07c0.87-0.91,1.87-1.66,3.17-1.66c1.51,0,2.37,0.69,2.85,1.85
				c0.99-1.05,2.01-1.85,3.32-1.85c2.18,0,3.18,1.5,3.18,4.1v6.47h-2.42v-6.16c0-1.7-0.5-2.33-1.59-2.33
				c-0.65,0-1.36,0.42-2.16,1.28v7.21h-2.42v-6.16c0-1.7-0.5-2.33-1.59-2.33c-0.64,0-1.36,0.42-2.16,1.28v7.21h-2.42V123.07z"/>
			<path class="st47" d="M850.28,123.07h1.98l0.18,1.1h0.07c0.87-0.75,1.97-1.35,3.11-1.35c2.58,0,4.06,2.07,4.06,5.25
				c0,3.53-2.11,5.57-4.4,5.57c-0.92,0-1.81-0.41-2.65-1.13l0.08,1.71v3.25h-2.42V123.07z M857.19,128.1c0-2.06-0.67-3.28-2.24-3.28
				c-0.75,0-1.45,0.38-2.25,1.16v4.8c0.74,0.63,1.47,0.86,2.07,0.86C856.14,131.64,857.19,130.43,857.19,128.1z"/>
			<path class="st47" d="M861.44,128.24c0-3.35,2.33-5.42,4.75-5.42c2.79,0,4.26,2.02,4.26,4.9c0,0.46-0.05,0.92-0.1,1.18h-6.55
				c0.2,1.83,1.38,2.87,3.04,2.87c0.88,0,1.64-0.28,2.39-0.75l0.82,1.5c-0.98,0.66-2.23,1.12-3.54,1.12
				C863.68,133.64,861.44,131.64,861.44,128.24z M868.37,127.25c0-1.59-0.71-2.55-2.12-2.55c-1.2,0-2.26,0.9-2.47,2.55H868.37z"/>
			<path class="st47" d="M872.09,128.24c0-3.43,2.43-5.42,5.17-5.42c1.31,0,2.27,0.5,3.01,1.16l-1.18,1.57
				c-0.55-0.48-1.07-0.76-1.71-0.76c-1.66,0-2.81,1.38-2.81,3.44c0,2.07,1.13,3.43,2.74,3.43c0.81,0,1.55-0.39,2.13-0.89l0.98,1.6
				c-0.97,0.86-2.19,1.27-3.37,1.27C874.25,133.64,872.09,131.66,872.09,128.24z"/>
			<path class="st47" d="M882.83,129.91V125h-1.47v-1.81l1.6-0.11l0.29-2.81h2.01v2.81h2.63V125h-2.63v4.91
				c0,1.21,0.47,1.81,1.46,1.81c0.35,0,0.77-0.12,1.07-0.23l0.41,1.78c-0.56,0.18-1.28,0.38-2.11,0.38
				C883.72,133.64,882.83,132.14,882.83,129.91z"/>
			<path class="st47" d="M889.37,128.24c0-3.43,2.33-5.42,4.9-5.42s4.9,1.98,4.9,5.42c0,3.42-2.33,5.4-4.9,5.4
				S889.37,131.66,889.37,128.24z M896.7,128.24c0-2.07-0.91-3.44-2.42-3.44s-2.42,1.38-2.42,3.44c0,2.07,0.91,3.43,2.42,3.43
				S896.7,130.31,896.7,128.24z"/>
			<path class="st47" d="M901.58,123.07h1.98l0.18,1.41h0.07c0.87-0.91,1.87-1.66,3.17-1.66c1.51,0,2.37,0.69,2.85,1.85
				c0.99-1.05,2.01-1.85,3.32-1.85c2.18,0,3.18,1.5,3.18,4.1v6.47h-2.42v-6.16c0-1.7-0.5-2.33-1.59-2.33
				c-0.65,0-1.36,0.42-2.16,1.28v7.21h-2.42v-6.16c0-1.7-0.5-2.33-1.59-2.33c-0.64,0-1.36,0.42-2.16,1.28v7.21h-2.42V123.07z"/>
			<path class="st47" d="M918.62,137.41l0.44-1.87c0.2,0.06,0.5,0.14,0.74,0.14c1.08,0,1.71-0.74,2.06-1.77l0.19-0.65L918,123.07
				h2.45l1.78,5.06c0.31,0.92,0.6,1.93,0.91,2.91h0.08c0.26-0.96,0.52-1.97,0.79-2.91l1.54-5.06h2.33l-3.73,10.78
				c-0.86,2.32-1.94,3.76-4.19,3.76C919.4,137.62,919,137.54,918.62,137.41z"/>
			<path class="st47" d="M933.6,119.9c0-0.81,0.64-1.37,1.5-1.37c0.86,0,1.49,0.55,1.49,1.37c0,0.8-0.64,1.37-1.49,1.37
				C934.24,121.27,933.6,120.7,933.6,119.9z M933.88,123.07h2.42v10.31h-2.42V123.07z"/>
			<path class="st47" d="M938.36,132.2l1.13-1.54c0.92,0.71,1.8,1.15,2.85,1.15c1.13,0,1.65-0.53,1.65-1.23
				c0-0.86-1.12-1.25-2.22-1.67c-1.35-0.51-2.9-1.28-2.9-3.01c0-1.79,1.44-3.08,3.75-3.08c1.44,0,2.59,0.58,3.43,1.23l-1.11,1.49
				c-0.72-0.53-1.45-0.9-2.26-0.9c-1.04,0-1.53,0.5-1.53,1.14c0,0.81,1.04,1.13,2.16,1.54c1.39,0.52,2.96,1.19,2.96,3.12
				c0,1.77-1.4,3.2-4.01,3.2C940.85,133.64,939.37,133.04,938.36,132.2z"/>
			<path class="st47" d="M812.54,161.3h-0.07l-0.21,1.08h-1.91v-14.83h2.42v3.84l-0.07,1.71c0.86-0.76,1.92-1.29,2.98-1.29
				c2.58,0,4.07,2.07,4.07,5.24c0,3.54-2.11,5.58-4.4,5.58C814.42,162.64,813.41,162.16,812.54,161.3z M817.27,157.1
				c0-2.06-0.67-3.28-2.24-3.28c-0.75,0-1.47,0.38-2.25,1.16v4.8c0.72,0.63,1.47,0.86,2.07,0.86
				C816.22,160.64,817.27,159.43,817.27,157.1z"/>
			<path class="st47" d="M821.5,157.24c0-3.35,2.33-5.42,4.75-5.42c2.79,0,4.26,2.02,4.26,4.9c0,0.46-0.05,0.92-0.1,1.18h-6.55
				c0.2,1.83,1.38,2.87,3.04,2.87c0.88,0,1.64-0.28,2.39-0.75l0.82,1.5c-0.98,0.66-2.23,1.12-3.54,1.12
				C823.74,162.64,821.5,160.64,821.5,157.24z M828.42,156.25c0-1.59-0.71-2.55-2.12-2.55c-1.2,0-2.26,0.9-2.47,2.55H828.42z"/>
			<path class="st47" d="M833.19,158.91V154h-1.47v-1.81l1.6-0.11l0.29-2.81h2.01v2.81h2.63V154h-2.63v4.91
				c0,1.21,0.47,1.81,1.46,1.81c0.35,0,0.77-0.12,1.07-0.23l0.41,1.78c-0.56,0.18-1.28,0.38-2.11,0.38
				C834.07,162.64,833.19,161.14,833.19,158.91z"/>
			<path class="st47" d="M840.77,158.91V154h-1.47v-1.81l1.6-0.11l0.29-2.81h2.01v2.81h2.63V154h-2.63v4.91
				c0,1.21,0.47,1.81,1.46,1.81c0.35,0,0.77-0.12,1.07-0.23l0.41,1.78c-0.56,0.18-1.28,0.38-2.11,0.38
				C841.65,162.64,840.77,161.14,840.77,158.91z"/>
			<path class="st47" d="M847.31,157.24c0-3.35,2.33-5.42,4.75-5.42c2.79,0,4.26,2.02,4.26,4.9c0,0.46-0.05,0.92-0.1,1.18h-6.55
				c0.2,1.83,1.38,2.87,3.04,2.87c0.88,0,1.64-0.28,2.39-0.75l0.82,1.5c-0.98,0.66-2.23,1.12-3.54,1.12
				C849.55,162.64,847.31,160.64,847.31,157.24z M854.23,156.25c0-1.59-0.71-2.55-2.12-2.55c-1.2,0-2.26,0.9-2.47,2.55H854.23z"/>
			<path class="st47" d="M858.64,152.07h1.98l0.18,1.84h0.07c0.73-1.34,1.83-2.09,2.93-2.09c0.52,0,0.86,0.07,1.17,0.21l-0.42,2.1
				c-0.36-0.1-0.63-0.17-1.06-0.17c-0.82,0-1.81,0.56-2.44,2.13v6.29h-2.42V152.07z"/>
			<path class="st47" d="M869.7,152.18l1.51-0.11h4.31V154h-5.82V152.18z M871.08,151.01c0-2.14,0.98-3.7,3.42-3.7
				c0.75,0,1.43,0.18,1.89,0.36l-0.46,1.81c-0.37-0.16-0.76-0.24-1.12-0.24c-0.86,0-1.31,0.54-1.31,1.74v11.42h-2.42V151.01z"/>
			<path class="st47" d="M876.65,157.24c0-3.43,2.33-5.42,4.9-5.42s4.9,1.98,4.9,5.42c0,3.42-2.33,5.4-4.9,5.4
				S876.65,160.66,876.65,157.24z M883.97,157.24c0-2.07-0.91-3.44-2.42-3.44s-2.42,1.38-2.42,3.44c0,2.07,0.91,3.43,2.42,3.43
				S883.97,159.31,883.97,157.24z"/>
			<path class="st47" d="M888.86,152.07h1.98l0.18,1.84h0.07c0.73-1.34,1.83-2.09,2.93-2.09c0.52,0,0.86,0.07,1.17,0.21l-0.42,2.1
				c-0.36-0.1-0.63-0.17-1.06-0.17c-0.82,0-1.81,0.56-2.44,2.13v6.29h-2.42V152.07z"/>
			<path class="st47" d="M899.87,161.2l1.13-1.54c0.92,0.71,1.8,1.15,2.85,1.15c1.13,0,1.65-0.53,1.65-1.23
				c0-0.86-1.12-1.25-2.22-1.67c-1.35-0.51-2.9-1.28-2.9-3.01c0-1.79,1.44-3.08,3.75-3.08c1.44,0,2.59,0.58,3.43,1.23l-1.11,1.49
				c-0.72-0.53-1.45-0.9-2.26-0.9c-1.04,0-1.53,0.5-1.53,1.14c0,0.81,1.04,1.13,2.16,1.54c1.39,0.52,2.96,1.19,2.96,3.12
				c0,1.77-1.4,3.2-4.01,3.2C902.36,162.64,900.87,162.04,899.87,161.2z"/>
			<path class="st47" d="M909.94,152.07h1.98l0.18,1.41h0.07c0.87-0.91,1.87-1.66,3.17-1.66c1.51,0,2.37,0.69,2.85,1.85
				c0.99-1.05,2.01-1.85,3.32-1.85c2.18,0,3.18,1.5,3.18,4.1v6.47h-2.42v-6.16c0-1.7-0.5-2.33-1.59-2.33
				c-0.65,0-1.36,0.42-2.16,1.28v7.21h-2.42v-6.16c0-1.7-0.5-2.33-1.59-2.33c-0.64,0-1.36,0.42-2.16,1.28v7.21h-2.42V152.07z"/>
			<path class="st47" d="M927.09,159.62c0-2.21,1.83-3.36,6.06-3.81c-0.03-1.11-0.48-2.03-1.87-2.03c-1.02,0-1.99,0.46-2.9,1.02
				l-0.89-1.61c1.13-0.71,2.6-1.35,4.23-1.35c2.58,0,3.85,1.59,3.85,4.46v6.11h-1.98l-0.18-1.14h-0.07
				c-0.92,0.79-1.98,1.39-3.2,1.39C928.33,162.64,927.09,161.41,927.09,159.62z M933.15,159.63v-2.32c-2.8,0.35-3.73,1.08-3.73,2.13
				c0,0.91,0.62,1.31,1.49,1.31C931.75,160.74,932.39,160.33,933.15,159.63z"/>
			<path class="st47" d="M938.48,159.73v-12.18h2.42v12.3c0,0.6,0.27,0.81,0.52,0.81c0.11,0,0.19,0,0.38-0.04l0.3,1.81
				c-0.29,0.12-0.7,0.21-1.28,0.21C939.11,162.64,938.48,161.53,938.48,159.73z"/>
			<path class="st47" d="M944.17,159.73v-12.18h2.42v12.3c0,0.6,0.27,0.81,0.52,0.81c0.11,0,0.19,0,0.38-0.04l0.3,1.81
				c-0.29,0.12-0.7,0.21-1.28,0.21C944.8,162.64,944.17,161.53,944.17,159.73z"/>
			<path class="st47" d="M949.18,157.24c0-3.35,2.33-5.42,4.75-5.42c2.79,0,4.26,2.02,4.26,4.9c0,0.46-0.05,0.92-0.1,1.18h-6.55
				c0.2,1.83,1.38,2.87,3.04,2.87c0.88,0,1.64-0.28,2.39-0.75l0.82,1.5c-0.98,0.66-2.23,1.12-3.54,1.12
				C951.42,162.64,949.18,160.64,949.18,157.24z M956.1,156.25c0-1.59-0.71-2.55-2.12-2.55c-1.2,0-2.26,0.9-2.47,2.55H956.1z"/>
			<path class="st47" d="M960.51,152.07h1.98l0.18,1.84h0.07c0.73-1.34,1.83-2.09,2.93-2.09c0.52,0,0.86,0.07,1.17,0.21l-0.42,2.1
				c-0.36-0.1-0.63-0.17-1.06-0.17c-0.82,0-1.81,0.56-2.44,2.13v6.29h-2.42V152.07z"/>
			<path class="st47" d="M810.72,187.91V183h-1.47v-1.81l1.6-0.11l0.29-2.81h2.01v2.81h2.63V183h-2.63v4.91
				c0,1.21,0.47,1.81,1.46,1.81c0.35,0,0.77-0.12,1.07-0.23l0.41,1.78c-0.56,0.18-1.28,0.38-2.11,0.38
				C811.6,191.64,810.72,190.14,810.72,187.91z"/>
			<path class="st47" d="M817.82,187.54v-6.47h2.42v6.16c0,1.7,0.49,2.33,1.6,2.33c0.91,0,1.5-0.42,2.28-1.43v-7.06h2.42v10.31
				h-1.98l-0.18-1.52h-0.07c-0.91,1.07-1.91,1.77-3.32,1.77C818.79,191.64,817.82,190.15,817.82,187.54z"/>
			<path class="st47" d="M829.62,181.07h1.98l0.18,1.41h0.07c0.87-0.91,1.87-1.66,3.17-1.66c1.51,0,2.37,0.69,2.85,1.85
				c0.99-1.05,2.01-1.85,3.32-1.85c2.18,0,3.18,1.5,3.18,4.1v6.47h-2.42v-6.16c0-1.7-0.5-2.33-1.59-2.33
				c-0.65,0-1.36,0.42-2.16,1.28v7.21h-2.42v-6.16c0-1.7-0.5-2.33-1.59-2.33c-0.64,0-1.36,0.42-2.16,1.28v7.21h-2.42V181.07z"/>
			<path class="st47" d="M846.64,186.24c0-3.43,2.33-5.42,4.9-5.42s4.9,1.98,4.9,5.42c0,3.42-2.33,5.4-4.9,5.4
				S846.64,189.66,846.64,186.24z M853.96,186.24c0-2.07-0.91-3.44-2.42-3.44s-2.42,1.38-2.42,3.44c0,2.07,0.91,3.43,2.42,3.43
				S853.96,188.31,853.96,186.24z"/>
			<path class="st47" d="M858.85,181.07h1.98l0.18,1.84h0.07c0.73-1.34,1.83-2.09,2.93-2.09c0.52,0,0.86,0.07,1.17,0.21l-0.42,2.1
				c-0.36-0.1-0.63-0.17-1.06-0.17c-0.82,0-1.81,0.56-2.44,2.13v6.29h-2.42V181.07z"/>
			<path class="st47" d="M865.66,190.2l1.13-1.54c0.92,0.71,1.8,1.15,2.85,1.15c1.13,0,1.65-0.53,1.65-1.23
				c0-0.86-1.12-1.25-2.22-1.67c-1.35-0.51-2.9-1.28-2.9-3.01c0-1.79,1.44-3.08,3.75-3.08c1.44,0,2.59,0.58,3.43,1.23l-1.11,1.49
				c-0.72-0.53-1.45-0.9-2.26-0.9c-1.04,0-1.53,0.5-1.53,1.14c0,0.81,1.04,1.13,2.16,1.54c1.39,0.52,2.96,1.19,2.96,3.12
				c0,1.77-1.4,3.2-4.01,3.2C868.15,191.64,866.67,191.04,865.66,190.2z"/>
			<path class="st47" d="M875.52,190.01c0-0.95,0.68-1.65,1.56-1.65s1.56,0.7,1.56,1.65c0,0.93-0.68,1.63-1.56,1.63
				S875.52,190.94,875.52,190.01z"/>
		</g>
	</g>
	<g>
		<g>
			<path class="st47" d="M1279.6,187.65l1.42-1.67c0.98,0.94,2.3,1.57,3.58,1.57c1.55,0,2.39-0.7,2.39-1.77
				c0-1.13-0.89-1.49-2.13-2.02l-1.88-0.81c-1.35-0.56-2.78-1.63-2.78-3.64c0-2.19,1.93-3.87,4.61-3.87c1.6,0,3.16,0.66,4.23,1.75
				l-1.25,1.55c-0.87-0.74-1.81-1.18-2.98-1.18c-1.3,0-2.15,0.61-2.15,1.61c0,1.08,1.05,1.48,2.18,1.94l1.85,0.78
				c1.63,0.68,2.78,1.71,2.78,3.7c0,2.23-1.85,4.08-4.93,4.08C1282.69,189.66,1280.9,188.93,1279.6,187.65z"/>
			<path class="st47" d="M1291.22,186.63c0-2.21,1.83-3.36,6.06-3.81c-0.03-1.11-0.48-2.03-1.87-2.03c-1.02,0-1.99,0.46-2.9,1.02
				l-0.89-1.61c1.13-0.71,2.6-1.35,4.23-1.35c2.58,0,3.85,1.59,3.85,4.46v6.11h-1.98l-0.18-1.14h-0.07
				c-0.92,0.79-1.98,1.39-3.2,1.39C1292.46,189.66,1291.22,188.43,1291.22,186.63z M1297.29,186.64v-2.32
				c-2.8,0.35-3.73,1.08-3.73,2.13c0,0.91,0.62,1.31,1.49,1.31C1295.88,187.76,1296.52,187.35,1297.29,186.64z"/>
			<path class="st47" d="M1302.97,185.93v-4.91h-1.47v-1.81l1.6-0.11l0.29-2.81h2.01v2.81h2.63v1.92h-2.63v4.91
				c0,1.21,0.47,1.81,1.46,1.81c0.35,0,0.77-0.12,1.08-0.23l0.41,1.78c-0.56,0.18-1.28,0.38-2.11,0.38
				C1303.86,189.66,1302.97,188.15,1302.97,185.93z"/>
			<path class="st47" d="M1309.92,175.92c0-0.81,0.64-1.37,1.5-1.37s1.5,0.55,1.5,1.37c0,0.8-0.64,1.37-1.5,1.37
				S1309.92,176.72,1309.92,175.92z M1310.19,179.09h2.42v10.31h-2.42V179.09z"/>
			<path class="st47" d="M1315.7,179.09h1.98l0.18,1.39h0.07c0.92-0.9,1.97-1.65,3.38-1.65c2.21,0,3.17,1.5,3.17,4.1v6.47h-2.42
				v-6.16c0-1.7-0.49-2.33-1.6-2.33c-0.91,0-1.5,0.44-2.35,1.28v7.21h-2.42V179.09z"/>
			<path class="st47" d="M1330.63,188.22l1.13-1.54c0.92,0.71,1.8,1.15,2.85,1.15c1.13,0,1.65-0.53,1.65-1.23
				c0-0.86-1.12-1.25-2.22-1.67c-1.35-0.51-2.9-1.28-2.9-3.01c0-1.79,1.44-3.08,3.75-3.08c1.44,0,2.59,0.58,3.43,1.23l-1.11,1.49
				c-0.72-0.53-1.45-0.9-2.26-0.9c-1.04,0-1.53,0.5-1.53,1.14c0,0.81,1.04,1.13,2.16,1.54c1.39,0.52,2.96,1.19,2.96,3.12
				c0,1.77-1.4,3.2-4.01,3.2C1333.13,189.66,1331.64,189.05,1330.63,188.22z"/>
			<path class="st47" d="M1340.71,174.57h2.42v3.84l-0.1,1.99c0.87-0.81,1.89-1.56,3.3-1.56c2.21,0,3.17,1.5,3.17,4.1v6.47h-2.42
				v-6.16c0-1.7-0.49-2.33-1.6-2.33c-0.91,0-1.5,0.44-2.35,1.28v7.21h-2.42V174.57z"/>
			<path class="st47" d="M1351.74,184.26c0-3.35,2.33-5.42,4.75-5.42c2.79,0,4.26,2.02,4.26,4.9c0,0.46-0.05,0.92-0.11,1.18h-6.55
				c0.2,1.83,1.38,2.87,3.04,2.87c0.88,0,1.64-0.28,2.39-0.75l0.82,1.5c-0.98,0.66-2.23,1.12-3.54,1.12
				C1353.98,189.66,1351.74,187.66,1351.74,184.26z M1358.66,183.27c0-1.59-0.71-2.55-2.12-2.55c-1.2,0-2.26,0.9-2.47,2.55H1358.66z
				"/>
			<path class="st47" d="M1362.39,184.26c0-3.35,2.33-5.42,4.75-5.42c2.79,0,4.26,2.02,4.26,4.9c0,0.46-0.05,0.92-0.1,1.18h-6.55
				c0.2,1.83,1.38,2.87,3.04,2.87c0.88,0,1.64-0.28,2.39-0.75l0.82,1.5c-0.98,0.66-2.23,1.12-3.54,1.12
				C1364.62,189.66,1362.39,187.66,1362.39,184.26z M1369.31,183.27c0-1.59-0.71-2.55-2.12-2.55c-1.2,0-2.26,0.9-2.47,2.55H1369.31z
				"/>
			<path class="st47" d="M1374.08,185.93v-4.91h-1.47v-1.81l1.6-0.11l0.29-2.81h2.01v2.81h2.63v1.92h-2.63v4.91
				c0,1.21,0.47,1.81,1.46,1.81c0.35,0,0.77-0.12,1.07-0.23l0.41,1.78c-0.56,0.18-1.28,0.38-2.11,0.38
				C1374.96,189.66,1374.08,188.15,1374.08,185.93z"/>
			<path class="st47" d="M1380.27,188.22l1.13-1.54c0.92,0.71,1.8,1.15,2.85,1.15c1.13,0,1.65-0.53,1.65-1.23
				c0-0.86-1.12-1.25-2.22-1.67c-1.35-0.51-2.9-1.28-2.9-3.01c0-1.79,1.44-3.08,3.75-3.08c1.44,0,2.59,0.58,3.43,1.23l-1.11,1.49
				c-0.72-0.53-1.45-0.9-2.26-0.9c-1.04,0-1.53,0.5-1.53,1.14c0,0.81,1.04,1.13,2.16,1.54c1.39,0.52,2.96,1.19,2.96,3.12
				c0,1.77-1.4,3.2-4.01,3.2C1382.77,189.66,1381.28,189.05,1380.27,188.22z"/>
			<path class="st47" d="M1279.78,211.83c0-2.21,1.83-3.36,6.06-3.81c-0.03-1.11-0.48-2.03-1.87-2.03c-1.02,0-1.99,0.46-2.9,1.02
				l-0.89-1.61c1.13-0.71,2.59-1.35,4.23-1.35c2.58,0,3.85,1.59,3.85,4.46v6.11h-1.98l-0.18-1.14h-0.07
				c-0.92,0.79-1.98,1.39-3.2,1.39C1281.02,214.86,1279.78,213.63,1279.78,211.83z M1285.84,211.84v-2.32
				c-2.8,0.35-3.73,1.08-3.73,2.13c0,0.91,0.62,1.31,1.49,1.31C1284.44,212.96,1285.08,212.55,1285.84,211.84z"/>
			<path class="st47" d="M1291.17,204.29h1.98l0.18,1.84h0.07c0.74-1.34,1.83-2.09,2.93-2.09c0.52,0,0.86,0.07,1.17,0.21l-0.42,2.1
				c-0.36-0.1-0.63-0.17-1.06-0.17c-0.82,0-1.81,0.56-2.44,2.13v6.29h-2.42V204.29z"/>
			<path class="st47" d="M1298.32,209.46c0-3.35,2.33-5.42,4.75-5.42c2.79,0,4.26,2.02,4.26,4.9c0,0.46-0.05,0.92-0.1,1.18h-6.55
				c0.2,1.83,1.38,2.87,3.04,2.87c0.88,0,1.64-0.28,2.39-0.75l0.82,1.5c-0.98,0.66-2.23,1.12-3.54,1.12
				C1300.55,214.86,1298.32,212.86,1298.32,209.46z M1305.24,208.47c0-1.59-0.71-2.55-2.12-2.55c-1.2,0-2.26,0.9-2.47,2.55H1305.24z
				"/>
			<path class="st47" d="M1316.03,213.52h-0.07l-0.21,1.08h-1.91v-14.83h2.42v3.84l-0.07,1.71c0.86-0.76,1.92-1.29,2.98-1.29
				c2.58,0,4.07,2.07,4.07,5.24c0,3.54-2.11,5.58-4.4,5.58C1317.9,214.86,1316.9,214.38,1316.03,213.52z M1320.76,209.31
				c0-2.06-0.67-3.28-2.24-3.28c-0.75,0-1.47,0.38-2.25,1.16v4.8c0.72,0.63,1.47,0.86,2.07,0.86
				C1319.71,212.86,1320.76,211.65,1320.76,209.31z"/>
			<path class="st47" d="M1324.99,209.46c0-3.35,2.33-5.42,4.75-5.42c2.79,0,4.26,2.02,4.26,4.9c0,0.46-0.05,0.92-0.11,1.18h-6.55
				c0.2,1.83,1.38,2.87,3.04,2.87c0.88,0,1.64-0.28,2.39-0.75l0.82,1.5c-0.98,0.66-2.23,1.12-3.54,1.12
				C1327.22,214.86,1324.99,212.86,1324.99,209.46z M1331.91,208.47c0-1.59-0.71-2.55-2.12-2.55c-1.2,0-2.26,0.9-2.47,2.55H1331.91z
				"/>
			<path class="st47" d="M1336.68,211.13v-4.91h-1.47v-1.81l1.6-0.11l0.29-2.81h2.01v2.81h2.63v1.92h-2.63v4.91
				c0,1.21,0.47,1.81,1.46,1.81c0.35,0,0.77-0.12,1.08-0.23l0.41,1.78c-0.56,0.18-1.28,0.38-2.11,0.38
				C1337.56,214.86,1336.68,213.35,1336.68,211.13z"/>
			<path class="st47" d="M1344.26,211.13v-4.91h-1.47v-1.81l1.6-0.11l0.29-2.81h2.01v2.81h2.63v1.92h-2.63v4.91
				c0,1.21,0.47,1.81,1.46,1.81c0.35,0,0.77-0.12,1.08-0.23l0.41,1.78c-0.56,0.18-1.28,0.38-2.11,0.38
				C1345.14,214.86,1344.26,213.35,1344.26,211.13z"/>
			<path class="st47" d="M1350.8,209.46c0-3.35,2.33-5.42,4.75-5.42c2.79,0,4.26,2.02,4.26,4.9c0,0.46-0.05,0.92-0.1,1.18h-6.55
				c0.2,1.83,1.38,2.87,3.04,2.87c0.88,0,1.64-0.28,2.39-0.75l0.82,1.5c-0.98,0.66-2.23,1.12-3.54,1.12
				C1353.03,214.86,1350.8,212.86,1350.8,209.46z M1357.72,208.47c0-1.59-0.71-2.55-2.12-2.55c-1.2,0-2.26,0.9-2.47,2.55H1357.72z"
				/>
			<path class="st47" d="M1362.13,204.29h1.98l0.18,1.84h0.07c0.74-1.34,1.83-2.09,2.93-2.09c0.52,0,0.86,0.07,1.17,0.21l-0.42,2.1
				c-0.36-0.1-0.63-0.17-1.06-0.17c-0.82,0-1.81,0.56-2.44,2.13v6.29h-2.42V204.29z"/>
			<path class="st47" d="M1280.69,236.33v-4.91h-1.47v-1.81l1.6-0.11l0.29-2.81h2.01v2.81h2.63v1.92h-2.63v4.91
				c0,1.21,0.47,1.81,1.46,1.81c0.35,0,0.77-0.12,1.07-0.23l0.41,1.78c-0.56,0.18-1.28,0.38-2.11,0.38
				C1281.57,240.06,1280.69,238.55,1280.69,236.33z"/>
			<path class="st47" d="M1287.91,224.97h2.42v3.84l-0.1,1.99c0.87-0.81,1.89-1.56,3.3-1.56c2.21,0,3.17,1.5,3.17,4.1v6.47h-2.42
				v-6.16c0-1.7-0.49-2.33-1.6-2.33c-0.91,0-1.5,0.44-2.35,1.28v7.21h-2.42V224.97z"/>
			<path class="st47" d="M1299.08,237.03c0-2.21,1.83-3.36,6.06-3.81c-0.03-1.11-0.48-2.03-1.87-2.03c-1.02,0-1.99,0.46-2.9,1.02
				l-0.89-1.61c1.13-0.71,2.59-1.35,4.23-1.35c2.58,0,3.85,1.59,3.85,4.46v6.11h-1.98l-0.18-1.14h-0.07
				c-0.92,0.79-1.98,1.39-3.2,1.39C1300.32,240.06,1299.08,238.83,1299.08,237.03z M1305.14,237.04v-2.32
				c-2.8,0.35-3.73,1.08-3.73,2.13c0,0.91,0.62,1.31,1.49,1.31C1303.74,238.16,1304.38,237.75,1305.14,237.04z"/>
			<path class="st47" d="M1310.47,229.49h1.98l0.18,1.39h0.07c0.92-0.9,1.97-1.65,3.38-1.65c2.21,0,3.17,1.5,3.17,4.1v6.47h-2.42
				v-6.16c0-1.7-0.49-2.33-1.6-2.33c-0.91,0-1.5,0.44-2.35,1.28v7.21h-2.42V229.49z"/>
			<path class="st47" d="M1325.75,234.66c0-3.43,2.43-5.42,5.17-5.42c1.31,0,2.27,0.5,3.01,1.16l-1.18,1.57
				c-0.55-0.48-1.07-0.76-1.71-0.76c-1.66,0-2.81,1.38-2.81,3.44c0,2.07,1.13,3.43,2.74,3.43c0.81,0,1.54-0.39,2.13-0.89l0.98,1.6
				c-0.97,0.86-2.19,1.27-3.37,1.27C1327.9,240.06,1325.75,238.08,1325.75,234.66z"/>
			<path class="st47" d="M1335.45,234.66c0-3.43,2.33-5.42,4.9-5.42c2.57,0,4.91,1.98,4.91,5.42c0,3.42-2.33,5.4-4.91,5.4
				C1337.78,240.06,1335.45,238.08,1335.45,234.66z M1342.77,234.66c0-2.07-0.91-3.44-2.42-3.44s-2.42,1.38-2.42,3.44
				c0,2.07,0.91,3.43,2.42,3.43S1342.77,236.72,1342.77,234.66z"/>
			<path class="st47" d="M1348.02,236.33v-4.91h-1.47v-1.81l1.6-0.11l0.29-2.81h2.01v2.81h2.63v1.92h-2.63v4.91
				c0,1.21,0.47,1.81,1.46,1.81c0.35,0,0.77-0.12,1.08-0.23l0.41,1.78c-0.56,0.18-1.28,0.38-2.11,0.38
				C1348.9,240.06,1348.02,238.55,1348.02,236.33z"/>
			<path class="st47" d="M1355.6,236.33v-4.91h-1.47v-1.81l1.6-0.11l0.29-2.81h2.01v2.81h2.63v1.92h-2.63v4.91
				c0,1.21,0.47,1.81,1.46,1.81c0.35,0,0.77-0.12,1.08-0.23l0.41,1.78c-0.56,0.18-1.28,0.38-2.11,0.38
				C1356.48,240.06,1355.6,238.55,1355.6,236.33z"/>
			<path class="st47" d="M1362.14,234.66c0-3.43,2.33-5.42,4.91-5.42c2.57,0,4.9,1.98,4.9,5.42c0,3.42-2.33,5.4-4.9,5.4
				C1364.47,240.06,1362.14,238.08,1362.14,234.66z M1369.46,234.66c0-2.07-0.91-3.44-2.42-3.44s-2.42,1.38-2.42,3.44
				c0,2.07,0.91,3.43,2.42,3.43S1369.46,236.72,1369.46,234.66z"/>
			<path class="st47" d="M1374.35,229.49h1.98l0.18,1.39h0.07c0.92-0.9,1.97-1.65,3.38-1.65c2.21,0,3.17,1.5,3.17,4.1v6.47h-2.42
				v-6.16c0-1.7-0.49-2.33-1.6-2.33c-0.91,0-1.5,0.44-2.35,1.28v7.21h-2.42V229.49z"/>
			<path class="st47" d="M1385.9,238.43c0-0.95,0.68-1.65,1.56-1.65s1.56,0.7,1.56,1.65c0,0.93-0.68,1.63-1.56,1.63
				S1385.9,239.36,1385.9,238.43z"/>
		</g>
	</g>
	<g>
		<g>
			<path class="st47" d="M104.34,131.02h2.44v5.52h5.55v-5.52h2.44v13.73h-2.44v-6.09h-5.55v6.09h-2.44V131.02z"/>
			<path class="st47" d="M117.5,141.98c0-2.21,1.83-3.36,6.06-3.81c-0.03-1.11-0.48-2.03-1.87-2.03c-1.02,0-1.99,0.46-2.9,1.02
				l-0.89-1.61c1.13-0.71,2.6-1.35,4.23-1.35c2.58,0,3.85,1.59,3.85,4.46v6.11H124l-0.18-1.14h-0.07c-0.92,0.79-1.98,1.39-3.2,1.39
				C118.75,145,117.5,143.78,117.5,141.98z M123.57,141.99v-2.32c-2.8,0.35-3.73,1.08-3.73,2.13c0,0.91,0.62,1.31,1.49,1.31
				C122.16,143.1,122.8,142.69,123.57,141.99z"/>
			<path class="st47" d="M127.61,134.44h2.45l1.64,5.35c0.29,1.02,0.59,2.07,0.87,3.11h0.08c0.29-1.03,0.59-2.09,0.87-3.11
				l1.64-5.35h2.33l-3.5,10.31h-2.8L127.61,134.44z"/>
			<path class="st47" d="M139.01,131.26c0-0.81,0.64-1.37,1.5-1.37c0.86,0,1.49,0.55,1.49,1.37c0,0.8-0.64,1.37-1.49,1.37
				C139.65,132.63,139.01,132.06,139.01,131.26z M139.29,134.44h2.42v10.31h-2.42V134.44z"/>
			<path class="st47" d="M144.79,134.44h1.98l0.18,1.39h0.07c0.92-0.9,1.97-1.65,3.38-1.65c2.21,0,3.17,1.5,3.17,4.1v6.47h-2.42
				v-6.16c0-1.7-0.49-2.33-1.6-2.33c-0.91,0-1.5,0.44-2.35,1.28v7.21h-2.42V134.44z"/>
			<path class="st47" d="M155.84,146.62c0-0.87,0.54-1.63,1.49-2.2v-0.08c-0.53-0.34-0.93-0.89-0.93-1.72c0-0.8,0.55-1.5,1.14-1.92
				v-0.08c-0.71-0.52-1.36-1.5-1.36-2.72c0-2.37,1.91-3.7,4.07-3.7c0.57,0,1.11,0.1,1.53,0.25h3.69v1.8h-1.88
				c0.34,0.39,0.59,1.02,0.59,1.73c0,2.29-1.74,3.52-3.92,3.52c-0.44,0-0.93-0.09-1.39-0.27c-0.31,0.26-0.5,0.52-0.5,0.99
				c0,0.58,0.42,0.93,1.67,0.93h1.84c2.46,0,3.77,0.76,3.77,2.54c0,2.03-2.13,3.64-5.5,3.64
				C157.68,149.31,155.84,148.43,155.84,146.62z M163.3,146.07c0-0.8-0.64-1.03-1.82-1.03h-1.42c-0.55,0-1-0.04-1.39-0.14
				c-0.55,0.42-0.8,0.88-0.8,1.36c0,0.94,1.01,1.49,2.63,1.49C162.17,147.74,163.3,146.96,163.3,146.07z M162.04,137.89
				c0-1.29-0.78-2.03-1.79-2.03s-1.79,0.73-1.79,2.03c0,1.31,0.8,2.07,1.79,2.07C161.24,139.96,162.04,139.2,162.04,137.89z"/>
			<path class="st47" d="M171.12,141.98c0-2.21,1.83-3.36,6.06-3.81c-0.03-1.11-0.48-2.03-1.87-2.03c-1.02,0-1.99,0.46-2.9,1.02
				l-0.89-1.61c1.13-0.71,2.6-1.35,4.23-1.35c2.58,0,3.85,1.59,3.85,4.46v6.11h-1.98l-0.18-1.14h-0.07
				c-0.92,0.79-1.98,1.39-3.2,1.39C172.36,145,171.12,143.78,171.12,141.98z M177.18,141.99v-2.32c-2.8,0.35-3.73,1.08-3.73,2.13
				c0,0.91,0.62,1.31,1.49,1.31C175.78,143.1,176.42,142.69,177.18,141.99z"/>
			<path class="st47" d="M103.11,168.77l1.13-1.54c0.92,0.71,1.8,1.15,2.85,1.15c1.13,0,1.65-0.53,1.65-1.23
				c0-0.86-1.12-1.25-2.22-1.67c-1.35-0.51-2.9-1.28-2.9-3.01c0-1.79,1.44-3.08,3.75-3.08c1.44,0,2.59,0.58,3.43,1.23l-1.11,1.49
				c-0.72-0.53-1.45-0.9-2.26-0.9c-1.04,0-1.53,0.5-1.53,1.14c0,0.81,1.04,1.13,2.16,1.54c1.39,0.52,2.96,1.19,2.96,3.12
				c0,1.77-1.4,3.2-4.01,3.2C105.6,170.2,104.12,169.6,103.11,168.77z"/>
			<path class="st47" d="M113.07,166.1v-6.47h2.42v6.16c0,1.7,0.49,2.33,1.6,2.33c0.91,0,1.5-0.42,2.28-1.43v-7.06h2.42v10.31h-1.98
				l-0.18-1.52h-0.07c-0.91,1.07-1.91,1.77-3.32,1.77C114.03,170.2,113.07,168.71,113.07,166.1z"/>
			<path class="st47" d="M124.86,159.64h1.98l0.18,1.1h0.07c0.87-0.75,1.97-1.35,3.11-1.35c2.58,0,4.06,2.07,4.06,5.25
				c0,3.53-2.11,5.57-4.4,5.57c-0.92,0-1.81-0.41-2.65-1.13l0.08,1.71v3.25h-2.42V159.64z M131.77,164.66
				c0-2.06-0.67-3.28-2.24-3.28c-0.75,0-1.45,0.38-2.25,1.16v4.8c0.74,0.63,1.47,0.86,2.07,0.86
				C130.72,168.2,131.77,166.99,131.77,164.66z"/>
			<path class="st47" d="M136.71,159.64h1.98l0.18,1.1h0.07c0.87-0.75,1.97-1.35,3.11-1.35c2.58,0,4.06,2.07,4.06,5.25
				c0,3.53-2.11,5.57-4.4,5.57c-0.92,0-1.81-0.41-2.65-1.13l0.08,1.71v3.25h-2.42V159.64z M143.62,164.66
				c0-2.06-0.67-3.28-2.24-3.28c-0.75,0-1.45,0.38-2.25,1.16v4.8c0.74,0.63,1.47,0.86,2.07,0.86
				C142.57,168.2,143.62,166.99,143.62,164.66z"/>
			<path class="st47" d="M147.87,164.8c0-3.43,2.33-5.42,4.9-5.42s4.9,1.98,4.9,5.42c0,3.42-2.33,5.4-4.9,5.4
				S147.87,168.22,147.87,164.8z M155.19,164.8c0-2.07-0.91-3.44-2.42-3.44s-2.42,1.38-2.42,3.44c0,2.07,0.91,3.43,2.42,3.43
				S155.19,166.87,155.19,164.8z"/>
			<path class="st47" d="M160.08,159.64h1.98l0.18,1.84h0.07c0.73-1.34,1.83-2.09,2.93-2.09c0.52,0,0.86,0.07,1.17,0.21l-0.42,2.1
				c-0.36-0.1-0.63-0.17-1.06-0.17c-0.82,0-1.81,0.56-2.44,2.13v6.29h-2.42V159.64z"/>
			<path class="st47" d="M168.27,166.47v-4.91h-1.47v-1.81l1.6-0.11l0.29-2.81h2.01v2.81h2.63v1.92h-2.63v4.91
				c0,1.21,0.47,1.81,1.46,1.81c0.35,0,0.77-0.12,1.07-0.23l0.41,1.78c-0.56,0.18-1.28,0.38-2.11,0.38
				C169.15,170.2,168.27,168.7,168.27,166.47z"/>
			<path class="st47" d="M178.67,168.77l1.13-1.54c0.92,0.71,1.8,1.15,2.85,1.15c1.13,0,1.65-0.53,1.65-1.23
				c0-0.86-1.12-1.25-2.22-1.67c-1.35-0.51-2.9-1.28-2.9-3.01c0-1.79,1.44-3.08,3.75-3.08c1.44,0,2.59,0.58,3.43,1.23l-1.11,1.49
				c-0.72-0.53-1.45-0.9-2.26-0.9c-1.04,0-1.53,0.5-1.53,1.14c0,0.81,1.04,1.13,2.16,1.54c1.39,0.52,2.96,1.19,2.96,3.12
				c0,1.77-1.4,3.2-4.01,3.2C181.16,170.2,179.67,169.6,178.67,168.77z"/>
			<path class="st47" d="M188.08,173.97l0.44-1.87c0.2,0.06,0.5,0.14,0.74,0.14c1.08,0,1.71-0.74,2.06-1.77l0.19-0.65l-4.06-10.19
				h2.45l1.78,5.06c0.31,0.92,0.6,1.93,0.91,2.91h0.08c0.26-0.96,0.52-1.97,0.79-2.91l1.54-5.06h2.33l-3.73,10.78
				c-0.86,2.32-1.94,3.76-4.19,3.76C188.86,174.18,188.46,174.1,188.08,173.97z"/>
			<path class="st47" d="M198.11,168.77l1.13-1.54c0.92,0.71,1.8,1.15,2.85,1.15c1.13,0,1.65-0.53,1.65-1.23
				c0-0.86-1.12-1.25-2.22-1.67c-1.35-0.51-2.9-1.28-2.9-3.01c0-1.79,1.44-3.08,3.75-3.08c1.44,0,2.59,0.58,3.43,1.23l-1.11,1.49
				c-0.72-0.53-1.45-0.9-2.26-0.9c-1.04,0-1.53,0.5-1.53,1.14c0,0.81,1.04,1.13,2.16,1.54c1.39,0.52,2.96,1.19,2.96,3.12
				c0,1.77-1.4,3.2-4.01,3.2C200.61,170.2,199.12,169.6,198.11,168.77z"/>
			<path class="st47" d="M208.55,166.47v-4.91h-1.47v-1.81l1.6-0.11l0.29-2.81h2.01v2.81h2.63v1.92h-2.63v4.91
				c0,1.21,0.47,1.81,1.46,1.81c0.35,0,0.77-0.12,1.07-0.23l0.41,1.78c-0.56,0.18-1.28,0.38-2.11,0.38
				C209.43,170.2,208.55,168.7,208.55,166.47z"/>
			<path class="st47" d="M215.09,164.8c0-3.35,2.33-5.42,4.75-5.42c2.79,0,4.26,2.02,4.26,4.9c0,0.46-0.05,0.92-0.1,1.18h-6.55
				c0.2,1.83,1.38,2.87,3.04,2.87c0.88,0,1.64-0.28,2.39-0.75l0.82,1.5c-0.98,0.66-2.23,1.12-3.54,1.12
				C217.32,170.2,215.09,168.2,215.09,164.8z M222.01,163.81c0-1.59-0.71-2.55-2.12-2.55c-1.2,0-2.26,0.9-2.47,2.55H222.01z"/>
			<path class="st47" d="M226.42,159.64h1.98l0.18,1.41h0.07c0.87-0.91,1.87-1.66,3.17-1.66c1.51,0,2.37,0.69,2.85,1.85
				c0.99-1.05,2.01-1.85,3.32-1.85c2.18,0,3.18,1.5,3.18,4.1v6.47h-2.42v-6.16c0-1.7-0.5-2.33-1.59-2.33
				c-0.65,0-1.36,0.42-2.16,1.28v7.21h-2.42v-6.16c0-1.7-0.5-2.33-1.59-2.33c-0.64,0-1.36,0.42-2.16,1.28v7.21h-2.42V159.64z"/>
			<path class="st47" d="M103.86,181.66c0-0.81,0.64-1.37,1.5-1.37c0.86,0,1.49,0.55,1.49,1.37c0,0.8-0.64,1.37-1.49,1.37
				C104.5,183.03,103.86,182.46,103.86,181.66z M104.13,184.84h2.42v10.31h-2.42V184.84z"/>
			<path class="st47" d="M108.61,193.97l1.13-1.54c0.92,0.71,1.8,1.15,2.85,1.15c1.13,0,1.65-0.53,1.65-1.23
				c0-0.86-1.12-1.25-2.22-1.67c-1.35-0.51-2.9-1.28-2.9-3.01c0-1.79,1.44-3.08,3.75-3.08c1.44,0,2.59,0.58,3.43,1.23l-1.11,1.49
				c-0.72-0.53-1.45-0.9-2.26-0.9c-1.04,0-1.53,0.5-1.53,1.14c0,0.81,1.04,1.13,2.16,1.54c1.39,0.52,2.96,1.19,2.96,3.12
				c0,1.77-1.4,3.2-4.01,3.2C111.11,195.4,109.62,194.8,108.61,193.97z"/>
			<path class="st47" d="M122.61,181.66c0-0.81,0.64-1.37,1.5-1.37c0.86,0,1.49,0.55,1.49,1.37c0,0.8-0.64,1.37-1.49,1.37
				C123.25,183.03,122.61,182.46,122.61,181.66z M122.89,184.84h2.42v10.31h-2.42V184.84z"/>
			<path class="st47" d="M128.39,184.84h1.98l0.18,1.41h0.07c0.87-0.91,1.87-1.66,3.17-1.66c1.51,0,2.37,0.69,2.85,1.85
				c0.99-1.05,2.01-1.85,3.32-1.85c2.18,0,3.18,1.5,3.18,4.1v6.47h-2.42v-6.16c0-1.7-0.5-2.33-1.59-2.33
				c-0.65,0-1.36,0.42-2.16,1.28v7.21h-2.42v-6.16c0-1.7-0.5-2.33-1.59-2.33c-0.64,0-1.36,0.42-2.16,1.28v7.21h-2.42V184.84z"/>
			<path class="st47" d="M146.09,184.84h1.98l0.18,1.1h0.07c0.87-0.75,1.97-1.35,3.11-1.35c2.58,0,4.06,2.07,4.06,5.25
				c0,3.53-2.11,5.57-4.4,5.57c-0.92,0-1.81-0.41-2.65-1.13l0.08,1.71v3.25h-2.42V184.84z M153,189.86c0-2.06-0.67-3.28-2.24-3.28
				c-0.75,0-1.45,0.38-2.25,1.16v4.8c0.74,0.63,1.47,0.86,2.07,0.86C151.95,193.4,153,192.19,153,189.86z"/>
			<path class="st47" d="M157.25,190c0-3.43,2.33-5.42,4.9-5.42s4.9,1.98,4.9,5.42c0,3.42-2.33,5.4-4.9,5.4
				S157.25,193.42,157.25,190z M164.58,190c0-2.07-0.91-3.44-2.42-3.44s-2.42,1.38-2.42,3.44c0,2.07,0.91,3.43,2.42,3.43
				S164.58,192.07,164.58,190z"/>
			<path class="st47" d="M169.46,184.84h1.98l0.18,1.84h0.07c0.73-1.34,1.83-2.09,2.93-2.09c0.52,0,0.86,0.07,1.17,0.21l-0.42,2.1
				c-0.36-0.1-0.63-0.17-1.06-0.17c-0.82,0-1.81,0.56-2.44,2.13v6.29h-2.42V184.84z"/>
			<path class="st47" d="M177.66,191.67v-4.91h-1.47v-1.81l1.6-0.11l0.29-2.81h2.01v2.81h2.63v1.92h-2.63v4.91
				c0,1.21,0.47,1.81,1.46,1.81c0.35,0,0.77-0.12,1.07-0.23l0.41,1.78c-0.56,0.18-1.28,0.38-2.11,0.38
				C178.54,195.4,177.66,193.9,177.66,191.67z"/>
			<path class="st47" d="M184.32,192.38c0-2.21,1.83-3.36,6.06-3.81c-0.03-1.11-0.48-2.03-1.87-2.03c-1.02,0-1.99,0.46-2.9,1.02
				l-0.89-1.61c1.13-0.71,2.6-1.35,4.23-1.35c2.58,0,3.85,1.59,3.85,4.46v6.11h-1.98l-0.18-1.14h-0.07
				c-0.92,0.79-1.98,1.39-3.2,1.39C185.57,195.4,184.32,194.18,184.32,192.38z M190.39,192.39v-2.32c-2.8,0.35-3.73,1.08-3.73,2.13
				c0,0.91,0.62,1.31,1.49,1.31C188.98,193.5,189.62,193.09,190.39,192.39z"/>
			<path class="st47" d="M195.71,184.84h1.98l0.18,1.39h0.07c0.92-0.9,1.97-1.65,3.38-1.65c2.21,0,3.17,1.5,3.17,4.1v6.47h-2.42
				v-6.16c0-1.7-0.49-2.33-1.6-2.33c-0.91,0-1.5,0.44-2.35,1.28v7.21h-2.42V184.84z"/>
			<path class="st47" d="M207.83,191.67v-4.91h-1.47v-1.81l1.6-0.11l0.29-2.81h2.01v2.81h2.63v1.92h-2.63v4.91
				c0,1.21,0.47,1.81,1.46,1.81c0.35,0,0.77-0.12,1.07-0.23l0.41,1.78c-0.56,0.18-1.28,0.38-2.11,0.38
				C208.72,195.4,207.83,193.9,207.83,191.67z"/>
			<path class="st47" d="M214.84,193.77c0-0.95,0.68-1.65,1.56-1.65s1.56,0.7,1.56,1.65c0,0.93-0.68,1.63-1.56,1.63
				S214.84,194.71,214.84,193.77z"/>
		</g>
	</g>
</g>
</svg>
