<?xml version="1.0" encoding="utf-8"?>
<!-- Generator: Adobe Illustrator 23.0.1, SVG Export Plug-In . SVG Version: 6.00 Build 0)  -->
<svg version="1.1" xmlns="http://www.w3.org/2000/svg" xmlns:xlink="http://www.w3.org/1999/xlink" x="0px" y="0px"
	 viewBox="0 0 1440.42 485.35" style="enable-background:new 0 0 1440.42 485.35;" xml:space="preserve">
<style type="text/css">
	.st0{fill:#429973;}
	.st1{fill:#76B595;}
	.st2{fill:#9ECCB6;}
	.st3{fill:#7694B5;}
	.st4{fill:#417399;}
	.st5{fill:#9EB6CC;}
	.st6{fill:#9A4189;}
	.st7{fill:#B576A5;}
	.st8{fill:#CD9EC2;}
	.st9{fill:#9476B5;}
	.st10{fill:#6B429A;}
	.st11{fill:#B69ECB;}
	.st12{fill:#469945;}
	.st13{fill:#7AB576;}
	.st14{fill:#A1CC9E;}
	.st15{fill:#B5767F;}
	.st16{fill:#9A4155;}
	.st17{fill:#CD9EA6;}
	.st18{fill:#409992;}
	.st19{fill:#76B5B5;}
	.st20{fill:#9FCDCC;}
	.st21{fill:#42409A;}
	.st22{fill:#7775B7;}
	.st23{fill:#9E9BCC;}
	.st24{fill:#B476B2;}
	.st25{fill:#994395;}
	.st26{fill:#CC9EC9;}
	.st27{fill:#7676B4;}
	.st28{fill:#424399;}
	.st29{fill:none;stroke:#000000;stroke-width:2;stroke-linecap:round;stroke-miterlimit:10;}
	.st30{display:none;}
	.st31{display:inline;fill:none;stroke:#000000;stroke-width:5;stroke-linecap:round;stroke-miterlimit:10;}
	.st32{display:inline;stroke:#000000;stroke-width:5;stroke-linecap:round;stroke-linejoin:round;stroke-miterlimit:10;}
	.st33{display:inline;fill:none;stroke:#000000;stroke-width:5.4919;stroke-linecap:round;stroke-miterlimit:10;}
	.st34{display:inline;stroke:#000000;stroke-width:5.4919;stroke-linecap:round;stroke-linejoin:round;stroke-miterlimit:10;}
	.st35{display:inline;fill:none;stroke:#000000;stroke-width:4.2764;stroke-linecap:round;stroke-miterlimit:10;}
	.st36{display:inline;stroke:#000000;stroke-width:4.2764;stroke-linecap:round;stroke-linejoin:round;stroke-miterlimit:10;}
	.st37{fill:none;stroke:#000000;stroke-width:2.8926;stroke-linecap:round;stroke-miterlimit:10;}
	.st38{fill:none;stroke:#000000;stroke-width:2.1927;stroke-linecap:round;stroke-miterlimit:10;}
	.st39{stroke:#000000;stroke-width:1.9987;stroke-linecap:round;stroke-miterlimit:10;}
	.st40{fill:none;stroke:#000000;stroke-width:1.5082;stroke-linecap:round;stroke-miterlimit:10;}
	.st41{stroke:#000000;stroke-width:1.3747;stroke-linecap:round;stroke-miterlimit:10;}
	.st42{fill:#E7797C;}
	.st43{fill:none;stroke:#E7797C;stroke-width:2.1927;stroke-linecap:round;stroke-miterlimit:10;}
	.st44{fill:#FFFFFF;}
	.st45{fill:none;stroke:#E7797C;stroke-width:1.7096;stroke-linecap:round;stroke-miterlimit:10;}
	.st46{fill:none;stroke:#E7797C;stroke-width:1.6003;stroke-linecap:round;stroke-miterlimit:10;}
	.st47{fill:none;stroke:#000000;stroke-width:0.3649;stroke-linecap:round;stroke-miterlimit:10;}
	.st48{fill:none;stroke:#E7797C;stroke-width:1.5019;stroke-linecap:round;stroke-miterlimit:10;}
	.st49{fill:none;stroke:#E7797C;stroke-width:1.7275;stroke-linecap:round;stroke-miterlimit:10;}
	.st50{fill:none;stroke:#E7797C;stroke-width:2.6406;stroke-linecap:round;stroke-miterlimit:10;}
	.st51{fill:none;stroke:#000000;stroke-width:4.3309;stroke-linecap:round;stroke-miterlimit:10;}
	.st52{fill:none;stroke:#000000;stroke-width:3.8476;stroke-linecap:round;stroke-miterlimit:10;}
	.st53{fill:none;stroke:#000000;stroke-width:4.171;stroke-linecap:round;stroke-miterlimit:10;}
	.st54{fill:none;stroke:#000000;stroke-width:4.6045;stroke-linecap:round;stroke-miterlimit:10;}
	.st55{fill:none;stroke:#000000;stroke-width:2.6023;stroke-linecap:round;stroke-miterlimit:10;}
</style>
<g id="people">
	<g id="XMLID_7_">
		<g>
			<polygon class="st0" points="1177.71,213.13 1208.45,268.63 1182.23,376.74 1156.47,290.94 1156.46,290.94 1166.86,275.39 
				1146.07,233.36 			"/>
			<polygon class="st1" points="1134.32,324.05 1195.34,483.62 1069.81,483.62 			"/>
			<polygon class="st0" points="1146.07,233.36 1166.86,275.39 1132.51,249.44 1095.45,275.39 1107.2,239.27 			"/>
			<polygon class="st2" points="1166.86,275.39 1156.46,290.94 1134.32,324.05 1095.45,275.39 1132.51,249.44 			"/>
		</g>
	</g>
	<g id="XMLID_8_">
		<g>
			<polygon class="st3" points="1298.5,404.46 1318.07,485.6 1287.63,455.23 1290.53,485.6 1247.57,485.6 1247.57,456.68 
				1220.95,485.6 1239.99,407.39 1270.33,398.51 			"/>
			<polygon class="st4" points="1282.25,310.6 1309.34,355.29 1295.79,348.9 1295.79,348.89 1255.16,329.72 1239.99,347.03 
				1239.99,322.77 			"/>
			<polygon class="st5" points="1295.79,348.9 1295.79,381.48 1270.33,398.51 1239.99,387.17 1239.99,347.03 1255.16,329.72 
				1295.79,348.89 			"/>
		</g>
	</g>
	<g id="XMLID_6_">
		<g>
			<polygon class="st6" points="1045.96,324.91 1033.08,407.59 1019.34,370.79 1018.48,322.99 979.83,322.99 979.83,321.71 
				1009.89,297.66 			"/>
			<polygon class="st7" points="993.57,390.64 1039.52,489.38 947.2,485.03 			"/>
			<polygon class="st8" points="1018.48,322.99 1019.34,370.79 993.57,390.64 968.24,378.63 956.65,373.13 956.65,322.99 
				979.83,322.99 			"/>
			<polygon class="st6" points="979.83,321.71 979.83,322.99 956.65,322.99 956.65,373.13 968.24,378.63 956.65,413.6 
				937.75,340.98 956.65,309.47 			"/>
		</g>
	</g>
	<g id="XMLID_9_">
		<g>
			<polygon class="st9" points="811.99,427.45 860.15,483.98 767.58,486.16 			"/>
			<polygon class="st10" points="859.47,283.84 846.82,351.33 824.33,326.56 824.32,326.56 842.44,293.8 813.98,294.9 
				807.96,283.32 801.94,294.9 778.4,294.9 799.96,325.4 799.96,325.41 782.23,351.33 762.88,284.33 780.51,268.95 840.34,268.87 
							"/>
			<polygon class="st9" points="843.01,373.82 811.99,427.45 778.4,368.75 813.98,345.25 			"/>
			<polygon class="st11" points="842.44,293.8 824.32,326.56 813.98,345.25 799.96,325.41 799.96,325.4 778.4,294.9 801.94,294.9 
				807.96,283.32 813.98,294.9 			"/>
		</g>
	</g>
	<g id="XMLID_5_">
		<g>
			<polygon class="st12" points="707.06,337.34 715.66,370.98 698.45,389.5 698.45,352.46 661.88,333.04 637.15,352.46 
				637.15,389.5 617.79,370.98 626.39,337.34 661.88,315.83 684.47,324.97 			"/>
			<polygon class="st13" points="711.36,409.62 672.7,485.44 628.73,412.31 			"/>
			<polygon class="st14" points="698.45,352.46 698.45,389.5 670.49,410.78 637.15,389.5 637.15,352.46 661.88,333.04 			"/>
		</g>
	</g>
	<g id="XMLID_4_">
		<g>
			<polygon class="st15" points="606.91,414.98 607.63,485.71 525.91,485.71 525.91,414.98 564.49,396.28 			"/>
			<polygon class="st16" points="600.03,333.17 592.46,375 587.56,339 561.44,322.51 535.5,337.96 531.15,375 520.67,333.17 
				540.95,318.11 525.91,303.97 563.32,274.77 596.24,301.66 582.49,320.58 			"/>
			<polygon class="st17" points="587.56,339 592.46,375 564.49,396.28 531.15,375 535.5,337.96 561.44,322.51 			"/>
		</g>
	</g>
	<g id="XMLID_3_">
		<g>
			<polygon class="st18" points="436.19,302.29 441.1,363.92 431.27,377.82 417.08,363.92 417.08,311.5 375.03,265.64 
				361.38,282.15 358.11,321.88 376.27,334.47 376.27,334.48 359.74,377.82 342.82,354.5 359.74,247.62 404.52,247.62 			"/>
			<polygon class="st19" points="391.96,345.36 436.19,484.89 344.8,484.89 			"/>
			<polygon class="st20" points="375.03,265.64 417.08,311.5 391.96,345.36 376.27,334.48 376.27,334.47 358.11,321.88 
				361.38,282.15 			"/>
		</g>
	</g>
	<g id="XMLID_1_">
		<g>
			<polygon class="st21" points="131.85,393.32 120.8,418.73 117.32,375.56 117.94,338 79.78,321.81 59.73,347.51 66.13,378.97 
				65.05,423.5 57.06,410.2 43.95,388.36 39.68,329.91 79.78,285.98 125.42,297.92 142.91,367.88 			"/>
			<polygon class="st22" points="131.85,393.32 133.61,485.3 70.39,485.3 57.06,410.2 65.05,423.5 66.13,378.97 93.43,390.06 
				117.32,375.56 120.8,418.73 			"/>
			<polygon class="st23" points="117.94,338 117.32,375.56 93.43,390.06 66.13,378.97 59.73,347.51 79.78,321.81 			"/>
		</g>
	</g>
	<g id="XMLID_2_">
		<g>
			<polygon class="st24" points="237.65,378.36 275.15,489.13 175.32,484.56 208.45,379.97 225.42,393.08 			"/>
			<polygon class="st25" points="266.12,309.07 258.81,352.9 246.29,328.36 219.15,316.37 187.85,328.36 179.5,357.6 171.15,312.2 
				228.55,289.24 			"/>
			<polygon class="st26" points="246.29,328.36 258.81,352.9 237.65,378.36 225.42,393.08 208.45,379.97 179.5,357.6 187.85,328.36 
				219.15,316.37 			"/>
		</g>
	</g>
	<g id="Layer_3">
	</g>
</g>
<g id="eyes" class="st30">
	<line class="st31" x1="906.55" y1="250.81" x2="906.55" y2="264.54"/>
	<rect x="906.55" y="256.9" class="st32" width="7.64" height="7.64"/>
	<line class="st31" x1="929.05" y1="250.81" x2="929.05" y2="264.54"/>
	<rect x="929.05" y="256.9" class="st32" width="7.64" height="7.64"/>
	<line class="st31" x1="1041.99" y1="252.05" x2="1041.99" y2="265.78"/>
	<rect x="1041.99" y="258.14" class="st32" width="7.64" height="7.64"/>
	<line class="st31" x1="1064.5" y1="252.05" x2="1064.5" y2="265.78"/>
	<rect x="1064.5" y="258.14" class="st32" width="7.64" height="7.64"/>
	<line class="st31" x1="1192.77" y1="258.91" x2="1192.77" y2="272.64"/>
	<rect x="1192.77" y="265.01" class="st32" width="7.64" height="7.64"/>
	<line class="st31" x1="1215.28" y1="258.91" x2="1215.28" y2="272.64"/>
	<rect x="1215.28" y="265.01" class="st32" width="7.64" height="7.64"/>
	<line class="st31" x1="493.42" y1="256.45" x2="493.42" y2="270.18"/>
	<rect x="493.42" y="262.54" class="st32" width="7.64" height="7.64"/>
	<line class="st31" x1="515.93" y1="256.45" x2="515.93" y2="270.18"/>
	<rect x="515.93" y="262.54" class="st32" width="7.64" height="7.64"/>
	<line class="st31" x1="347.3" y1="255.41" x2="347.3" y2="269.14"/>
	<rect x="347.3" y="261.5" class="st32" width="7.64" height="7.64"/>
	<line class="st31" x1="369.81" y1="255.41" x2="369.81" y2="269.14"/>
	<rect x="369.81" y="261.5" class="st32" width="7.64" height="7.64"/>
	<line class="st33" x1="213.69" y1="255.41" x2="213.69" y2="270.49"/>
	<rect x="213.69" y="262.1" class="st34" width="8.39" height="8.39"/>
	<line class="st33" x1="238.41" y1="255.41" x2="238.41" y2="270.49"/>
	<rect x="238.41" y="262.1" class="st34" width="8.39" height="8.39"/>
	<line class="st31" x1="76.37" y1="257.47" x2="76.37" y2="271.2"/>
	<rect x="76.37" y="263.56" class="st32" width="7.64" height="7.64"/>
	<line class="st31" x1="98.88" y1="257.47" x2="98.88" y2="271.2"/>
	<rect x="98.88" y="263.56" class="st32" width="7.64" height="7.64"/>
	<line class="st31" x1="622.35" y1="261.95" x2="622.35" y2="275.68"/>
	<rect x="622.35" y="268.04" class="st32" width="7.64" height="7.64"/>
	<line class="st31" x1="644.85" y1="261.95" x2="644.85" y2="275.68"/>
	<rect x="644.85" y="268.04" class="st32" width="7.64" height="7.64"/>
	<line class="st35" x1="767.26" y1="251.57" x2="767.26" y2="263.32"/>
	<rect x="767.26" y="256.78" class="st36" width="6.53" height="6.53"/>
	<line class="st35" x1="786.51" y1="251.57" x2="786.51" y2="263.32"/>
	<rect x="786.51" y="256.78" class="st36" width="6.53" height="6.53"/>
</g>
<g id="messages">
	<g>
		<g id="XMLID_12_">
			<g>
				<path class="st42" d="M427.97,131.34c19.85,3.85,42.57,20.06,40.04,38.55c-2.39,17.41-26.74,33.68-56.79,29.67l-27.24-5.9
					c-2.42-1.85-20.01-15.75-17.48-32.78C369.66,139.55,402.43,126.38,427.97,131.34z"/>
				<polygon class="st42" points="411.22,199.56 386.23,219.63 383.98,193.66 				"/>
			</g>
			<g>
				<line class="st43" x1="386.23" y1="219.63" x2="383.98" y2="193.66"/>
				<line class="st43" x1="411.22" y1="199.56" x2="386.23" y2="219.63"/>
				<path class="st43" d="M383.98,193.66c-2.42-1.85-20.01-15.75-17.48-32.78c3.16-21.33,35.93-34.5,61.47-29.54
					c19.85,3.85,42.57,20.06,40.04,38.55c-2.39,17.41-26.74,33.68-56.79,29.67"/>
			</g>
		</g>
		<g>
			<g>
				<path class="st44" d="M391.41,178.34c1.38,5.4,7.43,3.1,10.03,0.13c0.57-0.65,1.41-2.33,2.26-2.64c1.88-0.7,3.41,1.43,4.36,2.36
					c0.96,0.95,1.14,2.07,2.44,2.84c2.77,1.65,5.79,0.13,8.14-1.49c2.32-1.6,4.12-3.99,6.6-1.11c0.6,0.7,0.59,1.87,1.3,2.57
					c1.38,1.38,2.9,1.15,4.51,0.23c2.47-1.42,3.78-4.32,6.7-2.75c0.7,0.38,0.86,1.4,1.87,1.79c1.11,0.42,2.32,0.1,3.43-0.12
					c3.58-0.72,6.22-1.51,9.91-0.54c1.56,0.41,2.22-2,0.66-2.41c-3.72-0.98-6.27-0.18-9.91,0.11c-1.4,0.77-2.76,0.54-4.09-0.68
					c-0.31-0.42-0.62-0.84-0.94-1.25c-0.62-0.24-1.15-0.5-1.89-0.53c-1.96-0.07-3.78,1.87-5.33,2.75c-4.83,2.75-2.94-1.08-5.61-3.31
					c-1.66-1.38-3.25-0.58-4.98,0.37c-0.94,0.52-1.84,1.39-2.68,2.03c-2.17,2.48-4.82,2.56-7.95,0.22c-0.42-0.94-0.95-1.82-1.6-2.62
					c-1.46-1.62-3.11-2.19-5.15-1.37c-1.59,0.64-8.25,10.17-9.64,4.73C393.42,176.12,391.01,176.78,391.41,178.34L391.41,178.34z"/>
			</g>
		</g>
		<g>
			<g>
				<path class="st44" d="M380.12,153.94c1.24,1.71,2.98,5.71,5.54,5.67c1.35-0.02,2.17-1.03,3.07-1.89
					c2.45-2.31,4.77-4.8,7.14-7.19c-0.7-0.18-1.39-0.37-2.09-0.55c0.65,4.48,2.14,9.6,7.41,10.12c5.37,0.53,8.86-4.23,11.46-8.18
					c-0.57,0.15-1.14,0.3-1.71,0.45c2.63,1.97,2.64,6.39,6.14,7.45c1.72,0.52,2.38-0.22,3.86-0.82c3.41-1.37,2.68,0.18,5.46,0.26
					c0.78,0.02,1.07-0.09,2-0.37c4.02-1.25,8.07-4.47,11.73-6.55c-0.61-0.25-1.22-0.5-1.84-0.75c0.95,4.5,4.2,7.2,8.72,7.66
					c1.6,0.16,1.59-2.34,0-2.5c-3.38-0.34-5.63-2.62-6.3-5.82c-0.17-0.81-1.17-1.13-1.84-0.75c-3,1.7-6.11,4.04-9.31,5.3
					c-2.85,1.12-4.47-0.26-6.88-0.21c-0.76,0.02-1.21,0.53-1.84,0.64c-1.3,0.23-3.72,0.42-5.04-0.71c-1.5-1.29-1.79-3.64-3.6-5
					c-0.56-0.42-1.37-0.06-1.71,0.45c-1.96,2.98-5.47,8.21-9.91,6.84c-3.33-1.03-3.96-5.31-4.39-8.18
					c-0.14-0.96-1.49-1.16-2.09-0.55c-1.95,1.96-3.89,3.92-5.84,5.88c-1.25,1.26-1.32,2.03-2.97,1.37
					c-1.39-0.56-2.18-2.19-3.01-3.34C381.34,151.39,379.17,152.63,380.12,153.94L380.12,153.94z"/>
			</g>
		</g>
	</g>
	<g>
		<g id="XMLID_11_">
			<g>
				<path class="st42" d="M301.28,229.41c12.17,2.95,26.1,15.35,24.55,29.5c-1.47,13.32-16.39,25.77-34.82,22.7l-16.7-4.51
					c-1.48-1.42-12.27-12.05-10.72-25.08C265.54,235.69,285.63,225.61,301.28,229.41z"/>
				<polygon class="st42" points="291.02,281.61 275.7,296.97 274.32,277.09 				"/>
			</g>
			<g>
				<line class="st48" x1="275.7" y1="296.97" x2="274.32" y2="277.09"/>
				<line class="st48" x1="291.02" y1="281.61" x2="275.7" y2="296.97"/>
				<path class="st48" d="M274.32,277.09c-1.48-1.42-12.27-12.05-10.72-25.08c1.94-16.32,22.03-26.4,37.69-22.6
					c12.17,2.95,26.1,15.35,24.55,29.5c-1.47,13.32-16.39,25.77-34.82,22.7"/>
			</g>
		</g>
		<g>
			<g>
				<path class="st44" d="M278.78,265.35c0.86,3.11,3.76,2.91,5.72,0.86c1.53-1.6,1.33-3.71,4.49-1c0.71,0.61,0.55,1.5,1.43,2.09
					c1.43,0.95,2.82,0.53,4.19-0.28c1.22-0.72,2.79-3.64,4.77-2.06c0.58,0.47,0.33,1.93,1.06,2.5c0.95,0.74,1.36,0.72,2.5,0.24
					c0.8-0.34,1.07-1.42,1.83-1.8c6.32-3.15,1.22-0.01,2.9,0.3c1.87,0.35,0.27,0.49,2.36,0.59c2.41,0.12,3.79-1.34,6.53-0.54
					c1.06,0.31,1.51-1.34,0.46-1.65c-2.7-0.79-6.06,0.82-8.45-0.28c-1.28-0.59-0.16-1.42-1.9-1.51c-1.73-0.09-2.65,2.52-3.95,2.74
					c-2.03,0.34-1.83-2.38-3.14-3.55c-0.22-0.19-0.54-0.33-0.83-0.22c-1.79,0.64-2.71,2.54-4.27,3.15c-5.05,1.99-3.6-2.48-6.02-3.61
					c-1.01-0.47-1.52-0.36-2.44,0.11c-0.78,0.4-4.75,6.53-5.59,3.47C280.14,263.83,278.49,264.28,278.78,265.35L278.78,265.35z"/>
			</g>
		</g>
		<g>
			<g>
				<path class="st44" d="M271.87,246.65c0.83,1.44,1.53,2.86,2.66,4.08c0.21,0.22,0.54,0.29,0.83,0.22
					c2.68-0.67,4.68-4.88,6.3-6.92c-0.49-0.2-0.97-0.4-1.46-0.61c0.34,2.78,0.82,7.16,4.24,7.86c3.8,0.77,6.09-3.47,7.52-6.17
					c-0.45,0.06-0.9,0.12-1.34,0.17c3.07,3.22,1.7,6.16,6.19,5.35c1.44-0.26,2.75,0.19,4.23-0.04c2.51-0.38,5.77-3.81,7.73-5.2
					c-0.42-0.17-0.84-0.34-1.26-0.51c0.58,2.95,2.12,5.24,5.2,5.75c1.08,0.18,1.54-1.47,0.46-1.65c-2.51-0.65-3.85-2.17-4.01-4.56
					c-0.1-0.51-0.83-0.82-1.26-0.51c-1.96,1.39-4.81,4.36-7.27,4.51c-0.98,0.06-1.69-0.76-2.52-0.62c-0.45,0.08-2.01,1.3-2.11,1.29
					c-1.57-0.08-3.14-3.93-4.19-5.03c-0.37-0.39-1.09-0.31-1.34,0.17c-1.38,2.6-0.98,2.49-4.65,2.6c-4.03,0.13-3.47,0.23-3.91-3.43
					c-0.08-0.63-0.94-1.26-1.46-0.61c-0.99,1.24-2.33,3.53-3.58,4.5c-0.4,0.5-0.8,1-1.19,1.5c-1.03-0.82-1.81-1.83-2.33-3.03
					C272.79,244.83,271.31,245.69,271.87,246.65L271.87,246.65z"/>
			</g>
		</g>
	</g>
	<g>
		<g id="XMLID_14_">
			<g>
				<path class="st42" d="M945.74,229.04c-16.1,2.95-34.53,15.35-32.48,29.5c1.94,13.32,21.69,25.77,46.06,22.7l22.09-4.51
					c1.96-1.42,16.23-12.05,14.18-25.08C993.04,235.33,966.46,225.25,945.74,229.04z"/>
				<polygon class="st42" points="959.33,281.25 979.6,296.61 981.42,276.73 				"/>
			</g>
			<g>
				<line class="st49" x1="979.6" y1="296.61" x2="981.42" y2="276.73"/>
				<line class="st49" x1="959.33" y1="281.25" x2="979.6" y2="296.61"/>
				<path class="st49" d="M981.42,276.73c1.96-1.42,16.23-12.05,14.18-25.08c-2.56-16.32-29.14-26.4-49.86-22.6
					c-16.1,2.95-34.53,15.35-32.48,29.5c1.94,13.32,21.69,25.77,46.06,22.7"/>
			</g>
		</g>
		<g>
			<g>
				<path class="st44" d="M973.47,264.5c-1.19,3.25-6.92-3.7-8.79-3.96c-1.29-0.18-2.33,0.52-3.2,1.38
					c-2.57,2.54-0.02,5.42-8.03,1.64c-0.96-0.45-1.71-1.35-2.72-1.77c-1.5-0.62-2.18-0.77-3.35,0.26c-0.54,0.47-0.59,1.37-1.05,1.84
					c-2.35,2.38-2.03,0.87-3.79,0.28c-1.3-0.44-2.62-2.06-4.18-1.8c-2.18,0.37-2.66,1.92-5.36,1.84c-2.79-0.08-5.12-0.77-8.02-0.08
					c-1.23,0.29-0.71,2.19,0.52,1.9c3.89-0.92,7.02,1.07,10.69,0.55c0.59-0.08,0.93-0.83,1.39-0.98c3.45-1.07,3.14,0.51,5.71,1.66
					c1.2,0.54,2.1,0.94,3.29,0.11c0.71-0.5,0.68-1.22,1.2-1.82c0.19-1.9,1.27-2.35,3.25-1.33c0.78,0.57,1.55,1.15,2.32,1.75
					c1.94,1.22,4.18,2.37,6.45,1.19c2.81-1.45,2.42-6,7.04-2.52c2.54,1.91,6.74,5.29,8.53,0.4
					C975.81,263.83,973.91,263.31,973.47,264.5L973.47,264.5z"/>
			</g>
		</g>
		<g>
			<g>
				<path class="st44" d="M982.83,245.36c-0.77,1.35-1.88,2.36-3.32,3c-0.63-0.6-1.26-1.2-1.89-1.8c-1.47-1.4-2.95-2.8-4.42-4.2
					c-0.49-0.46-1.52-0.33-1.65,0.43c-0.45,2.8-0.93,6.74-5.78,6.21c-2.45-0.27-4.66-3.46-5.87-5.19c-0.28-0.41-0.88-0.68-1.35-0.35
					c-1.22,0.86-1.48,1.69-2.42,2.83c-1.16,1.4-2.24,2.18-4.23,1.81c-0.74-0.14-0.9-0.61-1.87-0.77c-1.04-0.17-2.18,0.57-3.33,0.55
					c-3.21-0.05-7-2.93-9.81-4.44c-0.54-0.29-1.29-0.05-1.45,0.59c-0.55,2.69-2.26,4.16-5.14,4.43c-1.25,0.13-1.26,2.11,0,1.97
					c3.56-0.39,6.18-2.3,7.04-5.88c-0.48,0.2-0.96,0.39-1.45,0.59c2.91,1.56,6.57,4.42,9.81,5.1c1.6,0.33,2.32-0.61,3.56-0.64
					c2.32-0.05,3.07,2,5.4,1.25c2.12-0.68,1.89-3.21,3.42-4.06c1.95-1.08,2.4,1.56,4.48,2.9c1.44,0.93,3.1,1.52,4.83,1.37
					c4.19-0.34,5.47-4.15,6.05-7.75c-0.55,0.14-1.1,0.29-1.65,0.43c1.82,1.72,5.25,6.62,7.86,6.87c2.34,0.23,3.64-2.67,4.87-4.28
					C985.3,245.35,983.59,244.37,982.83,245.36L982.83,245.36z"/>
			</g>
		</g>
	</g>
	<g>
		<g id="XMLID_15_">
			<g>
				<path class="st42" d="M1192.15,91.13c24.59,4.51,52.75,23.48,49.61,45.12c-2.96,20.38-33.13,39.42-70.36,34.73l-33.75-6.91
					c-3-2.17-24.79-18.43-21.66-38.37C1119.91,100.74,1160.51,85.33,1192.15,91.13z"/>
				<polygon class="st42" points="1171.4,170.98 1140.44,194.47 1137.65,164.07 				"/>
			</g>
			<g>
				<line class="st50" x1="1140.44" y1="194.47" x2="1137.65" y2="164.07"/>
				<line class="st50" x1="1171.4" y1="170.98" x2="1140.44" y2="194.47"/>
				<path class="st50" d="M1137.65,164.07c-3-2.17-24.79-18.43-21.66-38.37c3.92-24.97,44.52-40.38,76.16-34.57
					c24.59,4.51,52.75,23.48,49.61,45.12c-2.96,20.38-33.13,39.42-70.36,34.73"/>
			</g>
		</g>
		<g>
			<g>
				<path class="st44" d="M1146.89,146.16c0.59,2.43,2.51,3.74,5,3.93c4.07,0.3,5.49-2.57,8.26-4.81c6.73-5.43,6.82,3.38,11.89,4.7
					c3.7,0.97,7.08-1.39,9.87-3.46c0.94-0.7,2.28-2.13,3.48-2.4c2.98-0.67,2.76,0.78,3.56,2.58c0.44,0.99,0.82,2.1,1.67,2.83
					c1.84,1.58,3.78,0.92,5.63-0.21c2.75-1.69,4.8-4.73,8.12-2.74c0.96,0.58,1.37,1.62,2.69,1.96c1.58,0.41,3.2-0.11,4.71-0.53
					c3.96-1.1,7.25-1.37,11.31-0.33c1.88,0.48,2.68-2.42,0.8-2.9c-4.48-1.15-7.84-0.42-12.26,0.13c-1.46,0.18-3.53,0.67-4.91-0.29
					c-0.35-0.24-0.28-0.99-0.68-1.24c-1.2-0.75-1.15-1.3-2.8-1.31c-3.72-0.04-6.19,4.37-9.6,4.27c-2.5-0.07-1.9-1.53-3.01-3.39
					c-0.49-0.83-1.1-1.68-1.99-2.11c-2.47-1.17-5.37,0.98-7.32,2.39c-2.97,2.13-4.81,4.4-8.53,2.92c-3.06-1.22-2.56-2.46-4.58-4.68
					c-1.76-1.92-4.14-2.81-6.59-1.59c-2.19,1.1-10.29,11.8-11.82,5.49C1149.34,143.47,1146.43,144.27,1146.89,146.16L1146.89,146.16
					z"/>
			</g>
		</g>
		<g>
			<g>
				<path class="st44" d="M1132.9,117.61c1.57,2.05,3.76,6.72,6.81,6.66c1.89-0.03,3.08-1.59,4.36-2.77
					c2.8-2.57,5.52-5.25,8.27-7.87c-0.84-0.22-1.68-0.44-2.52-0.66c0.82,5.33,2.72,11.15,8.89,11.87c6.6,0.77,11.06-4.77,14.4-9.59
					c-0.69,0.18-1.37,0.36-2.06,0.54c3.16,2.08,3.23,6.82,6.87,8.44c2.94,1.31,3.67-0.34,6.17-1.23c2.99-1.07,5.63,1.54,8.92,0.28
					c4.88-1.86,9.56-5.05,14.16-7.52c-0.74-0.3-1.47-0.6-2.21-0.9c1.09,5.38,5.41,8.59,10.76,8.99c1.93,0.15,1.92-2.86,0-3.01
					c-4-0.3-7.06-2.83-7.85-6.78c-0.2-0.99-1.41-1.33-2.21-0.9c-3.59,1.93-7.24,4.36-11.01,5.92c-1.09,0.85-2.34,1.2-3.74,1.04
					c-1.23,0.58-2.27,0.43-3.11-0.46c-0.88-0.18-1.43-0.59-2.34-0.54c-3.77,0.18-3.95,5.36-8.43-0.06c-1.81-2.19-1.9-4.19-4.45-5.87
					c-0.72-0.47-1.62-0.1-2.06,0.54c-2.57,3.71-5.79,8.34-10.89,7.97c-5.31-0.39-6.24-5.23-6.9-9.53c-0.18-1.18-1.78-1.37-2.52-0.66
					c-2.53,2.4-5.05,4.81-7.58,7.21c-1.58,1.5-1.94,2.81-4.37,0.99c-1.08-0.81-1.96-2.56-2.77-3.62
					C1134.33,114.57,1131.72,116.07,1132.9,117.61L1132.9,117.61z"/>
			</g>
		</g>
	</g>
	<g>
		<g id="XMLID_20_">
			<g>
				<path d="M897.08,91.77c43.13,6.93,92.47,36.05,86.96,69.27c-5.17,31.27-58.05,60.5-123.34,53.28l-59.14-10.58
					c-5.26-3.34-43.46-28.29-37.96-58.88C770.47,106.54,841.64,82.88,897.08,91.77z"/>
				<polygon points="860.7,214.32 806.45,250.37 801.57,203.74 				"/>
			</g>
			<g>
				<line class="st51" x1="806.45" y1="250.37" x2="801.57" y2="203.74"/>
				<line class="st51" x1="860.7" y1="214.32" x2="806.45" y2="250.37"/>
				<path class="st51" d="M801.57,203.74c-5.26-3.34-43.46-28.29-37.96-58.88c6.86-38.32,78.03-61.97,133.48-53.08
					c43.13,6.93,92.47,36.05,86.96,69.27c-5.17,31.27-58.05,60.5-123.34,53.28"/>
			</g>
		</g>
	</g>
	<g>
		<g id="XMLID_19_">
			<g>
				<path d="M1354.69,135.76c34.45,6.83,73.88,35.61,69.47,68.39c-4.13,30.89-46.39,59.75-98.56,52.64l-47.26-10.47
					c-4.2-3.28-34.73-27.94-30.34-58.16C1253.5,150.32,1310.37,126.96,1354.69,135.76z"/>
				<polygon points="1325.61,256.79 1282.25,292.4 1278.35,246.32 				"/>
			</g>
			<g>
				<line class="st52" x1="1282.25" y1="292.4" x2="1278.35" y2="246.32"/>
				<line class="st52" x1="1325.61" y1="256.79" x2="1282.25" y2="292.4"/>
				<path class="st52" d="M1278.35,246.32c-4.2-3.28-34.73-27.94-30.34-58.16c5.48-37.84,62.36-61.21,106.68-52.41
					c34.45,6.83,73.88,35.61,69.47,68.39c-4.13,30.89-46.39,59.75-98.56,52.64"/>
			</g>
		</g>
	</g>
	<g>
		<g id="XMLID_16_">
			<g>
				<path d="M198.25,101.18c37.84,7.31,81.15,38.09,76.33,73.17c-4.56,33.05-50.97,63.93-108.26,56.32l-51.93-11.2
					c-4.61-3.51-38.14-29.89-33.32-62.22C87.1,116.76,149.57,91.77,198.25,101.18z"/>
				<polygon points="166.32,230.67 118.69,268.76 114.4,219.47 				"/>
			</g>
			<g>
				<line class="st53" x1="118.69" y1="268.76" x2="114.4" y2="219.47"/>
				<line class="st53" x1="166.32" y1="230.67" x2="118.69" y2="268.76"/>
				<path class="st53" d="M114.4,219.47c-4.61-3.51-38.14-29.89-33.32-62.22c6.02-40.49,68.49-65.48,117.18-56.07
					c37.84,7.31,81.15,38.09,76.33,73.17c-4.56,33.05-50.97,63.93-108.26,56.32"/>
			</g>
		</g>
	</g>
	<g>
		<g id="XMLID_17_">
			<g>
				<path d="M582.63,102.05c-40.71,8.3-87.3,43.16-82.11,82.92c4.9,37.44,54.84,72.42,116.46,63.78l55.86-12.67
					c4.96-4,41.03-33.87,35.85-70.51C702.21,119.73,635.01,91.41,582.63,102.05z"/>
				<polygon points="616.98,248.75 668.23,291.9 672.84,236.08 				"/>
			</g>
			<g>
				<line class="st54" x1="668.23" y1="291.9" x2="672.84" y2="236.08"/>
				<line class="st54" x1="616.98" y1="248.75" x2="668.23" y2="291.9"/>
				<path class="st54" d="M672.84,236.08c4.96-4,41.03-33.87,35.85-70.51c-6.48-45.85-73.68-74.16-126.05-63.52
					c-40.71,8.3-87.3,43.16-82.11,82.92c4.9,37.44,54.84,72.42,116.46,63.78"/>
			</g>
		</g>
	</g>
</g>
<g id="text">
	<g>
		<g>
			<path class="st44" d="M563.38,133.14c0-4.49,2.81-7.16,6.29-7.16c1.72,0,3.09,0.82,3.96,1.74l-1.3,1.57
				c-0.71-0.71-1.53-1.19-2.6-1.19c-2.23,0-3.84,1.89-3.84,4.97c0,3.13,1.48,5.03,3.78,5.03c1.22,0,2.16-0.56,2.93-1.41l1.3,1.53
				c-1.11,1.29-2.54,2-4.33,2C566.12,140.21,563.38,137.69,563.38,133.14z"/>
			<path class="st44" d="M575.31,134.81c0-3.43,2.33-5.42,4.9-5.42s4.9,1.98,4.9,5.42c0,3.42-2.33,5.4-4.9,5.4
				S575.31,138.23,575.31,134.81z M582.63,134.81c0-2.07-0.91-3.44-2.42-3.44s-2.42,1.38-2.42,3.44c0,2.07,0.91,3.43,2.42,3.43
				S582.63,136.88,582.63,134.81z"/>
			<path class="st44" d="M587.52,129.65h1.98l0.18,1.39h0.07c0.92-0.9,1.97-1.65,3.38-1.65c2.21,0,3.17,1.5,3.17,4.1v6.47h-2.42
				v-6.16c0-1.7-0.49-2.33-1.6-2.33c-0.91,0-1.5,0.44-2.35,1.28v7.21h-2.42V129.65z"/>
			<path class="st44" d="M598.25,138.78l1.13-1.54c0.92,0.71,1.8,1.15,2.85,1.15c1.13,0,1.65-0.53,1.65-1.23
				c0-0.86-1.12-1.25-2.22-1.67c-1.35-0.51-2.9-1.28-2.9-3.01c0-1.79,1.44-3.08,3.75-3.08c1.44,0,2.59,0.58,3.43,1.23l-1.11,1.49
				c-0.72-0.53-1.45-0.9-2.26-0.9c-1.04,0-1.53,0.5-1.53,1.14c0,0.81,1.04,1.13,2.16,1.54c1.39,0.52,2.96,1.19,2.96,3.12
				c0,1.77-1.4,3.2-4.01,3.2C600.75,140.21,599.26,139.61,598.25,138.78z"/>
			<path class="st44" d="M608.05,126.47c0-0.81,0.64-1.37,1.5-1.37c0.86,0,1.49,0.55,1.49,1.37c0,0.8-0.64,1.37-1.49,1.37
				C608.69,127.84,608.05,127.27,608.05,126.47z M608.33,129.65h2.42v10.31h-2.42V129.65z"/>
			<path class="st44" d="M613.2,134.81c0-3.36,2.11-5.42,4.37-5.42c1.17,0,1.91,0.44,2.7,1.13l-0.09-1.66v-3.74h2.42v14.83h-1.98
				l-0.18-1.12h-0.07c-0.76,0.76-1.82,1.37-2.93,1.37C614.86,140.21,613.2,138.21,613.2,134.81z M620.18,137.06v-4.8
				c-0.71-0.63-1.4-0.86-2.1-0.86c-1.31,0-2.39,1.24-2.39,3.39c0,2.24,0.86,3.43,2.34,3.43
				C618.83,138.21,619.5,137.86,620.18,137.06z"/>
			<path class="st44" d="M624.99,134.81c0-3.35,2.33-5.42,4.75-5.42c2.79,0,4.26,2.02,4.26,4.9c0,0.46-0.05,0.92-0.1,1.18h-6.55
				c0.2,1.83,1.38,2.87,3.04,2.87c0.88,0,1.64-0.28,2.39-0.75l0.82,1.5c-0.98,0.66-2.23,1.12-3.54,1.12
				C627.23,140.21,624.99,138.21,624.99,134.81z M631.91,133.82c0-1.59-0.71-2.55-2.12-2.55c-1.2,0-2.26,0.9-2.47,2.55H631.91z"/>
			<path class="st44" d="M636.32,129.65h1.98l0.18,1.84h0.07c0.73-1.34,1.83-2.09,2.93-2.09c0.52,0,0.86,0.07,1.17,0.21l-0.42,2.1
				c-0.36-0.1-0.63-0.17-1.06-0.17c-0.82,0-1.81,0.56-2.44,2.13v6.29h-2.42V129.65z"/>
			<path class="st44" d="M548.19,160.01c0-3.43,2.43-5.42,5.17-5.42c1.31,0,2.27,0.5,3.01,1.16l-1.18,1.57
				c-0.55-0.48-1.07-0.76-1.71-0.76c-1.66,0-2.81,1.38-2.81,3.44c0,2.07,1.13,3.43,2.74,3.43c0.81,0,1.55-0.39,2.13-0.89l0.98,1.6
				c-0.97,0.86-2.19,1.27-3.37,1.27C550.35,165.41,548.19,163.43,548.19,160.01z"/>
			<path class="st44" d="M558.57,154.85h1.98l0.18,1.84h0.07c0.73-1.34,1.83-2.09,2.93-2.09c0.52,0,0.86,0.07,1.17,0.21l-0.42,2.1
				c-0.36-0.1-0.63-0.17-1.06-0.17c-0.82,0-1.81,0.56-2.44,2.13v6.29h-2.42V154.85z"/>
			<path class="st44" d="M565.74,169.18l0.44-1.87c0.2,0.06,0.5,0.14,0.74,0.14c1.08,0,1.71-0.74,2.06-1.77l0.19-0.65l-4.06-10.19
				h2.45l1.78,5.06c0.31,0.92,0.6,1.93,0.91,2.91h0.08c0.26-0.96,0.52-1.97,0.79-2.91l1.54-5.06H575l-3.73,10.78
				c-0.86,2.32-1.94,3.76-4.19,3.76C566.52,169.39,566.12,169.31,565.74,169.18z"/>
			<path class="st44" d="M576.12,160.01c0-3.43,2.33-5.42,4.9-5.42s4.9,1.98,4.9,5.42c0,3.42-2.33,5.4-4.9,5.4
				S576.12,163.43,576.12,160.01z M583.44,160.01c0-2.07-0.91-3.44-2.42-3.44s-2.42,1.38-2.42,3.44c0,2.07,0.91,3.43,2.42,3.43
				S583.44,162.08,583.44,160.01z"/>
			<path class="st44" d="M588.69,161.68v-4.91h-1.47v-1.81l1.6-0.11l0.29-2.81h2.01v2.81h2.63v1.92h-2.63v4.91
				c0,1.21,0.47,1.81,1.46,1.81c0.35,0,0.77-0.12,1.07-0.23l0.41,1.78c-0.56,0.18-1.28,0.38-2.11,0.38
				C589.57,165.41,588.69,163.91,588.69,161.68z"/>
			<path class="st44" d="M595.91,150.33h2.42v3.84l-0.1,1.99c0.86-0.81,1.89-1.56,3.3-1.56c2.21,0,3.17,1.5,3.17,4.1v6.47h-2.42
				v-6.16c0-1.7-0.49-2.33-1.6-2.33c-0.91,0-1.5,0.44-2.35,1.28v7.21h-2.42V150.33z"/>
			<path class="st44" d="M606.94,160.01c0-3.35,2.33-5.42,4.75-5.42c2.79,0,4.26,2.02,4.26,4.9c0,0.46-0.05,0.92-0.1,1.18h-6.55
				c0.2,1.83,1.38,2.87,3.04,2.87c0.88,0,1.64-0.28,2.39-0.75l0.82,1.5c-0.98,0.66-2.23,1.12-3.54,1.12
				C609.18,165.41,606.94,163.41,606.94,160.01z M613.87,159.02c0-1.59-0.71-2.55-2.12-2.55c-1.2,0-2.26,0.9-2.47,2.55H613.87z"/>
			<path class="st44" d="M618.27,154.85h1.98l0.18,1.84h0.07c0.73-1.34,1.83-2.09,2.93-2.09c0.52,0,0.86,0.07,1.17,0.21l-0.42,2.1
				c-0.36-0.1-0.63-0.17-1.06-0.17c-0.82,0-1.81,0.56-2.44,2.13v6.29h-2.42V154.85z"/>
			<path class="st44" d="M625.55,162.39c0-2.21,1.83-3.36,6.06-3.81c-0.03-1.11-0.48-2.03-1.87-2.03c-1.02,0-1.99,0.46-2.9,1.02
				l-0.89-1.61c1.13-0.71,2.6-1.35,4.23-1.35c2.58,0,3.85,1.59,3.85,4.46v6.11h-1.98l-0.18-1.14h-0.07
				c-0.92,0.79-1.98,1.39-3.2,1.39C626.79,165.41,625.55,164.19,625.55,162.39z M631.61,162.4v-2.32c-2.8,0.35-3.73,1.08-3.73,2.13
				c0,0.91,0.62,1.31,1.49,1.31C630.21,163.52,630.85,163.1,631.61,162.4z"/>
			<path class="st44" d="M636.94,154.85h1.98l0.18,1.1h0.07c0.87-0.75,1.97-1.35,3.11-1.35c2.58,0,4.06,2.07,4.06,5.25
				c0,3.53-2.11,5.57-4.4,5.57c-0.92,0-1.81-0.41-2.65-1.13l0.08,1.71v3.25h-2.42V154.85z M643.85,159.87
				c0-2.06-0.67-3.28-2.24-3.28c-0.75,0-1.45,0.38-2.25,1.16v4.8c0.74,0.63,1.47,0.86,2.07,0.86
				C642.8,163.41,643.85,162.21,643.85,159.87z"/>
			<path class="st44" d="M648.12,169.18l0.44-1.87c0.2,0.06,0.5,0.14,0.74,0.14c1.08,0,1.71-0.74,2.06-1.77l0.19-0.65l-4.06-10.19
				h2.45l1.78,5.06c0.31,0.92,0.6,1.93,0.91,2.91h0.08c0.26-0.96,0.52-1.97,0.79-2.91l1.54-5.06h2.33l-3.73,10.78
				c-0.86,2.32-1.94,3.76-4.19,3.76C648.9,169.39,648.5,169.31,648.12,169.18z"/>
			<path class="st44" d="M558.94,176.87c0-0.81,0.64-1.37,1.5-1.37c0.86,0,1.49,0.55,1.49,1.37c0,0.8-0.64,1.37-1.49,1.37
				C559.58,178.24,558.94,177.67,558.94,176.87z M559.22,180.05h2.42v10.31h-2.42V180.05z"/>
			<path class="st44" d="M564.72,180.05h1.98l0.18,1.39h0.07c0.92-0.9,1.97-1.65,3.38-1.65c2.21,0,3.17,1.5,3.17,4.1v6.47h-2.42
				v-6.16c0-1.7-0.49-2.33-1.6-2.33c-0.91,0-1.5,0.44-2.35,1.28v7.21h-2.42V180.05z"/>
			<path class="st44" d="M575.46,189.18l1.13-1.54c0.92,0.71,1.8,1.15,2.85,1.15c1.13,0,1.65-0.53,1.65-1.23
				c0-0.86-1.12-1.25-2.22-1.67c-1.35-0.51-2.9-1.28-2.9-3.01c0-1.79,1.44-3.08,3.75-3.08c1.44,0,2.59,0.58,3.43,1.23l-1.11,1.49
				c-0.72-0.53-1.45-0.9-2.26-0.9c-1.04,0-1.53,0.5-1.53,1.14c0,0.81,1.04,1.13,2.16,1.54c1.39,0.52,2.96,1.19,2.96,3.12
				c0,1.77-1.4,3.2-4.01,3.2C577.95,190.61,576.47,190.01,575.46,189.18z"/>
			<path class="st44" d="M585.9,186.88v-4.91h-1.47v-1.81l1.6-0.11l0.29-2.81h2.01v2.81h2.63v1.92h-2.63v4.91
				c0,1.21,0.47,1.81,1.46,1.81c0.35,0,0.77-0.12,1.07-0.23l0.41,1.78c-0.56,0.18-1.28,0.38-2.11,0.38
				C586.78,190.61,585.9,189.11,585.9,186.88z"/>
			<path class="st44" d="M592.43,185.21c0-3.35,2.33-5.42,4.75-5.42c2.79,0,4.26,2.02,4.26,4.9c0,0.46-0.05,0.92-0.1,1.18h-6.55
				c0.2,1.83,1.38,2.87,3.04,2.87c0.88,0,1.64-0.28,2.39-0.75l0.82,1.5c-0.98,0.66-2.23,1.12-3.54,1.12
				C594.67,190.61,592.43,188.61,592.43,185.21z M599.35,184.22c0-1.59-0.71-2.55-2.12-2.55c-1.2,0-2.26,0.9-2.47,2.55H599.35z"/>
			<path class="st44" d="M603.21,187.59c0-2.21,1.83-3.36,6.06-3.81c-0.03-1.11-0.48-2.03-1.87-2.03c-1.02,0-1.99,0.46-2.9,1.02
				l-0.89-1.61c1.13-0.71,2.6-1.35,4.23-1.35c2.58,0,3.85,1.59,3.85,4.46v6.11h-1.98l-0.18-1.14h-0.07
				c-0.92,0.79-1.98,1.39-3.2,1.39C604.45,190.61,603.21,189.39,603.21,187.59z M609.27,187.6v-2.32c-2.8,0.35-3.73,1.08-3.73,2.13
				c0,0.91,0.62,1.31,1.49,1.31C607.87,188.72,608.51,188.3,609.27,187.6z"/>
			<path class="st44" d="M613.97,185.21c0-3.36,2.11-5.42,4.37-5.42c1.17,0,1.91,0.44,2.7,1.13l-0.09-1.66v-3.74h2.42v14.83h-1.98
				l-0.18-1.12h-0.07c-0.76,0.76-1.82,1.37-2.93,1.37C615.63,190.61,613.97,188.61,613.97,185.21z M620.95,187.46v-4.8
				c-0.71-0.63-1.4-0.86-2.1-0.86c-1.31,0-2.39,1.24-2.39,3.39c0,2.24,0.86,3.43,2.34,3.43
				C619.6,188.61,620.27,188.26,620.95,187.46z"/>
			<path class="st44" d="M629.96,185.21c0-3.43,2.33-5.42,4.9-5.42s4.9,1.98,4.9,5.42c0,3.42-2.33,5.4-4.9,5.4
				S629.96,188.63,629.96,185.21z M637.28,185.21c0-2.07-0.91-3.44-2.42-3.44s-2.42,1.38-2.42,3.44c0,2.07,0.91,3.43,2.42,3.43
				S637.28,187.28,637.28,185.21z"/>
			<path class="st44" d="M641.2,180.16l1.51-0.11h4.31v1.92h-5.82V180.16z M642.58,178.98c0-2.14,0.98-3.7,3.42-3.7
				c0.75,0,1.43,0.18,1.89,0.36l-0.46,1.81c-0.37-0.16-0.76-0.24-1.12-0.24c-0.86,0-1.31,0.54-1.31,1.74v11.42h-2.42V178.98z"/>
			<path class="st44" d="M537.27,210.41c0-3.43,2.43-5.42,5.17-5.42c1.31,0,2.27,0.5,3.01,1.16l-1.18,1.57
				c-0.55-0.48-1.07-0.76-1.71-0.76c-1.66,0-2.81,1.38-2.81,3.44c0,2.07,1.13,3.43,2.74,3.43c0.81,0,1.55-0.39,2.13-0.89l0.98,1.6
				c-0.97,0.86-2.19,1.27-3.37,1.27C539.43,215.81,537.27,213.83,537.27,210.41z"/>
			<path class="st44" d="M547.65,200.73h2.42v3.84l-0.1,1.99c0.86-0.81,1.89-1.56,3.3-1.56c2.21,0,3.17,1.5,3.17,4.1v6.47h-2.42
				v-6.16c0-1.7-0.49-2.33-1.6-2.33c-0.91,0-1.5,0.44-2.35,1.28v7.21h-2.42V200.73z"/>
			<path class="st44" d="M558.69,210.41c0-3.35,2.33-5.42,4.75-5.42c2.79,0,4.26,2.02,4.26,4.9c0,0.46-0.05,0.92-0.1,1.18h-6.55
				c0.2,1.83,1.38,2.87,3.04,2.87c0.88,0,1.64-0.28,2.39-0.75l0.82,1.5c-0.98,0.66-2.23,1.12-3.54,1.12
				C560.92,215.81,558.69,213.81,558.69,210.41z M565.61,209.42c0-1.59-0.71-2.55-2.12-2.55c-1.2,0-2.26,0.9-2.47,2.55H565.61z"/>
			<path class="st44" d="M570.02,205.25H572l0.18,1.41h0.07c0.87-0.91,1.87-1.66,3.17-1.66c1.51,0,2.37,0.69,2.85,1.85
				c0.99-1.05,2.01-1.85,3.32-1.85c2.18,0,3.18,1.5,3.18,4.1v6.47h-2.42v-6.16c0-1.7-0.5-2.33-1.59-2.33
				c-0.65,0-1.36,0.42-2.16,1.28v7.21h-2.42v-6.16c0-1.7-0.5-2.33-1.59-2.33c-0.64,0-1.36,0.42-2.16,1.28v7.21h-2.42V205.25z"/>
			<path class="st44" d="M587.04,210.41c0-3.43,2.33-5.42,4.9-5.42s4.9,1.98,4.9,5.42c0,3.42-2.33,5.4-4.9,5.4
				S587.04,213.83,587.04,210.41z M594.36,210.41c0-2.07-0.91-3.44-2.42-3.44s-2.42,1.38-2.42,3.44c0,2.07,0.91,3.43,2.42,3.43
				S594.36,212.48,594.36,210.41z"/>
			<path class="st44" d="M599.61,212.08v-4.91h-1.47v-1.81l1.6-0.11l0.29-2.81h2.01v2.81h2.63v1.92h-2.63v4.91
				c0,1.21,0.47,1.81,1.46,1.81c0.35,0,0.77-0.12,1.07-0.23l0.41,1.78c-0.56,0.18-1.28,0.38-2.11,0.38
				C600.49,215.81,599.61,214.31,599.61,212.08z"/>
			<path class="st44" d="M606.83,200.73h2.42v3.84l-0.1,1.99c0.86-0.81,1.89-1.56,3.3-1.56c2.21,0,3.17,1.5,3.17,4.1v6.47h-2.42
				v-6.16c0-1.7-0.49-2.33-1.6-2.33c-0.91,0-1.5,0.44-2.35,1.28v7.21h-2.42V200.73z"/>
			<path class="st44" d="M617.86,210.41c0-3.35,2.33-5.42,4.75-5.42c2.79,0,4.26,2.02,4.26,4.9c0,0.46-0.05,0.92-0.1,1.18h-6.55
				c0.2,1.83,1.38,2.87,3.04,2.87c0.88,0,1.64-0.28,2.39-0.75l0.82,1.5c-0.98,0.66-2.23,1.12-3.54,1.12
				C620.1,215.81,617.86,213.81,617.86,210.41z M624.79,209.42c0-1.59-0.71-2.55-2.12-2.55c-1.2,0-2.26,0.9-2.47,2.55H624.79z"/>
			<path class="st44" d="M629.19,205.25h1.98l0.18,1.84h0.07c0.73-1.34,1.83-2.09,2.93-2.09c0.52,0,0.86,0.07,1.17,0.21l-0.42,2.1
				c-0.36-0.1-0.63-0.17-1.06-0.17c-0.82,0-1.81,0.56-2.44,2.13v6.29h-2.42V205.25z"/>
			<path class="st44" d="M636.47,212.79c0-2.21,1.83-3.36,6.06-3.81c-0.03-1.11-0.48-2.03-1.87-2.03c-1.02,0-1.99,0.46-2.9,1.02
				l-0.89-1.61c1.13-0.71,2.6-1.35,4.23-1.35c2.58,0,3.85,1.59,3.85,4.46v6.11h-1.98l-0.18-1.14h-0.07
				c-0.92,0.79-1.98,1.39-3.2,1.39C637.71,215.81,636.47,214.59,636.47,212.79z M642.53,212.8v-2.32c-2.8,0.35-3.73,1.08-3.73,2.13
				c0,0.91,0.62,1.31,1.49,1.31C641.13,213.92,641.77,213.5,642.53,212.8z"/>
			<path class="st44" d="M647.86,205.25h1.98l0.18,1.1h0.07c0.87-0.75,1.97-1.35,3.11-1.35c2.58,0,4.06,2.07,4.06,5.25
				c0,3.53-2.11,5.57-4.4,5.57c-0.92,0-1.81-0.41-2.65-1.13l0.08,1.71v3.25h-2.42V205.25z M654.77,210.27
				c0-2.06-0.67-3.28-2.24-3.28c-0.75,0-1.45,0.38-2.25,1.16v4.8c0.74,0.63,1.47,0.86,2.07,0.86
				C653.72,213.81,654.77,212.61,654.77,210.27z"/>
			<path class="st44" d="M659.04,219.58l0.44-1.87c0.2,0.06,0.5,0.14,0.74,0.14c1.08,0,1.71-0.74,2.06-1.77l0.19-0.65l-4.06-10.19
				h2.45l1.78,5.06c0.31,0.92,0.6,1.93,0.91,2.91h0.08c0.26-0.96,0.52-1.97,0.79-2.91l1.54-5.06h2.33l-3.73,10.78
				c-0.86,2.32-1.94,3.76-4.19,3.76C659.82,219.79,659.42,219.71,659.04,219.58z"/>
		</g>
	</g>
	<g>
		<g>
			<path class="st44" d="M815.85,119.05h2.44v11.68h5.7v2.05h-8.14V119.05z"/>
			<path class="st44" d="M826.06,128.93v-6.47h2.42v6.16c0,1.7,0.49,2.33,1.6,2.33c0.91,0,1.5-0.42,2.28-1.43v-7.06h2.42v10.31
				h-1.98l-0.18-1.52h-0.07c-0.91,1.07-1.91,1.77-3.32,1.77C827.03,133.03,826.06,131.53,826.06,128.93z"/>
			<path class="st44" d="M837.86,122.46h1.98l0.18,1.41h0.07c0.87-0.91,1.87-1.66,3.17-1.66c1.51,0,2.37,0.69,2.85,1.85
				c0.99-1.05,2.01-1.85,3.32-1.85c2.18,0,3.18,1.5,3.18,4.1v6.47h-2.42v-6.16c0-1.7-0.5-2.33-1.59-2.33
				c-0.65,0-1.36,0.42-2.16,1.28v7.21h-2.42v-6.16c0-1.7-0.5-2.33-1.59-2.33c-0.64,0-1.36,0.42-2.16,1.28v7.21h-2.42V122.46z"/>
			<path class="st44" d="M855.56,122.46h1.98l0.18,1.1h0.07c0.87-0.75,1.97-1.35,3.11-1.35c2.58,0,4.06,2.07,4.06,5.25
				c0,3.53-2.11,5.57-4.4,5.57c-0.92,0-1.81-0.41-2.65-1.13l0.08,1.71v3.25h-2.42V122.46z M862.47,127.49
				c0-2.06-0.67-3.28-2.24-3.28c-0.75,0-1.45,0.38-2.25,1.16v4.8c0.74,0.63,1.47,0.86,2.07,0.86
				C861.42,131.03,862.47,129.82,862.47,127.49z"/>
			<path class="st44" d="M866.72,127.63c0-3.35,2.33-5.42,4.75-5.42c2.79,0,4.26,2.02,4.26,4.9c0,0.46-0.05,0.92-0.1,1.18h-6.55
				c0.2,1.83,1.38,2.87,3.04,2.87c0.88,0,1.64-0.28,2.39-0.75l0.82,1.5c-0.98,0.66-2.23,1.12-3.54,1.12
				C868.96,133.03,866.72,131.03,866.72,127.63z M873.64,126.64c0-1.59-0.71-2.55-2.12-2.55c-1.2,0-2.26,0.9-2.47,2.55H873.64z"/>
			<path class="st44" d="M877.37,127.63c0-3.43,2.43-5.42,5.17-5.42c1.31,0,2.27,0.5,3.01,1.16l-1.18,1.57
				c-0.55-0.48-1.07-0.76-1.71-0.76c-1.66,0-2.81,1.38-2.81,3.44c0,2.07,1.13,3.43,2.74,3.43c0.81,0,1.55-0.39,2.13-0.89l0.98,1.6
				c-0.97,0.86-2.19,1.27-3.37,1.27C879.53,133.03,877.37,131.05,877.37,127.63z"/>
			<path class="st44" d="M888.11,129.3v-4.91h-1.47v-1.81l1.6-0.11l0.29-2.81h2.01v2.81h2.63v1.92h-2.63v4.91
				c0,1.21,0.47,1.81,1.46,1.81c0.35,0,0.77-0.12,1.07-0.23l0.41,1.78c-0.56,0.18-1.28,0.38-2.11,0.38
				C889,133.03,888.11,131.52,888.11,129.3z"/>
			<path class="st44" d="M894.65,127.63c0-3.43,2.33-5.42,4.9-5.42s4.9,1.98,4.9,5.42c0,3.42-2.33,5.4-4.9,5.4
				S894.65,131.05,894.65,127.63z M901.98,127.63c0-2.07-0.91-3.44-2.42-3.44s-2.42,1.38-2.42,3.44c0,2.07,0.91,3.43,2.42,3.43
				S901.98,129.69,901.98,127.63z"/>
			<path class="st44" d="M906.86,122.46h1.98l0.18,1.41h0.07c0.87-0.91,1.87-1.66,3.17-1.66c1.51,0,2.37,0.69,2.85,1.85
				c0.99-1.05,2.01-1.85,3.32-1.85c2.18,0,3.18,1.5,3.18,4.1v6.47h-2.42v-6.16c0-1.7-0.5-2.33-1.59-2.33
				c-0.65,0-1.36,0.42-2.16,1.28v7.21h-2.42v-6.16c0-1.7-0.5-2.33-1.59-2.33c-0.64,0-1.36,0.42-2.16,1.28v7.21h-2.42V122.46z"/>
			<path class="st44" d="M923.9,136.8l0.44-1.87c0.2,0.06,0.5,0.14,0.74,0.14c1.08,0,1.71-0.74,2.06-1.77l0.19-0.65l-4.06-10.19
				h2.45l1.78,5.06c0.31,0.92,0.6,1.93,0.91,2.91h0.08c0.26-0.96,0.52-1.97,0.79-2.91l1.54-5.06h2.33l-3.73,10.78
				c-0.86,2.32-1.94,3.76-4.19,3.76C924.68,137.01,924.28,136.93,923.9,136.8z"/>
			<path class="st44" d="M795.9,148.29c0-0.81,0.64-1.37,1.5-1.37c0.86,0,1.49,0.55,1.49,1.37c0,0.8-0.64,1.37-1.49,1.37
				C796.54,149.66,795.9,149.09,795.9,148.29z M796.17,151.46h2.42v10.31h-2.42V151.46z"/>
			<path class="st44" d="M800.65,160.59l1.13-1.54c0.92,0.71,1.8,1.15,2.85,1.15c1.13,0,1.65-0.53,1.65-1.23
				c0-0.86-1.12-1.25-2.22-1.67c-1.35-0.51-2.9-1.28-2.9-3.01c0-1.79,1.44-3.08,3.75-3.08c1.44,0,2.59,0.58,3.43,1.23l-1.11,1.49
				c-0.72-0.53-1.45-0.9-2.26-0.9c-1.04,0-1.53,0.5-1.53,1.14c0,0.81,1.04,1.13,2.16,1.54c1.39,0.52,2.96,1.19,2.96,3.12
				c0,1.77-1.4,3.2-4.01,3.2C803.15,162.03,801.66,161.42,800.65,160.59z"/>
			<path class="st44" d="M817.11,160.69h-0.07l-0.21,1.08h-1.91v-14.83h2.42v3.84l-0.07,1.71c0.86-0.76,1.92-1.29,2.98-1.29
				c2.58,0,4.07,2.07,4.07,5.24c0,3.54-2.11,5.58-4.4,5.58C818.98,162.03,817.98,161.55,817.11,160.69z M821.84,156.49
				c0-2.06-0.67-3.28-2.24-3.28c-0.75,0-1.47,0.38-2.25,1.16v4.8c0.72,0.63,1.47,0.86,2.07,0.86
				C820.79,160.03,821.84,158.82,821.84,156.49z"/>
			<path class="st44" d="M826.07,156.63c0-3.35,2.33-5.42,4.75-5.42c2.79,0,4.26,2.02,4.26,4.9c0,0.46-0.05,0.92-0.1,1.18h-6.55
				c0.2,1.83,1.38,2.87,3.04,2.87c0.88,0,1.64-0.28,2.39-0.75l0.82,1.5c-0.98,0.66-2.23,1.12-3.54,1.12
				C828.3,162.03,826.07,160.03,826.07,156.63z M832.99,155.64c0-1.59-0.71-2.55-2.12-2.55c-1.2,0-2.26,0.9-2.47,2.55H832.99z"/>
			<path class="st44" d="M837.76,158.3v-4.91h-1.47v-1.81l1.6-0.11l0.29-2.81h2.01v2.81h2.63v1.92h-2.63v4.91
				c0,1.21,0.47,1.81,1.46,1.81c0.35,0,0.77-0.12,1.07-0.23l0.41,1.78c-0.56,0.18-1.28,0.38-2.11,0.38
				C838.64,162.03,837.76,160.52,837.76,158.3z"/>
			<path class="st44" d="M845.34,158.3v-4.91h-1.47v-1.81l1.6-0.11l0.29-2.81h2.01v2.81h2.63v1.92h-2.63v4.91
				c0,1.21,0.47,1.81,1.46,1.81c0.35,0,0.77-0.12,1.07-0.23l0.41,1.78c-0.56,0.18-1.28,0.38-2.11,0.38
				C846.22,162.03,845.34,160.52,845.34,158.3z"/>
			<path class="st44" d="M851.88,156.63c0-3.35,2.33-5.42,4.75-5.42c2.79,0,4.26,2.02,4.26,4.9c0,0.46-0.05,0.92-0.1,1.18h-6.55
				c0.2,1.83,1.38,2.87,3.04,2.87c0.88,0,1.64-0.28,2.39-0.75l0.82,1.5c-0.98,0.66-2.23,1.12-3.54,1.12
				C854.11,162.03,851.88,160.03,851.88,156.63z M858.8,155.64c0-1.59-0.71-2.55-2.12-2.55c-1.2,0-2.26,0.9-2.47,2.55H858.8z"/>
			<path class="st44" d="M863.21,151.46h1.98l0.18,1.84h0.07c0.73-1.34,1.83-2.09,2.93-2.09c0.52,0,0.86,0.07,1.17,0.21l-0.42,2.1
				c-0.36-0.1-0.63-0.17-1.06-0.17c-0.82,0-1.81,0.56-2.44,2.13v6.29h-2.42V151.46z"/>
			<path class="st44" d="M874.26,151.57l1.51-0.11h4.31v1.92h-5.82V151.57z M875.65,150.4c0-2.14,0.98-3.7,3.42-3.7
				c0.75,0,1.43,0.18,1.89,0.36l-0.46,1.81c-0.37-0.16-0.76-0.24-1.12-0.24c-0.86,0-1.31,0.54-1.31,1.74v11.42h-2.42V150.4z"/>
			<path class="st44" d="M881.21,156.63c0-3.43,2.33-5.42,4.9-5.42s4.9,1.98,4.9,5.42c0,3.42-2.33,5.4-4.9,5.4
				S881.21,160.05,881.21,156.63z M888.54,156.63c0-2.07-0.91-3.44-2.42-3.44s-2.42,1.38-2.42,3.44c0,2.07,0.91,3.43,2.42,3.43
				S888.54,158.69,888.54,156.63z"/>
			<path class="st44" d="M893.42,151.46h1.98l0.18,1.84h0.07c0.73-1.34,1.83-2.09,2.93-2.09c0.52,0,0.86,0.07,1.17,0.21l-0.42,2.1
				c-0.36-0.1-0.63-0.17-1.06-0.17c-0.82,0-1.81,0.56-2.44,2.13v6.29h-2.42V151.46z"/>
			<path class="st44" d="M904.43,160.59l1.13-1.54c0.92,0.71,1.8,1.15,2.85,1.15c1.13,0,1.65-0.53,1.65-1.23
				c0-0.86-1.12-1.25-2.22-1.67c-1.35-0.51-2.9-1.28-2.9-3.01c0-1.79,1.44-3.08,3.75-3.08c1.44,0,2.59,0.58,3.43,1.23l-1.11,1.49
				c-0.72-0.53-1.45-0.9-2.26-0.9c-1.04,0-1.53,0.5-1.53,1.14c0,0.81,1.04,1.13,2.16,1.54c1.39,0.52,2.96,1.19,2.96,3.12
				c0,1.77-1.4,3.2-4.01,3.2C906.93,162.03,905.44,161.42,904.43,160.59z"/>
			<path class="st44" d="M914.51,151.46h1.98l0.18,1.41h0.07c0.87-0.91,1.87-1.66,3.17-1.66c1.51,0,2.37,0.69,2.85,1.85
				c0.99-1.05,2.01-1.85,3.32-1.85c2.18,0,3.18,1.5,3.18,4.1v6.47h-2.42v-6.16c0-1.7-0.5-2.33-1.59-2.33
				c-0.65,0-1.36,0.42-2.16,1.28v7.21h-2.42v-6.16c0-1.7-0.5-2.33-1.59-2.33c-0.64,0-1.36,0.42-2.16,1.28v7.21h-2.42V151.46z"/>
			<path class="st44" d="M931.65,159c0-2.21,1.83-3.36,6.06-3.81c-0.03-1.11-0.48-2.03-1.87-2.03c-1.02,0-1.99,0.46-2.9,1.02
				l-0.89-1.61c1.13-0.71,2.6-1.35,4.23-1.35c2.58,0,3.85,1.59,3.85,4.46v6.11h-1.98l-0.18-1.14h-0.07
				c-0.92,0.79-1.98,1.39-3.2,1.39C932.9,162.03,931.65,160.8,931.65,159z M937.72,159.01v-2.32c-2.8,0.35-3.73,1.08-3.73,2.13
				c0,0.91,0.62,1.31,1.49,1.31C936.32,160.13,936.95,159.72,937.72,159.01z"/>
			<path class="st44" d="M943.04,159.12v-12.18h2.42v12.3c0,0.6,0.27,0.81,0.52,0.81c0.11,0,0.19,0,0.38-0.04l0.3,1.81
				c-0.29,0.12-0.7,0.21-1.28,0.21C943.67,162.03,943.04,160.92,943.04,159.12z"/>
			<path class="st44" d="M948.74,159.12v-12.18h2.42v12.3c0,0.6,0.27,0.81,0.52,0.81c0.11,0,0.19,0,0.38-0.04l0.3,1.81
				c-0.29,0.12-0.7,0.21-1.28,0.21C949.37,162.03,948.74,160.92,948.74,159.12z"/>
			<path class="st44" d="M842.98,187.3v-4.91h-1.47v-1.81l1.6-0.11l0.29-2.81h2.01v2.81h2.63v1.92h-2.63v4.91
				c0,1.21,0.47,1.81,1.46,1.81c0.35,0,0.77-0.12,1.07-0.23l0.41,1.78c-0.56,0.18-1.28,0.38-2.11,0.38
				C843.86,191.03,842.98,189.52,842.98,187.3z"/>
			<path class="st44" d="M850.08,186.93v-6.47h2.42v6.16c0,1.7,0.49,2.33,1.6,2.33c0.91,0,1.5-0.42,2.28-1.43v-7.06h2.42v10.31
				h-1.98l-0.18-1.52h-0.07c-0.91,1.07-1.91,1.77-3.32,1.77C851.04,191.03,850.08,189.53,850.08,186.93z"/>
			<path class="st44" d="M861.87,180.46h1.98l0.18,1.41h0.07c0.87-0.91,1.87-1.66,3.17-1.66c1.51,0,2.37,0.69,2.85,1.85
				c0.99-1.05,2.01-1.85,3.32-1.85c2.18,0,3.18,1.5,3.18,4.1v6.47h-2.42v-6.16c0-1.7-0.5-2.33-1.59-2.33
				c-0.65,0-1.36,0.42-2.16,1.28v7.21h-2.42v-6.16c0-1.7-0.5-2.33-1.59-2.33c-0.64,0-1.36,0.42-2.16,1.28v7.21h-2.42V180.46z"/>
			<path class="st44" d="M878.89,185.63c0-3.43,2.33-5.42,4.9-5.42s4.9,1.98,4.9,5.42c0,3.42-2.33,5.4-4.9,5.4
				S878.89,189.05,878.89,185.63z M886.22,185.63c0-2.07-0.91-3.44-2.42-3.44s-2.42,1.38-2.42,3.44c0,2.07,0.91,3.43,2.42,3.43
				S886.22,187.69,886.22,185.63z"/>
			<path class="st44" d="M891.1,180.46h1.98l0.18,1.84h0.07c0.73-1.34,1.83-2.09,2.93-2.09c0.52,0,0.86,0.07,1.17,0.21l-0.42,2.1
				c-0.36-0.1-0.63-0.17-1.06-0.17c-0.82,0-1.81,0.56-2.44,2.13v6.29h-2.42V180.46z"/>
			<path class="st44" d="M897.91,189.59l1.13-1.54c0.92,0.71,1.8,1.15,2.85,1.15c1.13,0,1.65-0.53,1.65-1.23
				c0-0.86-1.12-1.25-2.22-1.67c-1.35-0.51-2.9-1.28-2.9-3.01c0-1.79,1.44-3.08,3.75-3.08c1.44,0,2.59,0.58,3.43,1.23l-1.11,1.49
				c-0.72-0.53-1.45-0.9-2.26-0.9c-1.04,0-1.53,0.5-1.53,1.14c0,0.81,1.04,1.13,2.16,1.54c1.39,0.52,2.96,1.19,2.96,3.12
				c0,1.77-1.4,3.2-4.01,3.2C900.41,191.03,898.92,190.42,897.91,189.59z"/>
		</g>
	</g>
	<g>
		<g>
			<path class="st44" d="M1280.18,177.06l1.78-2.12c0.97,0.85,2.24,1.43,3.36,1.43c1.29,0,1.92-0.51,1.92-1.32
				c0-0.86-0.78-1.14-1.97-1.63l-1.78-0.76c-1.42-0.58-2.76-1.74-2.76-3.73c0-2.27,2.03-4.08,4.87-4.08c1.58,0,3.22,0.62,4.4,1.79
				l-1.56,1.95c-0.9-0.69-1.76-1.07-2.84-1.07c-1.07,0-1.75,0.44-1.75,1.23c0,0.84,0.9,1.14,2.09,1.62l1.74,0.71
				c1.67,0.68,2.71,1.79,2.71,3.72c0,2.27-1.89,4.24-5.16,4.24C1283.47,179.03,1281.58,178.36,1280.18,177.06z"/>
			<path class="st44" d="M1292,175.89c0-2.19,1.75-3.38,5.87-3.82c-0.06-0.91-0.52-1.51-1.65-1.51c-0.87,0-1.75,0.37-2.76,0.94
				l-1.1-2.03c1.32-0.81,2.81-1.37,4.45-1.37c2.66,0,4.14,1.52,4.14,4.71v5.96h-2.52l-0.22-1.07h-0.08
				c-0.88,0.77-1.86,1.32-3.03,1.32C1293.21,179.03,1292,177.65,1292,175.89z M1297.87,175.76v-1.82c-2.2,0.3-2.91,0.92-2.91,1.71
				c0,0.67,0.46,1,1.2,1C1296.85,176.65,1297.32,176.3,1297.87,175.76z"/>
			<path class="st44" d="M1303.97,175v-4.21h-1.42v-2.3l1.6-0.12l0.36-2.77h2.55v2.77h2.5v2.42h-2.5v4.17
				c0,1.18,0.54,1.65,1.35,1.65c0.34,0,0.72-0.1,0.99-0.2l0.49,2.24c-0.55,0.18-1.3,0.38-2.31,0.38
				C1304.99,179.03,1303.97,177.41,1303.97,175z"/>
			<path class="st44" d="M1311.35,165.23c0-0.95,0.75-1.61,1.79-1.61c1.04,0,1.79,0.67,1.79,1.61c0,0.94-0.75,1.61-1.79,1.61
				C1312.1,166.84,1311.35,166.17,1311.35,165.23z M1311.59,168.37h3.09v10.42h-3.09V168.37z"/>
			<path class="st44" d="M1317.39,168.37h2.52l0.22,1.32h0.08c0.88-0.84,1.93-1.57,3.35-1.57c2.27,0,3.23,1.6,3.23,4.2v6.47h-3.09
				v-6.07c0-1.5-0.4-1.97-1.29-1.97c-0.78,0-1.25,0.36-1.93,1.01v7.03h-3.09V168.37z"/>
			<path class="st44" d="M1332.68,177.58l1.39-1.92c0.94,0.71,1.82,1.09,2.69,1.09c0.92,0,1.32-0.35,1.32-0.9
				c0-0.69-1.03-1-2.1-1.42c-1.28-0.49-2.76-1.34-2.76-3.06c0-1.94,1.58-3.26,3.98-3.26c1.6,0,2.78,0.64,3.67,1.32l-1.38,1.85
				c-0.74-0.54-1.47-0.89-2.19-0.89c-0.8,0-1.19,0.31-1.19,0.83c0,0.66,0.98,0.92,2.05,1.31c1.32,0.49,2.81,1.23,2.81,3.13
				c0,1.89-1.49,3.36-4.28,3.36C1335.31,179.03,1333.73,178.44,1332.68,177.58z"/>
			<path class="st44" d="M1342.9,164.07h3.09v3.59l-0.14,1.89c0.78-0.71,1.8-1.44,3.22-1.44c2.27,0,3.23,1.6,3.23,4.2v6.47h-3.09
				v-6.07c0-1.5-0.4-1.97-1.29-1.97c-0.78,0-1.25,0.36-1.93,1.01v7.03h-3.09V164.07z"/>
			<path class="st44" d="M1354.29,173.58c0-3.38,2.41-5.46,4.91-5.46c2.97,0,4.44,2.16,4.44,5c0,0.56-0.07,1.11-0.13,1.36h-6.23
				c0.28,1.51,1.31,2.2,2.7,2.2c0.79,0,1.5-0.24,2.25-0.68l1.02,1.86c-1.07,0.74-2.46,1.17-3.7,1.17
				C1356.59,179.03,1354.29,177.03,1354.29,173.58z M1361,172.44c0-1.15-0.5-1.97-1.73-1.97c-0.98,0-1.82,0.65-2.03,1.97H1361z"/>
			<path class="st44" d="M1365.17,173.58c0-3.38,2.41-5.46,4.91-5.46c2.97,0,4.44,2.16,4.44,5c0,0.56-0.07,1.11-0.13,1.36h-6.23
				c0.28,1.51,1.31,2.2,2.7,2.2c0.79,0,1.5-0.24,2.25-0.68l1.02,1.86c-1.07,0.74-2.46,1.17-3.7,1.17
				C1367.47,179.03,1365.17,177.03,1365.17,173.58z M1371.88,172.44c0-1.15-0.5-1.97-1.73-1.97c-0.98,0-1.82,0.65-2.03,1.97H1371.88
				z"/>
			<path class="st44" d="M1377.07,175v-4.21h-1.42v-2.3l1.6-0.12l0.36-2.77h2.55v2.77h2.5v2.42h-2.5v4.17
				c0,1.18,0.54,1.65,1.35,1.65c0.34,0,0.72-0.1,0.99-0.2l0.49,2.24c-0.55,0.18-1.3,0.38-2.31,0.38
				C1378.09,179.03,1377.07,177.41,1377.07,175z"/>
			<path class="st44" d="M1383.77,177.58l1.39-1.92c0.94,0.71,1.82,1.09,2.69,1.09c0.92,0,1.32-0.35,1.32-0.9
				c0-0.69-1.03-1-2.1-1.42c-1.28-0.49-2.76-1.34-2.76-3.06c0-1.94,1.58-3.26,3.98-3.26c1.6,0,2.78,0.64,3.67,1.32l-1.38,1.85
				c-0.74-0.54-1.47-0.89-2.19-0.89c-0.8,0-1.19,0.31-1.19,0.83c0,0.66,0.98,0.92,2.05,1.31c1.32,0.49,2.81,1.23,2.81,3.13
				c0,1.89-1.49,3.36-4.28,3.36C1386.4,179.03,1384.83,178.44,1383.77,177.58z"/>
			<path class="st44" d="M1266.9,201.09c0-2.19,1.75-3.38,5.87-3.82c-0.06-0.91-0.52-1.51-1.65-1.51c-0.87,0-1.75,0.37-2.76,0.94
				l-1.1-2.03c1.32-0.81,2.81-1.37,4.45-1.37c2.66,0,4.14,1.52,4.14,4.71v5.96h-2.52l-0.22-1.07h-0.08
				c-0.88,0.77-1.86,1.32-3.03,1.32C1268.1,204.23,1266.9,202.85,1266.9,201.09z M1272.77,200.96v-1.82
				c-2.19,0.3-2.91,0.92-2.91,1.71c0,0.67,0.46,1,1.2,1C1271.75,201.85,1272.22,201.5,1272.77,200.96z"/>
			<path class="st44" d="M1278.45,193.57h2.52l0.22,1.82h0.08c0.76-1.39,1.9-2.07,2.96-2.07c0.6,0,0.94,0.08,1.24,0.21l-0.51,2.66
				c-0.37-0.09-0.68-0.17-1.12-0.17c-0.79,0-1.74,0.51-2.29,1.93v6.04h-3.09V193.57z"/>
			<path class="st44" d="M1286.2,198.78c0-3.38,2.41-5.46,4.91-5.46c2.97,0,4.44,2.16,4.44,5c0,0.56-0.07,1.11-0.13,1.36h-6.23
				c0.28,1.51,1.31,2.2,2.7,2.2c0.79,0,1.5-0.24,2.25-0.68l1.02,1.86c-1.07,0.74-2.46,1.17-3.7,1.17
				C1288.5,204.23,1286.2,202.23,1286.2,198.78z M1292.91,197.64c0-1.15-0.5-1.97-1.73-1.97c-0.98,0-1.82,0.65-2.03,1.97H1292.91z"
				/>
			<path class="st44" d="M1304.63,202.87h-0.08l-0.26,1.11h-2.41v-14.71h3.09v3.59l-0.08,1.6c0.79-0.71,1.77-1.15,2.76-1.15
				c2.52,0,4.08,2.08,4.08,5.28c0,3.59-2.13,5.64-4.38,5.64C1306.42,204.23,1305.46,203.77,1304.63,202.87z M1308.57,198.65
				c0-1.87-0.58-2.81-1.81-2.81c-0.63,0-1.19,0.28-1.79,0.93v4.28c0.55,0.49,1.14,0.66,1.66,0.66
				C1307.71,201.71,1308.57,200.8,1308.57,198.65z"/>
			<path class="st44" d="M1313.31,198.78c0-3.38,2.41-5.46,4.91-5.46c2.97,0,4.44,2.16,4.44,5c0,0.56-0.07,1.11-0.13,1.36h-6.23
				c0.28,1.51,1.31,2.2,2.7,2.2c0.79,0,1.5-0.24,2.25-0.68l1.02,1.86c-1.07,0.74-2.46,1.17-3.7,1.17
				C1315.61,204.23,1313.31,202.23,1313.31,198.78z M1320.02,197.64c0-1.15-0.5-1.97-1.73-1.97c-0.98,0-1.82,0.65-2.03,1.97H1320.02
				z"/>
			<path class="st44" d="M1325.21,200.2v-4.21h-1.42v-2.3l1.6-0.12l0.36-2.77h2.55v2.77h2.5v2.42h-2.5v4.17
				c0,1.18,0.54,1.65,1.35,1.65c0.34,0,0.72-0.1,0.99-0.2l0.49,2.24c-0.55,0.18-1.3,0.38-2.31,0.38
				C1326.23,204.23,1325.21,202.61,1325.21,200.2z"/>
			<path class="st44" d="M1333.25,200.2v-4.21h-1.42v-2.3l1.6-0.12l0.36-2.77h2.55v2.77h2.5v2.42h-2.5v4.17
				c0,1.18,0.54,1.65,1.35,1.65c0.34,0,0.72-0.1,0.99-0.2l0.49,2.24c-0.55,0.18-1.3,0.38-2.31,0.38
				C1334.28,204.23,1333.25,202.61,1333.25,200.2z"/>
			<path class="st44" d="M1340.27,198.78c0-3.38,2.41-5.46,4.91-5.46c2.97,0,4.44,2.16,4.44,5c0,0.56-0.07,1.11-0.13,1.36h-6.23
				c0.28,1.51,1.31,2.2,2.7,2.2c0.79,0,1.5-0.24,2.25-0.68l1.02,1.86c-1.07,0.74-2.46,1.17-3.7,1.17
				C1342.57,204.23,1340.27,202.23,1340.27,198.78z M1346.99,197.64c0-1.15-0.5-1.97-1.73-1.97c-0.98,0-1.82,0.65-2.03,1.97H1346.99
				z"/>
			<path class="st44" d="M1351.76,193.57h2.52l0.22,1.82h0.08c0.76-1.39,1.9-2.07,2.96-2.07c0.6,0,0.94,0.08,1.24,0.21l-0.51,2.66
				c-0.37-0.09-0.68-0.17-1.12-0.17c-0.79,0-1.74,0.51-2.29,1.93v6.04h-3.09V193.57z"/>
			<path class="st44" d="M1364.73,200.2v-4.21h-1.42v-2.3l1.6-0.12l0.36-2.77h2.55v2.77h2.5v2.42h-2.5v4.17
				c0,1.18,0.54,1.65,1.35,1.65c0.34,0,0.72-0.1,0.99-0.2l0.49,2.24c-0.55,0.18-1.3,0.38-2.31,0.38
				C1365.75,204.23,1364.73,202.61,1364.73,200.2z"/>
			<path class="st44" d="M1372.36,189.27h3.09v3.59l-0.14,1.89c0.78-0.71,1.8-1.44,3.22-1.44c2.27,0,3.23,1.6,3.23,4.2v6.47h-3.09
				v-6.07c0-1.5-0.4-1.97-1.29-1.97c-0.78,0-1.25,0.36-1.93,1.01v7.03h-3.09V189.27z"/>
			<path class="st44" d="M1383.87,201.09c0-2.19,1.75-3.38,5.87-3.82c-0.06-0.91-0.52-1.51-1.65-1.51c-0.87,0-1.75,0.37-2.76,0.94
				l-1.1-2.03c1.32-0.81,2.81-1.37,4.45-1.37c2.66,0,4.14,1.52,4.14,4.71v5.96h-2.52l-0.22-1.07H1390
				c-0.88,0.77-1.86,1.32-3.03,1.32C1385.07,204.23,1383.87,202.85,1383.87,201.09z M1389.73,200.96v-1.82
				c-2.19,0.3-2.91,0.92-2.91,1.71c0,0.67,0.46,1,1.2,1C1388.72,201.85,1389.19,201.5,1389.73,200.96z"/>
			<path class="st44" d="M1395.42,193.57h2.52l0.22,1.32h0.08c0.88-0.84,1.93-1.57,3.35-1.57c2.27,0,3.23,1.6,3.23,4.2v6.47h-3.09
				v-6.07c0-1.5-0.4-1.97-1.29-1.97c-0.78,0-1.25,0.36-1.93,1.01v7.03h-3.09V193.57z"/>
			<path class="st44" d="M1306.19,223.98c0-3.46,2.55-5.46,5.43-5.46c1.28,0,2.27,0.46,3.04,1.12l-1.46,1.98
				c-0.5-0.42-0.92-0.61-1.41-0.61c-1.48,0-2.44,1.17-2.44,2.97s0.99,2.97,2.33,2.97c0.68,0,1.34-0.34,1.88-0.77l1.21,2.02
				c-1.01,0.89-2.3,1.24-3.43,1.24C1308.43,229.44,1306.19,227.43,1306.19,223.98z"/>
			<path class="st44" d="M1316,223.98c0-3.46,2.44-5.46,5.07-5.46s5.07,2,5.07,5.46c0,3.46-2.44,5.46-5.07,5.46
				S1316,227.43,1316,223.98z M1322.98,223.98c0-1.8-0.63-2.97-1.91-2.97c-1.28,0-1.91,1.17-1.91,2.97s0.63,2.97,1.91,2.97
				C1322.35,226.94,1322.98,225.78,1322.98,223.98z"/>
			<path class="st44" d="M1328.67,225.4v-4.21h-1.42v-2.3l1.6-0.12l0.36-2.77h2.55v2.77h2.5v2.42h-2.5v4.17
				c0,1.18,0.54,1.65,1.35,1.65c0.34,0,0.72-0.1,0.99-0.2l0.49,2.24c-0.55,0.18-1.3,0.38-2.31,0.38
				C1329.7,229.44,1328.67,227.81,1328.67,225.4z"/>
			<path class="st44" d="M1336.72,225.4v-4.21h-1.42v-2.3l1.6-0.12l0.36-2.77h2.55v2.77h2.5v2.42h-2.5v4.17
				c0,1.18,0.54,1.65,1.35,1.65c0.34,0,0.72-0.1,0.99-0.2l0.49,2.24c-0.55,0.18-1.3,0.38-2.31,0.38
				C1337.74,229.44,1336.72,227.81,1336.72,225.4z"/>
			<path class="st44" d="M1343.74,223.98c0-3.46,2.44-5.46,5.07-5.46s5.07,2,5.07,5.46c0,3.46-2.44,5.46-5.07,5.46
				S1343.74,227.43,1343.74,223.98z M1350.72,223.98c0-1.8-0.63-2.97-1.91-2.97s-1.91,1.17-1.91,2.97s0.63,2.97,1.91,2.97
				S1350.72,225.78,1350.72,223.98z"/>
			<path class="st44" d="M1356,218.77h2.52l0.22,1.32h0.08c0.88-0.84,1.93-1.57,3.35-1.57c2.27,0,3.23,1.6,3.23,4.2v6.47h-3.09
				v-6.07c0-1.5-0.4-1.97-1.29-1.97c-0.78,0-1.25,0.36-1.93,1.01v7.03H1356V218.77z"/>
		</g>
	</g>
	<g>
		<g>
			<path class="st44" d="M140.33,131.02h2.44v5.52h5.55v-5.52h2.44v13.73h-2.44v-6.09h-5.55v6.09h-2.44V131.02z"/>
			<path class="st44" d="M153.49,141.98c0-2.21,1.83-3.36,6.06-3.81c-0.03-1.11-0.48-2.03-1.87-2.03c-1.02,0-1.99,0.46-2.9,1.02
				l-0.89-1.61c1.13-0.71,2.6-1.35,4.23-1.35c2.58,0,3.85,1.59,3.85,4.46v6.11h-1.98l-0.18-1.14h-0.07
				c-0.92,0.79-1.98,1.39-3.2,1.39C154.73,145,153.49,143.78,153.49,141.98z M159.56,141.99v-2.32c-2.8,0.35-3.73,1.08-3.73,2.13
				c0,0.91,0.62,1.31,1.49,1.31C158.15,143.1,158.79,142.69,159.56,141.99z"/>
			<path class="st44" d="M163.6,134.44h2.45l1.64,5.35c0.29,1.02,0.59,2.07,0.87,3.11h0.08c0.29-1.03,0.59-2.09,0.87-3.11l1.64-5.35
				h2.33l-3.5,10.31h-2.8L163.6,134.44z"/>
			<path class="st44" d="M175,131.26c0-0.81,0.64-1.37,1.5-1.37c0.86,0,1.49,0.55,1.49,1.37c0,0.8-0.64,1.37-1.49,1.37
				C175.64,132.63,175,132.06,175,131.26z M175.28,134.44h2.42v10.31h-2.42V134.44z"/>
			<path class="st44" d="M180.78,134.44h1.98l0.18,1.39h0.07c0.92-0.9,1.97-1.65,3.38-1.65c2.21,0,3.17,1.5,3.17,4.1v6.47h-2.42
				v-6.16c0-1.7-0.49-2.33-1.6-2.33c-0.91,0-1.5,0.44-2.35,1.28v7.21h-2.42V134.44z"/>
			<path class="st44" d="M191.83,146.62c0-0.87,0.54-1.63,1.49-2.2v-0.08c-0.53-0.34-0.93-0.89-0.93-1.72c0-0.8,0.55-1.5,1.14-1.92
				v-0.08c-0.71-0.52-1.36-1.5-1.36-2.72c0-2.37,1.91-3.7,4.07-3.7c0.57,0,1.11,0.1,1.53,0.25h3.69v1.8h-1.88
				c0.34,0.39,0.59,1.02,0.59,1.73c0,2.29-1.74,3.52-3.92,3.52c-0.44,0-0.93-0.09-1.39-0.27c-0.31,0.26-0.5,0.52-0.5,0.99
				c0,0.58,0.42,0.93,1.67,0.93h1.84c2.46,0,3.77,0.76,3.77,2.54c0,2.03-2.13,3.64-5.5,3.64
				C193.66,149.31,191.83,148.43,191.83,146.62z M199.29,146.07c0-0.8-0.64-1.03-1.82-1.03h-1.42c-0.55,0-1-0.04-1.39-0.14
				c-0.55,0.42-0.8,0.88-0.8,1.36c0,0.94,1.01,1.49,2.63,1.49C198.16,147.74,199.29,146.96,199.29,146.07z M198.03,137.89
				c0-1.29-0.78-2.03-1.79-2.03s-1.79,0.73-1.79,2.03c0,1.31,0.8,2.07,1.79,2.07C197.23,139.96,198.03,139.2,198.03,137.89z"/>
			<path class="st44" d="M207.1,141.98c0-2.21,1.83-3.36,6.06-3.81c-0.03-1.11-0.48-2.03-1.87-2.03c-1.02,0-1.99,0.46-2.9,1.02
				l-0.89-1.61c1.13-0.71,2.6-1.35,4.23-1.35c2.58,0,3.85,1.59,3.85,4.46v6.11h-1.98l-0.18-1.14h-0.07
				c-0.92,0.79-1.98,1.39-3.2,1.39C208.35,145,207.1,143.78,207.1,141.98z M213.17,141.99v-2.32c-2.8,0.35-3.73,1.08-3.73,2.13
				c0,0.91,0.62,1.31,1.49,1.31C211.76,143.1,212.4,142.69,213.17,141.99z"/>
			<path class="st44" d="M108.29,168.77l1.13-1.54c0.92,0.71,1.8,1.15,2.85,1.15c1.13,0,1.65-0.53,1.65-1.23
				c0-0.86-1.12-1.25-2.22-1.67c-1.35-0.51-2.9-1.28-2.9-3.01c0-1.79,1.44-3.08,3.75-3.08c1.44,0,2.59,0.58,3.43,1.23l-1.11,1.49
				c-0.72-0.53-1.45-0.9-2.26-0.9c-1.04,0-1.53,0.5-1.53,1.14c0,0.81,1.04,1.13,2.16,1.54c1.39,0.52,2.96,1.19,2.96,3.12
				c0,1.77-1.4,3.2-4.01,3.2C110.79,170.2,109.3,169.6,108.29,168.77z"/>
			<path class="st44" d="M118.25,166.1v-6.47h2.42v6.16c0,1.7,0.49,2.33,1.6,2.33c0.91,0,1.5-0.42,2.28-1.43v-7.06h2.42v10.31h-1.98
				l-0.18-1.52h-0.07c-0.91,1.07-1.91,1.77-3.32,1.77C119.22,170.2,118.25,168.71,118.25,166.1z"/>
			<path class="st44" d="M130.04,159.64h1.98l0.18,1.1h0.07c0.87-0.75,1.97-1.35,3.11-1.35c2.58,0,4.06,2.07,4.06,5.25
				c0,3.53-2.11,5.57-4.4,5.57c-0.92,0-1.81-0.41-2.65-1.13l0.08,1.71v3.25h-2.42V159.64z M136.95,164.66
				c0-2.06-0.67-3.28-2.24-3.28c-0.75,0-1.45,0.38-2.25,1.16v4.8c0.74,0.63,1.47,0.86,2.07,0.86
				C135.9,168.2,136.95,166.99,136.95,164.66z"/>
			<path class="st44" d="M141.89,159.64h1.98l0.18,1.1h0.07c0.87-0.75,1.97-1.35,3.11-1.35c2.58,0,4.06,2.07,4.06,5.25
				c0,3.53-2.11,5.57-4.4,5.57c-0.92,0-1.81-0.41-2.65-1.13l0.08,1.71v3.25h-2.42V159.64z M148.8,164.66c0-2.06-0.67-3.28-2.24-3.28
				c-0.75,0-1.45,0.38-2.25,1.16v4.8c0.74,0.63,1.47,0.86,2.07,0.86C147.75,168.2,148.8,166.99,148.8,164.66z"/>
			<path class="st44" d="M153.05,164.8c0-3.43,2.33-5.42,4.9-5.42s4.9,1.98,4.9,5.42c0,3.42-2.33,5.4-4.9,5.4
				S153.05,168.22,153.05,164.8z M160.37,164.8c0-2.07-0.91-3.44-2.42-3.44s-2.42,1.38-2.42,3.44c0,2.07,0.91,3.43,2.42,3.43
				S160.37,166.87,160.37,164.8z"/>
			<path class="st44" d="M165.26,159.64h1.98l0.18,1.84h0.07c0.73-1.34,1.83-2.09,2.93-2.09c0.52,0,0.86,0.07,1.17,0.21l-0.42,2.1
				c-0.36-0.1-0.63-0.17-1.06-0.17c-0.82,0-1.81,0.56-2.44,2.13v6.29h-2.42V159.64z"/>
			<path class="st44" d="M173.45,166.47v-4.91h-1.47v-1.81l1.6-0.11l0.29-2.81h2.01v2.81h2.63v1.92h-2.63v4.91
				c0,1.21,0.47,1.81,1.46,1.81c0.35,0,0.77-0.12,1.07-0.23l0.41,1.78c-0.56,0.18-1.28,0.38-2.11,0.38
				C174.33,170.2,173.45,168.7,173.45,166.47z"/>
			<path class="st44" d="M183.85,168.77l1.13-1.54c0.92,0.71,1.8,1.15,2.85,1.15c1.13,0,1.65-0.53,1.65-1.23
				c0-0.86-1.12-1.25-2.22-1.67c-1.35-0.51-2.9-1.28-2.9-3.01c0-1.79,1.44-3.08,3.75-3.08c1.44,0,2.59,0.58,3.43,1.23l-1.11,1.49
				c-0.72-0.53-1.45-0.9-2.26-0.9c-1.04,0-1.53,0.5-1.53,1.14c0,0.81,1.04,1.13,2.16,1.54c1.39,0.52,2.96,1.19,2.96,3.12
				c0,1.77-1.4,3.2-4.01,3.2C186.34,170.2,184.86,169.6,183.85,168.77z"/>
			<path class="st44" d="M193.26,173.97l0.44-1.87c0.2,0.06,0.5,0.14,0.74,0.14c1.08,0,1.71-0.74,2.06-1.77l0.19-0.65l-4.06-10.19
				h2.45l1.78,5.06c0.31,0.92,0.6,1.93,0.91,2.91h0.08c0.26-0.96,0.52-1.97,0.79-2.91l1.54-5.06h2.33l-3.73,10.78
				c-0.86,2.32-1.94,3.76-4.19,3.76C194.04,174.18,193.64,174.1,193.26,173.97z"/>
			<path class="st44" d="M203.29,168.77l1.13-1.54c0.92,0.71,1.8,1.15,2.85,1.15c1.13,0,1.65-0.53,1.65-1.23
				c0-0.86-1.12-1.25-2.22-1.67c-1.35-0.51-2.9-1.28-2.9-3.01c0-1.79,1.44-3.08,3.75-3.08c1.44,0,2.59,0.58,3.43,1.23l-1.11,1.49
				c-0.72-0.53-1.45-0.9-2.26-0.9c-1.04,0-1.53,0.5-1.53,1.14c0,0.81,1.04,1.13,2.16,1.54c1.39,0.52,2.96,1.19,2.96,3.12
				c0,1.77-1.4,3.2-4.01,3.2C205.79,170.2,204.3,169.6,203.29,168.77z"/>
			<path class="st44" d="M213.73,166.47v-4.91h-1.47v-1.81l1.6-0.11l0.29-2.81h2.01v2.81h2.63v1.92h-2.63v4.91
				c0,1.21,0.47,1.81,1.46,1.81c0.35,0,0.77-0.12,1.07-0.23l0.41,1.78c-0.56,0.18-1.28,0.38-2.11,0.38
				C214.61,170.2,213.73,168.7,213.73,166.47z"/>
			<path class="st44" d="M220.27,164.8c0-3.35,2.33-5.42,4.75-5.42c2.79,0,4.26,2.02,4.26,4.9c0,0.46-0.05,0.92-0.1,1.18h-6.55
				c0.2,1.83,1.38,2.87,3.04,2.87c0.88,0,1.64-0.28,2.39-0.75l0.82,1.5c-0.98,0.66-2.23,1.12-3.54,1.12
				C222.5,170.2,220.27,168.2,220.27,164.8z M227.19,163.81c0-1.59-0.71-2.55-2.12-2.55c-1.2,0-2.26,0.9-2.47,2.55H227.19z"/>
			<path class="st44" d="M231.6,159.64h1.98l0.18,1.41h0.07c0.87-0.91,1.87-1.66,3.17-1.66c1.51,0,2.37,0.69,2.85,1.85
				c0.99-1.05,2.01-1.85,3.32-1.85c2.18,0,3.18,1.5,3.18,4.1v6.47h-2.42v-6.16c0-1.7-0.5-2.33-1.59-2.33
				c-0.65,0-1.36,0.42-2.16,1.28v7.21h-2.42v-6.16c0-1.7-0.5-2.33-1.59-2.33c-0.64,0-1.36,0.42-2.16,1.28v7.21h-2.42V159.64z"/>
			<path class="st44" d="M123.57,181.66c0-0.81,0.64-1.37,1.5-1.37c0.86,0,1.49,0.55,1.49,1.37c0,0.8-0.64,1.37-1.49,1.37
				C124.21,183.03,123.57,182.46,123.57,181.66z M123.85,184.84h2.42v10.31h-2.42V184.84z"/>
			<path class="st44" d="M128.33,193.97l1.13-1.54c0.92,0.71,1.8,1.15,2.85,1.15c1.13,0,1.65-0.53,1.65-1.23
				c0-0.86-1.12-1.25-2.22-1.67c-1.35-0.51-2.9-1.28-2.9-3.01c0-1.79,1.44-3.08,3.75-3.08c1.44,0,2.59,0.58,3.43,1.23l-1.11,1.49
				c-0.72-0.53-1.45-0.9-2.26-0.9c-1.04,0-1.53,0.5-1.53,1.14c0,0.81,1.04,1.13,2.16,1.54c1.39,0.52,2.96,1.19,2.96,3.12
				c0,1.77-1.4,3.2-4.01,3.2C130.82,195.4,129.33,194.8,128.33,193.97z"/>
			<path class="st44" d="M142.32,181.66c0-0.81,0.64-1.37,1.5-1.37c0.86,0,1.49,0.55,1.49,1.37c0,0.8-0.64,1.37-1.49,1.37
				C142.96,183.03,142.32,182.46,142.32,181.66z M142.6,184.84h2.42v10.31h-2.42V184.84z"/>
			<path class="st44" d="M148.1,184.84h1.98l0.18,1.41h0.07c0.87-0.91,1.87-1.66,3.17-1.66c1.51,0,2.37,0.69,2.85,1.85
				c0.99-1.05,2.01-1.85,3.32-1.85c2.18,0,3.18,1.5,3.18,4.1v6.47h-2.42v-6.16c0-1.7-0.5-2.33-1.59-2.33
				c-0.65,0-1.36,0.42-2.16,1.28v7.21h-2.42v-6.16c0-1.7-0.5-2.33-1.59-2.33c-0.64,0-1.36,0.42-2.16,1.28v7.21h-2.42V184.84z"/>
			<path class="st44" d="M165.81,184.84h1.98l0.18,1.1h0.07c0.87-0.75,1.97-1.35,3.11-1.35c2.58,0,4.06,2.07,4.06,5.25
				c0,3.53-2.11,5.57-4.4,5.57c-0.92,0-1.81-0.41-2.65-1.13l0.08,1.71v3.25h-2.42V184.84z M172.72,189.86
				c0-2.06-0.67-3.28-2.24-3.28c-0.75,0-1.45,0.38-2.25,1.16v4.8c0.74,0.63,1.47,0.86,2.07,0.86
				C171.67,193.4,172.72,192.19,172.72,189.86z"/>
			<path class="st44" d="M176.97,190c0-3.43,2.33-5.42,4.9-5.42s4.9,1.98,4.9,5.42c0,3.42-2.33,5.4-4.9,5.4
				S176.97,193.42,176.97,190z M184.29,190c0-2.07-0.91-3.44-2.42-3.44s-2.42,1.38-2.42,3.44c0,2.07,0.91,3.43,2.42,3.43
				S184.29,192.07,184.29,190z"/>
			<path class="st44" d="M189.18,184.84h1.98l0.18,1.84h0.07c0.73-1.34,1.83-2.09,2.93-2.09c0.52,0,0.86,0.07,1.17,0.21l-0.42,2.1
				c-0.36-0.1-0.63-0.17-1.06-0.17c-0.82,0-1.81,0.56-2.44,2.13v6.29h-2.42V184.84z"/>
			<path class="st44" d="M197.37,191.67v-4.91h-1.47v-1.81l1.6-0.11l0.29-2.81h2.01v2.81h2.63v1.92h-2.63v4.91
				c0,1.21,0.47,1.81,1.46,1.81c0.35,0,0.77-0.12,1.07-0.23l0.41,1.78c-0.56,0.18-1.28,0.38-2.11,0.38
				C198.25,195.4,197.37,193.9,197.37,191.67z"/>
			<path class="st44" d="M204.04,192.38c0-2.21,1.83-3.36,6.06-3.81c-0.03-1.11-0.48-2.03-1.87-2.03c-1.02,0-1.99,0.46-2.9,1.02
				l-0.89-1.61c1.13-0.71,2.6-1.35,4.23-1.35c2.58,0,3.85,1.59,3.85,4.46v6.11h-1.98l-0.18-1.14h-0.07
				c-0.92,0.79-1.98,1.39-3.2,1.39C205.28,195.4,204.04,194.18,204.04,192.38z M210.1,192.39v-2.32c-2.8,0.35-3.73,1.08-3.73,2.13
				c0,0.91,0.62,1.31,1.49,1.31C208.7,193.5,209.34,193.09,210.1,192.39z"/>
			<path class="st44" d="M215.43,184.84h1.98l0.18,1.39h0.07c0.92-0.9,1.97-1.65,3.38-1.65c2.21,0,3.17,1.5,3.17,4.1v6.47h-2.42
				v-6.16c0-1.7-0.49-2.33-1.6-2.33c-0.91,0-1.5,0.44-2.35,1.28v7.21h-2.42V184.84z"/>
			<path class="st44" d="M227.55,191.67v-4.91h-1.47v-1.81l1.6-0.11l0.29-2.81h2.01v2.81h2.63v1.92h-2.63v4.91
				c0,1.21,0.47,1.81,1.46,1.81c0.35,0,0.77-0.12,1.07-0.23l0.41,1.78c-0.56,0.18-1.28,0.38-2.11,0.38
				C228.43,195.4,227.55,193.9,227.55,191.67z"/>
		</g>
	</g>
</g>
</svg>
