<?xml version="1.0" encoding="utf-8"?>
<!-- Generator: Adobe Illustrator 23.0.1, SVG Export Plug-In . SVG Version: 6.00 Build 0)  -->
<svg version="1.1" xmlns="http://www.w3.org/2000/svg" xmlns:xlink="http://www.w3.org/1999/xlink" x="0px" y="0px"
	 viewBox="0 0 1440.42 485.35" style="enable-background:new 0 0 1440.42 485.35;" xml:space="preserve">
<style type="text/css">
	.st0{fill:#429973;}
	.st1{fill:#76B595;}
	.st2{fill:#9ECCB6;}
	.st3{fill:none;stroke:#000000;stroke-width:2;stroke-linecap:round;stroke-miterlimit:10;}
	.st4{fill:#7694B5;}
	.st5{fill:#417399;}
	.st6{fill:#9EB6CC;}
	.st7{fill:#9A4189;}
	.st8{fill:#B576A5;}
	.st9{fill:#CD9EC2;}
	.st10{fill:#6B429A;}
	.st11{fill:#9476B5;}
	.st12{fill:#B69ECB;}
	.st13{fill:#A1CC9E;}
	.st14{fill:#469945;}
	.st15{fill:#7AB576;}
	.st16{fill:#B5767F;}
	.st17{fill:#9A4155;}
	.st18{fill:#CD9EA6;}
	.st19{fill:#409992;}
	.st20{fill:#76B5B5;}
	.st21{fill:#9FCDCC;}
	.st22{fill:#42409A;}
	.st23{fill:#7775B7;}
	.st24{fill:#9E9BCC;}
	.st25{fill:#B476B2;}
	.st26{fill:#994395;}
	.st27{fill:#CC9EC9;}
	.st28{fill:#7676B4;}
	.st29{fill:#424399;}
	.st30{display:none;}
	.st31{display:inline;fill:none;stroke:#000000;stroke-width:5;stroke-linecap:round;stroke-miterlimit:10;}
	.st32{display:inline;stroke:#000000;stroke-width:5;stroke-linecap:round;stroke-linejoin:round;stroke-miterlimit:10;}
	.st33{display:inline;fill:none;stroke:#000000;stroke-width:5.4919;stroke-linecap:round;stroke-miterlimit:10;}
	.st34{display:inline;stroke:#000000;stroke-width:5.4919;stroke-linecap:round;stroke-linejoin:round;stroke-miterlimit:10;}
	.st35{display:inline;fill:none;stroke:#000000;stroke-width:4.2764;stroke-linecap:round;stroke-miterlimit:10;}
	.st36{display:inline;stroke:#000000;stroke-width:4.2764;stroke-linecap:round;stroke-linejoin:round;stroke-miterlimit:10;}
	.st37{fill:none;stroke:#000000;stroke-width:3;stroke-linecap:round;stroke-miterlimit:10;}
	.st38{fill:none;stroke:#000000;stroke-width:3.012;stroke-linecap:round;stroke-miterlimit:10;}
	.st39{fill:none;stroke:#000000;stroke-width:3.4684;stroke-linecap:round;stroke-miterlimit:10;}
	.st40{fill:none;stroke:#000000;stroke-width:2.6617;stroke-linecap:round;stroke-miterlimit:10;}
	.st41{fill:none;stroke:#000000;stroke-width:2.1927;stroke-linecap:round;stroke-miterlimit:10;}
	.st42{stroke:#000000;stroke-width:1.9987;stroke-linecap:round;stroke-miterlimit:10;}
	.st43{fill:none;stroke:#000000;stroke-width:1.5082;stroke-linecap:round;stroke-miterlimit:10;}
	.st44{stroke:#000000;stroke-width:1.3747;stroke-linecap:round;stroke-miterlimit:10;}
	.st45{fill:none;stroke:#000000;stroke-width:1.6003;stroke-linecap:round;stroke-miterlimit:10;}
	.st46{fill:none;stroke:#000000;stroke-width:2.5051;stroke-linecap:round;stroke-miterlimit:10;}
	.st47{fill:none;stroke:#000000;stroke-width:1.7096;stroke-linecap:round;stroke-miterlimit:10;}
</style>
<g id="people">
	<g id="XMLID_7_">
		<g>
			<polygon class="st0" points="1177.71,213.13 1208.45,268.63 1182.23,376.74 1156.47,290.94 1156.46,290.94 1166.86,275.39 
				1146.07,233.36 			"/>
			<polygon class="st1" points="1134.32,324.05 1195.34,483.62 1069.81,483.62 			"/>
			<polygon class="st0" points="1146.07,233.36 1166.86,275.39 1132.51,249.44 1095.45,275.39 1107.2,239.27 			"/>
			<polygon class="st2" points="1166.86,275.39 1156.46,290.94 1134.32,324.05 1095.45,275.39 1132.51,249.44 			"/>
		</g>
		<g>
			<line class="st3" x1="1095.45" y1="275.39" x2="1134.32" y2="324.05"/>
			<polyline class="st3" points="1166.86,275.39 1156.46,290.94 1134.32,324.05 			"/>
			<line class="st3" x1="1095.45" y1="275.39" x2="1132.51" y2="249.44"/>
			<line class="st3" x1="1166.86" y1="275.39" x2="1132.51" y2="249.44"/>
			<line class="st3" x1="1095.45" y1="275.39" x2="1107.2" y2="239.27"/>
			<line class="st3" x1="1146.07" y1="233.36" x2="1107.2" y2="239.27"/>
			<line class="st3" x1="1166.86" y1="275.39" x2="1146.07" y2="233.36"/>
			<line class="st3" x1="1177.71" y1="213.13" x2="1146.07" y2="233.36"/>
			<line class="st3" x1="1208.45" y1="268.63" x2="1177.71" y2="213.13"/>
			<line class="st3" x1="1182.23" y1="376.74" x2="1208.45" y2="268.63"/>
			<line class="st3" x1="1156.47" y1="290.94" x2="1182.23" y2="376.74"/>
			<line class="st3" x1="1134.32" y1="324.05" x2="1069.81" y2="483.62"/>
			<line class="st3" x1="1195.34" y1="483.62" x2="1069.81" y2="483.62"/>
			<line class="st3" x1="1134.32" y1="324.05" x2="1195.34" y2="483.62"/>
		</g>
	</g>
	<g id="XMLID_8_">
		<g>
			<polygon class="st4" points="1298.5,404.46 1318.07,485.6 1287.63,455.23 1290.53,485.6 1247.57,485.6 1247.57,456.68 
				1220.95,485.6 1239.99,407.39 1270.33,398.51 			"/>
			<polygon class="st5" points="1282.25,310.6 1309.34,355.29 1295.79,348.9 1295.79,348.89 1255.16,329.72 1239.99,347.03 
				1239.99,322.77 			"/>
			<polygon class="st6" points="1295.79,348.9 1295.79,381.48 1270.33,398.51 1239.99,387.17 1239.99,347.03 1255.16,329.72 
				1295.79,348.89 			"/>
		</g>
		<g>
			<line class="st3" x1="1239.99" y1="347.03" x2="1239.99" y2="387.17"/>
			<line class="st3" x1="1295.79" y1="348.9" x2="1309.34" y2="355.29"/>
			<line class="st3" x1="1255.16" y1="329.72" x2="1295.79" y2="348.89"/>
			<line class="st3" x1="1282.25" y1="310.6" x2="1309.34" y2="355.29"/>
			<line class="st3" x1="1239.99" y1="322.77" x2="1282.25" y2="310.6"/>
			<line class="st3" x1="1239.99" y1="347.03" x2="1255.16" y2="329.72"/>
			<line class="st3" x1="1239.99" y1="322.77" x2="1239.99" y2="347.03"/>
			<line class="st3" x1="1270.33" y1="398.51" x2="1239.99" y2="387.17"/>
			<line class="st3" x1="1295.79" y1="381.48" x2="1270.33" y2="398.51"/>
			<polyline class="st3" points="1295.79,348.89 1295.79,348.9 1295.79,381.48 			"/>
			<line class="st3" x1="1270.33" y1="398.51" x2="1239.99" y2="407.39"/>
			<line class="st3" x1="1220.95" y1="485.6" x2="1239.99" y2="407.39"/>
			<line class="st3" x1="1298.5" y1="404.46" x2="1270.33" y2="398.51"/>
			<line class="st3" x1="1318.07" y1="485.6" x2="1298.5" y2="404.46"/>
			<line class="st3" x1="1220.95" y1="485.6" x2="1247.57" y2="456.68"/>
			<line class="st3" x1="1287.63" y1="455.23" x2="1318.07" y2="485.6"/>
			<line class="st3" x1="1247.57" y1="485.6" x2="1247.57" y2="456.68"/>
			<line class="st3" x1="1290.53" y1="485.6" x2="1287.63" y2="455.23"/>
			<line class="st3" x1="1247.57" y1="485.6" x2="1290.53" y2="485.6"/>
		</g>
	</g>
	<g id="XMLID_6_">
		<g>
			<polygon class="st7" points="1045.96,324.91 1033.08,407.59 1019.34,370.79 1018.48,322.99 979.83,322.99 979.83,321.71 
				1009.89,297.66 			"/>
			<polygon class="st8" points="993.57,390.64 1039.52,489.38 947.2,485.03 			"/>
			<polygon class="st9" points="1018.48,322.99 1019.34,370.79 993.57,390.64 968.24,378.63 956.65,373.13 956.65,322.99 
				979.83,322.99 			"/>
			<polygon class="st7" points="979.83,321.71 979.83,322.99 956.65,322.99 956.65,373.13 968.24,378.63 956.65,413.6 
				937.75,340.98 956.65,309.47 			"/>
		</g>
		<g>
			<line class="st3" x1="956.65" y1="322.99" x2="956.65" y2="373.13"/>
			<polyline class="st3" points="993.57,390.64 968.24,378.63 956.65,373.13 			"/>
			<line class="st3" x1="1019.34" y1="370.79" x2="993.57" y2="390.64"/>
			<line class="st3" x1="1018.48" y1="322.99" x2="1019.34" y2="370.79"/>
			<polyline class="st3" points="956.65,322.99 979.83,322.99 1018.48,322.99 			"/>
			<line class="st3" x1="979.83" y1="321.71" x2="1009.89" y2="297.66"/>
			<line class="st3" x1="1045.96" y1="324.91" x2="1009.89" y2="297.66"/>
			<line class="st3" x1="1033.08" y1="407.59" x2="1045.96" y2="324.91"/>
			<line class="st3" x1="1019.34" y1="370.79" x2="1033.08" y2="407.59"/>
			<line class="st3" x1="979.83" y1="321.71" x2="956.65" y2="309.47"/>
			<line class="st3" x1="937.75" y1="340.98" x2="956.65" y2="309.47"/>
			<line class="st3" x1="956.65" y1="413.6" x2="937.75" y2="340.98"/>
			<line class="st3" x1="968.24" y1="378.63" x2="956.65" y2="413.6"/>
			<line class="st3" x1="993.57" y1="390.64" x2="947.2" y2="485.03"/>
			<line class="st3" x1="1039.52" y1="489.38" x2="947.2" y2="485.03"/>
			<line class="st3" x1="993.57" y1="390.64" x2="1039.52" y2="489.38"/>
		</g>
	</g>
	<g id="XMLID_9_">
		<g>
			<polygon class="st10" points="859.47,283.84 846.82,351.33 824.33,326.56 824.32,326.56 842.44,293.8 813.98,294.9 
				807.96,283.32 801.94,294.9 778.4,294.9 799.96,325.4 799.96,325.41 782.23,351.33 762.88,284.33 780.51,268.95 840.34,268.87 
							"/>
			<polygon class="st11" points="843.01,373.82 811.99,427.45 778.4,368.75 813.98,345.25 			"/>
			<polygon class="st12" points="842.44,293.8 824.32,326.56 813.98,345.25 799.96,325.41 799.96,325.4 778.4,294.9 801.94,294.9 
				807.96,283.32 813.98,294.9 			"/>
			<polygon class="st11" points="811.99,427.45 860.15,483.98 767.58,486.16 			"/>
		</g>
		<g>
			<line class="st3" x1="799.96" y1="325.41" x2="813.98" y2="345.25"/>
			<line class="st3" x1="778.4" y1="294.9" x2="799.96" y2="325.4"/>
			<polyline class="st3" points="842.44,293.8 824.32,326.56 813.98,345.25 			"/>
			<line class="st3" x1="846.82" y1="351.33" x2="859.47" y2="283.84"/>
			<line class="st3" x1="824.33" y1="326.56" x2="846.82" y2="351.33"/>
			<polyline class="st3" points="799.96,325.4 799.96,325.41 782.23,351.33 			"/>
			<line class="st3" x1="762.88" y1="284.33" x2="782.23" y2="351.33"/>
			<line class="st3" x1="778.4" y1="294.9" x2="801.94" y2="294.9"/>
			<line class="st3" x1="807.96" y1="283.32" x2="801.94" y2="294.9"/>
			<line class="st3" x1="813.98" y1="294.9" x2="807.96" y2="283.32"/>
			<line class="st3" x1="842.44" y1="293.8" x2="813.98" y2="294.9"/>
			<line class="st3" x1="780.51" y1="268.95" x2="840.34" y2="268.87"/>
			<line class="st3" x1="780.51" y1="268.95" x2="762.88" y2="284.33"/>
			<line class="st3" x1="840.34" y1="268.87" x2="859.47" y2="283.84"/>
			<line class="st3" x1="813.98" y1="345.25" x2="778.4" y2="368.75"/>
			<line class="st3" x1="843.01" y1="373.82" x2="813.98" y2="345.25"/>
			<line class="st3" x1="778.4" y1="368.75" x2="811.99" y2="427.45"/>
			<line class="st3" x1="843.01" y1="373.82" x2="811.99" y2="427.45"/>
			<line class="st3" x1="767.58" y1="486.16" x2="811.99" y2="427.45"/>
			<line class="st3" x1="860.15" y1="483.98" x2="811.99" y2="427.45"/>
			<line class="st3" x1="767.58" y1="486.16" x2="860.15" y2="483.98"/>
		</g>
	</g>
	<g id="XMLID_5_">
		<g>
			<polygon class="st13" points="698.45,352.46 698.45,389.5 670.49,410.78 637.15,389.5 637.15,352.46 661.88,333.04 			"/>
			<polygon class="st14" points="707.06,337.34 715.66,370.98 698.45,389.5 698.45,352.46 661.88,333.04 637.15,352.46 
				637.15,389.5 617.79,370.98 626.39,337.34 661.88,315.83 684.47,324.97 			"/>
			<polygon class="st15" points="711.36,409.62 672.7,485.44 628.73,412.31 			"/>
		</g>
		<g>
			<line class="st3" x1="661.88" y1="333.04" x2="698.45" y2="352.46"/>
			<line class="st3" x1="698.45" y1="389.5" x2="698.45" y2="352.46"/>
			<line class="st3" x1="670.49" y1="410.78" x2="698.45" y2="389.5"/>
			<line class="st3" x1="637.15" y1="389.5" x2="670.49" y2="410.78"/>
			<line class="st3" x1="637.15" y1="352.46" x2="637.15" y2="389.5"/>
			<line class="st3" x1="661.88" y1="333.04" x2="637.15" y2="352.46"/>
			<line class="st3" x1="698.45" y1="389.5" x2="715.66" y2="370.98"/>
			<line class="st3" x1="684.47" y1="324.97" x2="707.06" y2="337.34"/>
			<line class="st3" x1="715.66" y1="370.98" x2="707.06" y2="337.34"/>
			<line class="st3" x1="661.88" y1="315.83" x2="684.47" y2="324.97"/>
			<line class="st3" x1="626.39" y1="337.34" x2="661.88" y2="315.83"/>
			<line class="st3" x1="617.79" y1="370.98" x2="626.39" y2="337.34"/>
			<line class="st3" x1="637.15" y1="389.5" x2="617.79" y2="370.98"/>
			<line class="st3" x1="628.73" y1="412.31" x2="711.36" y2="409.62"/>
			<line class="st3" x1="672.7" y1="485.44" x2="628.73" y2="412.31"/>
			<line class="st3" x1="711.36" y1="409.62" x2="672.7" y2="485.44"/>
		</g>
	</g>
	<g id="XMLID_4_">
		<g>
			<polygon class="st16" points="606.91,414.98 607.63,485.71 525.91,485.71 525.91,414.98 564.49,396.28 			"/>
			<polygon class="st17" points="600.03,333.17 592.46,375 587.56,339 561.44,322.51 535.5,337.96 531.15,375 520.67,333.17 
				540.95,318.11 525.91,303.97 563.32,274.77 596.24,301.66 582.49,320.58 			"/>
			<polygon class="st18" points="587.56,339 592.46,375 564.49,396.28 531.15,375 535.5,337.96 561.44,322.51 			"/>
		</g>
		<g>
			<line class="st3" x1="561.44" y1="322.51" x2="587.56" y2="339"/>
			<line class="st3" x1="592.46" y1="375" x2="587.56" y2="339"/>
			<line class="st3" x1="564.49" y1="396.28" x2="592.46" y2="375"/>
			<line class="st3" x1="531.15" y1="375" x2="564.49" y2="396.28"/>
			<line class="st3" x1="535.5" y1="337.96" x2="531.15" y2="375"/>
			<line class="st3" x1="561.44" y1="322.51" x2="535.5" y2="337.96"/>
			<line class="st3" x1="582.49" y1="320.58" x2="600.03" y2="333.17"/>
			<line class="st3" x1="592.46" y1="375" x2="600.03" y2="333.17"/>
			<line class="st3" x1="520.67" y1="333.17" x2="540.95" y2="318.11"/>
			<line class="st3" x1="531.15" y1="375" x2="520.67" y2="333.17"/>
			<line class="st3" x1="540.95" y1="318.11" x2="525.91" y2="303.97"/>
			<line class="st3" x1="563.32" y1="274.77" x2="525.91" y2="303.97"/>
			<line class="st3" x1="596.24" y1="301.66" x2="563.32" y2="274.77"/>
			<line class="st3" x1="582.49" y1="320.58" x2="596.24" y2="301.66"/>
			<line class="st3" x1="564.49" y1="396.28" x2="525.91" y2="414.98"/>
			<line class="st3" x1="606.91" y1="414.98" x2="564.49" y2="396.28"/>
			<line class="st3" x1="525.91" y1="414.98" x2="525.91" y2="485.71"/>
			<line class="st3" x1="607.63" y1="485.71" x2="606.91" y2="414.98"/>
			<line class="st3" x1="525.91" y1="485.71" x2="607.63" y2="485.71"/>
		</g>
	</g>
	<g id="XMLID_3_">
		<g>
			<polygon class="st19" points="436.19,302.29 441.1,363.92 431.27,377.82 417.08,363.92 417.08,311.5 375.03,265.64 
				361.38,282.15 358.11,321.88 376.27,334.47 376.27,334.48 359.74,377.82 342.82,354.5 359.74,247.62 404.52,247.62 			"/>
			<polygon class="st20" points="391.96,345.36 436.19,484.89 344.8,484.89 			"/>
			<polygon class="st21" points="375.03,265.64 417.08,311.5 391.96,345.36 376.27,334.48 376.27,334.47 358.11,321.88 
				361.38,282.15 			"/>
		</g>
		<g>
			<line class="st3" x1="361.38" y1="282.15" x2="358.11" y2="321.88"/>
			<line class="st3" x1="376.27" y1="334.47" x2="358.11" y2="321.88"/>
			<line class="st3" x1="391.96" y1="345.36" x2="376.27" y2="334.48"/>
			<line class="st3" x1="417.08" y1="311.5" x2="391.96" y2="345.36"/>
			<line class="st3" x1="375.03" y1="265.64" x2="417.08" y2="311.5"/>
			<line class="st3" x1="417.08" y1="363.92" x2="417.08" y2="311.5"/>
			<line class="st3" x1="431.27" y1="377.82" x2="417.08" y2="363.92"/>
			<line class="st3" x1="441.1" y1="363.92" x2="431.27" y2="377.82"/>
			<line class="st3" x1="436.19" y1="302.29" x2="441.1" y2="363.92"/>
			<line class="st3" x1="404.52" y1="247.62" x2="436.19" y2="302.29"/>
			<line class="st3" x1="359.74" y1="247.62" x2="404.52" y2="247.62"/>
			<line class="st3" x1="342.82" y1="354.5" x2="359.74" y2="247.62"/>
			<line class="st3" x1="359.74" y1="377.82" x2="342.82" y2="354.5"/>
			<polyline class="st3" points="376.27,334.47 376.27,334.48 359.74,377.82 			"/>
			<line class="st3" x1="375.03" y1="265.64" x2="361.38" y2="282.15"/>
			<line class="st3" x1="391.96" y1="345.36" x2="344.8" y2="484.89"/>
			<line class="st3" x1="436.19" y1="484.89" x2="391.96" y2="345.36"/>
			<line class="st3" x1="344.8" y1="484.89" x2="436.19" y2="484.89"/>
		</g>
	</g>
	<g id="XMLID_1_">
		<g>
			<polygon class="st22" points="131.85,393.32 120.8,418.73 117.32,375.56 117.94,338 79.78,321.81 59.73,347.51 66.13,378.97 
				65.05,423.5 57.06,410.2 43.95,388.36 39.68,329.91 79.78,285.98 125.42,297.92 142.91,367.88 			"/>
			<polygon class="st23" points="131.85,393.32 133.61,485.3 70.39,485.3 57.06,410.2 65.05,423.5 66.13,378.97 93.43,390.06 
				117.32,375.56 120.8,418.73 			"/>
			<polygon class="st24" points="117.94,338 117.32,375.56 93.43,390.06 66.13,378.97 59.73,347.51 79.78,321.81 			"/>
		</g>
		<g>
			<polyline class="st3" points="55.89,328.64 59.73,347.51 66.13,378.97 			"/>
			<line class="st3" x1="66.13" y1="378.97" x2="93.43" y2="390.06"/>
			<line class="st3" x1="117.32" y1="375.56" x2="93.43" y2="390.06"/>
			<polyline class="st3" points="118.17,324.37 117.94,338 117.32,375.56 			"/>
			<line class="st3" x1="79.78" y1="321.81" x2="117.94" y2="338"/>
			<line class="st3" x1="117.32" y1="375.56" x2="120.8" y2="418.73"/>
			<polyline class="st3" points="142.91,367.88 131.85,393.32 120.8,418.73 			"/>
			<line class="st3" x1="125.42" y1="297.92" x2="142.91" y2="367.88"/>
			<line class="st3" x1="79.78" y1="285.98" x2="125.42" y2="297.92"/>
			<line class="st3" x1="39.68" y1="329.91" x2="79.78" y2="285.98"/>
			<line class="st3" x1="43.95" y1="388.36" x2="39.68" y2="329.91"/>
			<polyline class="st3" points="65.05,423.5 57.06,410.2 43.95,388.36 			"/>
			<line class="st3" x1="66.13" y1="378.97" x2="65.05" y2="423.5"/>
			<line class="st3" x1="59.73" y1="347.51" x2="79.78" y2="321.81"/>
			<line class="st3" x1="57.06" y1="410.2" x2="70.39" y2="485.3"/>
			<line class="st3" x1="133.61" y1="485.3" x2="70.39" y2="485.3"/>
			<polyline class="st3" points="131.85,393.3 131.85,393.32 133.61,485.3 			"/>
		</g>
	</g>
	<g id="XMLID_2_">
		<g>
			<polygon class="st25" points="237.65,378.36 275.15,489.13 175.32,484.56 208.45,379.97 225.42,393.08 			"/>
			<polygon class="st26" points="266.12,309.07 258.81,352.9 246.29,328.36 219.15,316.37 187.85,328.36 179.5,357.6 171.15,312.2 
				228.55,289.24 			"/>
			<polygon class="st27" points="246.29,328.36 258.81,352.9 237.65,378.36 225.42,393.08 208.45,379.97 179.5,357.6 187.85,328.36 
				219.15,316.37 			"/>
		</g>
		<g>
			<polyline class="st3" points="225.42,393.08 208.45,379.97 179.5,357.6 			"/>
			<polyline class="st3" points="258.81,352.9 237.65,378.36 225.42,393.08 			"/>
			<line class="st3" x1="246.29" y1="328.36" x2="258.81" y2="352.9"/>
			<line class="st3" x1="187.85" y1="328.36" x2="219.15" y2="316.37"/>
			<line class="st3" x1="246.29" y1="328.36" x2="219.15" y2="316.37"/>
			<line class="st3" x1="179.5" y1="357.6" x2="187.85" y2="328.36"/>
			<line class="st3" x1="171.15" y1="312.2" x2="179.5" y2="357.6"/>
			<line class="st3" x1="228.55" y1="289.24" x2="171.15" y2="312.2"/>
			<line class="st3" x1="258.81" y1="352.9" x2="266.12" y2="309.07"/>
			<line class="st3" x1="228.55" y1="289.24" x2="266.12" y2="309.07"/>
			<line class="st3" x1="208.45" y1="379.97" x2="175.32" y2="484.56"/>
			<line class="st3" x1="237.65" y1="378.36" x2="275.15" y2="489.13"/>
			<line class="st3" x1="175.32" y1="484.56" x2="275.15" y2="489.13"/>
		</g>
	</g>
	<g id="Layer_3">
	</g>
</g>
<g id="eyes" class="st30">
	<line class="st31" x1="906.55" y1="250.81" x2="906.55" y2="264.54"/>
	<rect x="906.55" y="256.9" class="st32" width="7.64" height="7.64"/>
	<line class="st31" x1="929.05" y1="250.81" x2="929.05" y2="264.54"/>
	<rect x="929.05" y="256.9" class="st32" width="7.64" height="7.64"/>
	<line class="st31" x1="1041.99" y1="252.05" x2="1041.99" y2="265.78"/>
	<rect x="1041.99" y="258.14" class="st32" width="7.64" height="7.64"/>
	<line class="st31" x1="1064.5" y1="252.05" x2="1064.5" y2="265.78"/>
	<rect x="1064.5" y="258.14" class="st32" width="7.64" height="7.64"/>
	<line class="st31" x1="1192.77" y1="258.91" x2="1192.77" y2="272.64"/>
	<rect x="1192.77" y="265.01" class="st32" width="7.64" height="7.64"/>
	<line class="st31" x1="1215.28" y1="258.91" x2="1215.28" y2="272.64"/>
	<rect x="1215.28" y="265.01" class="st32" width="7.64" height="7.64"/>
	<line class="st31" x1="493.42" y1="256.45" x2="493.42" y2="270.18"/>
	<rect x="493.42" y="262.54" class="st32" width="7.64" height="7.64"/>
	<line class="st31" x1="515.93" y1="256.45" x2="515.93" y2="270.18"/>
	<rect x="515.93" y="262.54" class="st32" width="7.64" height="7.64"/>
	<line class="st31" x1="347.3" y1="255.41" x2="347.3" y2="269.14"/>
	<rect x="347.3" y="261.5" class="st32" width="7.64" height="7.64"/>
	<line class="st31" x1="369.81" y1="255.41" x2="369.81" y2="269.14"/>
	<rect x="369.81" y="261.5" class="st32" width="7.64" height="7.64"/>
	<line class="st33" x1="213.69" y1="255.41" x2="213.69" y2="270.49"/>
	<rect x="213.69" y="262.1" class="st34" width="8.39" height="8.39"/>
	<line class="st33" x1="238.41" y1="255.41" x2="238.41" y2="270.49"/>
	<rect x="238.41" y="262.1" class="st34" width="8.39" height="8.39"/>
	<line class="st31" x1="76.37" y1="257.47" x2="76.37" y2="271.2"/>
	<rect x="76.37" y="263.56" class="st32" width="7.64" height="7.64"/>
	<line class="st31" x1="98.88" y1="257.47" x2="98.88" y2="271.2"/>
	<rect x="98.88" y="263.56" class="st32" width="7.64" height="7.64"/>
	<line class="st31" x1="622.35" y1="261.95" x2="622.35" y2="275.68"/>
	<rect x="622.35" y="268.04" class="st32" width="7.64" height="7.64"/>
	<line class="st31" x1="644.85" y1="261.95" x2="644.85" y2="275.68"/>
	<rect x="644.85" y="268.04" class="st32" width="7.64" height="7.64"/>
	<line class="st35" x1="767.26" y1="251.57" x2="767.26" y2="263.32"/>
	<rect x="767.26" y="256.78" class="st36" width="6.53" height="6.53"/>
	<line class="st35" x1="786.51" y1="251.57" x2="786.51" y2="263.32"/>
	<rect x="786.51" y="256.78" class="st36" width="6.53" height="6.53"/>
</g>
<g id="messages">
	<line class="st37" x1="112.15" y1="242.68" x2="119.05" y2="205.31"/>
	<line class="st37" x1="154.33" y1="205.31" x2="112.15" y2="242.68"/>
	<line class="st37" x1="154.33" y1="205.31" x2="271.48" y2="205.31"/>
	<line class="st37" x1="271.48" y1="83.4" x2="271.48" y2="205.31"/>
	<line class="st37" x1="95.86" y1="83.4" x2="271.48" y2="83.4"/>
	<line class="st37" x1="95.86" y1="205.31" x2="95.86" y2="83.4"/>
	<line class="st37" x1="119.05" y1="205.31" x2="95.86" y2="205.31"/>
	<g>
		<line class="st38" x1="665.98" y1="292.08" x2="659.24" y2="253.45"/>
		<line class="st38" x1="624.86" y1="253.45" x2="665.98" y2="292.08"/>
		<line class="st38" x1="624.86" y1="253.45" x2="510.63" y2="253.45"/>
		<line class="st38" x1="510.63" y1="127.41" x2="510.63" y2="253.45"/>
		<line class="st38" x1="681.86" y1="127.41" x2="510.63" y2="127.41"/>
		<line class="st38" x1="681.86" y1="253.45" x2="681.86" y2="127.41"/>
		<line class="st38" x1="659.24" y1="253.45" x2="681.86" y2="253.45"/>
	</g>
	<line class="st39" x1="815.28" y1="242.68" x2="823.38" y2="200.08"/>
	<line class="st39" x1="864.73" y1="200.08" x2="815.28" y2="242.68"/>
	<line class="st39" x1="864.73" y1="200.08" x2="1002.08" y2="200.08"/>
	<line class="st39" x1="1002.08" y1="61.09" x2="1002.08" y2="200.08"/>
	<line class="st39" x1="796.19" y1="61.09" x2="1002.08" y2="61.09"/>
	<line class="st39" x1="796.19" y1="200.08" x2="796.19" y2="61.09"/>
	<line class="st39" x1="823.38" y1="200.08" x2="796.19" y2="200.08"/>
	<g>
		<line class="st40" x1="1278.65" y1="289.86" x2="1284.09" y2="252.5"/>
		<line class="st40" x1="1311.85" y1="252.5" x2="1278.65" y2="289.86"/>
		<line class="st40" x1="1311.85" y1="252.5" x2="1404.08" y2="252.5"/>
		<line class="st40" x1="1404.08" y1="130.59" x2="1404.08" y2="252.5"/>
		<line class="st40" x1="1265.83" y1="130.59" x2="1404.08" y2="130.59"/>
		<line class="st40" x1="1265.83" y1="252.5" x2="1265.83" y2="130.59"/>
		<line class="st40" x1="1284.09" y1="252.5" x2="1265.83" y2="252.5"/>
	</g>
	<g>
		<line class="st41" x1="398.91" y1="216.6" x2="396.66" y2="190.63"/>
		<line class="st41" x1="423.9" y1="196.53" x2="398.91" y2="216.6"/>
		<path class="st41" d="M396.66,190.63c-2.42-1.86-20.01-15.75-17.48-32.78c3.16-21.33,35.93-34.5,61.47-29.54
			c19.85,3.85,42.57,20.07,40.04,38.55c-2.39,17.41-26.74,33.68-56.79,29.67"/>
		<g>
			<g>
				<path d="M398.09,174.55c1.38,5.4,7.43,3.1,10.03,0.13c0.57-0.65,1.41-2.33,2.26-2.64c1.88-0.7,3.41,1.43,4.36,2.36
					c0.96,0.95,1.14,2.07,2.44,2.84c2.77,1.65,5.79,0.13,8.14-1.49c2.32-1.6,4.12-3.99,6.6-1.11c0.6,0.7,0.59,1.87,1.3,2.57
					c1.38,1.38,2.9,1.15,4.51,0.23c2.47-1.42,3.78-4.32,6.7-2.75c0.7,0.38,0.86,1.39,1.87,1.79c1.11,0.42,2.32,0.1,3.43-0.12
					c3.58-0.72,6.22-1.51,9.91-0.54c1.56,0.41,2.22-2,0.66-2.41c-3.72-0.98-6.27-0.18-9.91,0.11c-1.4,0.77-2.76,0.54-4.09-0.68
					c-0.31-0.42-0.62-0.84-0.94-1.25c-0.62-0.24-1.15-0.5-1.89-0.53c-1.96-0.07-3.78,1.87-5.33,2.75c-4.83,2.75-2.94-1.08-5.61-3.31
					c-1.66-1.38-3.25-0.58-4.98,0.37c-0.94,0.52-1.84,1.39-2.68,2.03c-2.17,2.48-4.82,2.56-7.95,0.22c-0.42-0.94-0.95-1.82-1.6-2.62
					c-1.46-1.62-3.11-2.19-5.15-1.37c-1.59,0.64-8.25,10.17-9.64,4.73C400.11,172.32,397.69,172.98,398.09,174.55L398.09,174.55z"/>
			</g>
		</g>
		<g>
			<g>
				<path d="M395.64,151.44c1.24,1.71,2.98,5.71,5.54,5.67c1.35-0.02,2.17-1.03,3.07-1.89c2.45-2.31,4.77-4.8,7.14-7.19
					c-0.7-0.18-1.39-0.37-2.09-0.55c0.65,4.48,2.14,9.6,7.41,10.12c5.37,0.53,8.86-4.23,11.46-8.18c-0.57,0.15-1.14,0.3-1.71,0.45
					c2.63,1.97,2.64,6.39,6.14,7.45c1.72,0.52,2.38-0.22,3.86-0.82c3.41-1.37,2.68,0.18,5.46,0.26c0.78,0.02,1.07-0.09,2-0.37
					c4.02-1.25,8.07-4.47,11.73-6.55c-0.61-0.25-1.22-0.5-1.84-0.75c0.95,4.5,4.2,7.2,8.72,7.66c1.6,0.16,1.59-2.34,0-2.5
					c-3.38-0.34-5.63-2.62-6.3-5.82c-0.17-0.81-1.17-1.13-1.84-0.75c-3,1.7-6.11,4.04-9.31,5.3c-2.85,1.12-4.47-0.26-6.88-0.21
					c-0.76,0.02-1.21,0.53-1.84,0.64c-1.3,0.23-3.72,0.42-5.04-0.71c-1.5-1.29-1.79-3.64-3.6-5c-0.56-0.42-1.37-0.06-1.71,0.45
					c-1.96,2.98-5.47,8.21-9.91,6.84c-3.33-1.03-3.96-5.31-4.39-8.18c-0.14-0.96-1.49-1.16-2.09-0.55
					c-1.95,1.96-3.89,3.92-5.84,5.88c-1.25,1.26-1.32,2.03-2.97,1.37c-1.39-0.56-2.18-2.19-3.01-3.34
					C396.87,148.89,394.7,150.14,395.64,151.44L395.64,151.44z"/>
			</g>
		</g>
	</g>
	<g>
		<line class="st45" x1="275.09" y1="289.77" x2="273.57" y2="269.19"/>
		<line class="st45" x1="291.89" y1="273.87" x2="275.09" y2="289.77"/>
		<path class="st45" d="M273.57,269.19c-1.62-1.47-13.45-12.48-11.75-25.97c2.13-16.89,24.16-27.33,41.33-23.4
			c13.35,3.05,28.62,15.9,26.92,30.54c-1.6,13.79-17.97,26.68-38.18,23.5"/>
		<g>
			<g>
				<path d="M274.47,256.43c1.31,4.46,4.65,1.86,6.86,0.07c0.32-0.4,0.61-0.82,0.88-1.26c1.97-0.93,3.12-0.58,3.45,1.04
					c0.75,0.72,0.59,1.54,1.56,2.17c1.75,1.14,3.48,0.44,5.02-0.63c1.25-0.87,2.84-3.41,4.82-1.8c0.62,0.51,0.38,1.99,1.16,2.59
					c1.02,0.78,1.49,0.76,2.71,0.26c0.85-0.35,1.19-1.48,2-1.87c7.36-3.58,1.32-0.02,3.21,0.32c1.98,0.35,0.36,0.51,2.57,0.62
					c2.62,0.13,4.22-1.37,7.17-0.56c1.13,0.31,1.62-1.45,0.49-1.76c-2.96-0.81-6.64,0.88-9.28-0.27c-1.31-0.57-0.3-1.49-2.05-1.59
					c-1.94-0.11-2.81,2.58-4.31,2.84c-2.81,0.48-1.49-2.7-3.48-3.67c-1.24-0.6-2.31,0.32-3.37,1.01c-1.07,0.69-1.92,2.36-3.09,2.73
					c-3.83,1.18-3.3-2.07-4.75-3.56c-0.83-0.85-1.6-1.39-2.84-1.1c-0.72,0.17-1.08,0.64-1.63,1.1c-0.36,0.31-4.23,6.59-5.33,2.83
					C275.9,254.82,274.14,255.3,274.47,256.43L274.47,256.43z"/>
			</g>
		</g>
		<g>
			<g>
				<path d="M272.83,238.11c0.92,1.5,1.97,4.68,4.14,4.38c2.31-0.32,5.16-5.43,6.56-7.09c-0.52-0.22-1.04-0.43-1.56-0.65
					c0.39,3,0.99,7.44,4.63,8.16c4.07,0.8,6.59-3.49,8.22-6.4c-0.48,0.06-0.96,0.12-1.43,0.18c1.31,1.3,1.98,5.2,4.14,5.98
					c2.09,0.75,1.43-0.47,3.07-0.77c1.66-0.3,2.71,0.61,4.32,0.28c2.78-0.56,6.06-3.84,8.35-5.37c-0.45-0.18-0.89-0.36-1.34-0.55
					c0.66,3.15,2.41,5.46,5.69,5.97c1.15,0.18,1.64-1.58,0.49-1.76c-2.72-0.59-4.19-2.16-4.41-4.7c-0.12-0.56-0.87-0.86-1.34-0.55
					c-1.95,1.31-4,3.14-6.15,4.12c-2.38,1.08-2.56,0.13-4.36-0.1c-0.58-0.07-1.27,0.6-1.7,0.55c-3.15-0.42-3.64-2.59-5.47-4.41
					c-0.41-0.41-1.14-0.33-1.43,0.18c-1.55,2.77-1.13,2.57-5.13,2.7c-4.36,0.14-3.82,0.36-4.32-3.54c-0.09-0.69-0.99-1.32-1.56-0.65
					c-1.22,1.45-2.44,2.9-3.66,4.35c-0.52,0.62-1.05,1.24-1.57,1.86c-1.15-0.81-2.02-1.86-2.6-3.13
					C273.79,236.19,272.21,237.11,272.83,238.11L272.83,238.11z"/>
			</g>
		</g>
	</g>
	<g>
		<line class="st46" x1="1136.44" y1="191.54" x2="1133.91" y2="161.39"/>
		<line class="st46" x1="1164.53" y1="168.24" x2="1136.44" y2="191.54"/>
		<path class="st46" d="M1133.91,161.39c-2.72-2.15-22.49-18.29-19.65-38.06c3.56-24.76,40.39-40.05,69.1-34.3
			c22.32,4.47,47.86,23.3,45.01,44.76c-2.68,20.22-30.05,39.1-63.84,34.44"/>
		<g>
			<g>
				<path d="M1135.5,142.71c0.63,2.52,2.66,3.96,5.31,3.87c3.67-0.13,4.86-3.15,7.24-5.29c5.04-4.54,5.89,3.58,9.97,5.03
					c2.94,1.04,5.96-0.59,8.25-2.34c2.26-1.73,4.65-4.89,7.07-1.64c0.78,1.05,0.66,2.44,1.64,3.45c1.66,1.72,3.42,1.28,5.26,0.14
					c2.14-1.33,4.17-4.87,7.19-3.26c0.76,0.41,1.11,1.81,2.17,2.25c1.17,0.49,2.46,0.21,3.64-0.05c4.13-0.9,7.03-1.89,11.43-0.7
					c1.78,0.48,2.53-2.27,0.76-2.75c-4.46-1.21-7.43-0.15-11.74,0.33c-2.01,0.22-2.91-0.43-4.19-1.45c-0.33-0.26-0.5-0.74-0.85-0.99
					c-0.6-0.43-1.4-0.62-2.14-0.6c-3.39,0.06-5.36,4.14-8.4,4.5c-2.24,0.26-1.79-1.68-2.7-3.39c-0.46-0.87-1-1.82-1.91-2.28
					c-2-1-4.24,0.49-5.89,1.67c-1.76,1.26-4.27,4.5-6.56,4.45c-3.76-0.08-4.16-3.19-6-5.39c-1.59-1.9-3.61-2.87-5.99-1.78
					c-1.37,0.63-9.33,11.44-10.81,5.48C1137.81,140.17,1135.06,140.92,1135.5,142.71L1135.5,142.71z"/>
			</g>
		</g>
		<g>
			<g>
				<path d="M1132.75,115.88c1.55,2.21,3.47,7.06,6.82,6.46c1.73-0.31,2.91-2.08,4.04-3.26c2.29-2.38,4.59-4.77,6.88-7.15
					c-0.8-0.21-1.59-0.42-2.39-0.63c0.71,5.06,2.31,11.17,8.34,11.73c6.11,0.57,10.03-4.95,12.9-9.49c-0.65,0.17-1.3,0.34-1.95,0.51
					c2.9,2.08,2.77,6.54,6.07,8.3c2.41,1.28,3.35,0.07,5.41-0.78c2.85-1.18,5.27,1.16,8.34-0.02c4.51-1.74,8.85-5.08,13.02-7.53
					c-0.7-0.28-1.4-0.57-2.1-0.85c0.98,5.09,4.67,8.4,9.82,8.87c1.83,0.17,1.82-2.69,0-2.86c-3.96-0.37-6.33-2.99-7.07-6.77
					c-0.18-0.92-1.35-1.29-2.1-0.85c-3.47,2.04-7.57,5.44-11.42,6.71c-4.09,1.35-4.29-1.44-7.56-0.7c-2.8,0.63-4.46,4.2-6.92-0.18
					c-1.33-2.37-1.78-4.16-4.06-5.8c-0.64-0.46-1.57-0.09-1.95,0.51c-2.19,3.45-5.93,9.58-11.11,7.95c-3.82-1.2-4.45-6.2-4.91-9.52
					c-0.15-1.09-1.71-1.33-2.39-0.63c-2.08,2.17-4.17,4.33-6.25,6.5c-0.44,0.46-1.91,2.53-2.5,2.6c-1.77,0.22-3.71-3.44-4.5-4.57
					C1134.17,112.95,1131.69,114.37,1132.75,115.88L1132.75,115.88z"/>
			</g>
		</g>
	</g>
	<g>
		<line class="st47" x1="984.38" y1="290.23" x2="986.24" y2="271.11"/>
		<line class="st47" x1="963.76" y1="275.45" x2="984.38" y2="290.23"/>
		<path class="st47" d="M986.24,271.11c1.99-1.37,16.52-11.6,14.43-24.14c-2.61-15.7-29.66-25.4-50.74-21.75
			c-16.39,2.84-35.14,14.78-33.05,28.39c1.97,12.82,22.07,24.8,46.88,21.85"/>
		<g>
			<g>
				<path d="M983.12,258.76c-1.26,3.25-7.04-3.57-8.99-3.83c-1.2-0.16-2.2,0.39-3.08,1.14c-2.53,2.17-0.37,5.23-7.35,2.51
					c-1.36-0.53-2.37-1.89-3.79-2.45c-1.36-0.53-2.11-0.71-3.28,0.17c-2.16,1.64-1.17,3.73-5.16,2.03c-1.39-0.59-2.89-2.03-4.54-1.6
					c-2.03,0.53-2.26,1.91-5.05,1.72c-2.88-0.2-5.19-0.74-8.15-0.08c-1.22,0.27-0.71,2.15,0.52,1.88c3.92-0.88,7.17,1.05,10.88,0.53
					c0.53-0.07,0.89-0.73,1.32-0.85c3.29-0.96,2.75-0.47,5.17,0.92c1.38,0.79,2.51,1.75,4.07,0.69c0.6-0.41,0.65-1.03,1.12-1.53
					c0.24-0.58,0.49-1.15,0.74-1.73c1.56-0.33,2.88,0.04,3.95,1.09c2.07,1.02,3.72,2.82,6.28,2.41c3.78-0.6,4.32-5.55,9.03-2.38
					c2.59,1.74,6.49,4.24,8.18-0.12C985.46,258.11,983.57,257.6,983.12,258.76L983.12,258.76z"/>
			</g>
		</g>
		<g>
			<g>
				<path d="M985.5,241.1c-3.55,4.39-7.03-0.02-10-2.69c-0.49-0.44-1.5-0.34-1.63,0.43c-0.44,2.61-0.88,5.83-4.88,6.09
					c-3,0.2-5.51-3.08-7.02-5.12c-0.3-0.4-0.86-0.67-1.33-0.35c-1,0.67-1.43,1.41-2.19,2.26c-1.02,1.13-2.07,2.84-4.09,2.58
					c-0.57-0.07-1.16-0.85-1.83-0.98c-1.11-0.22-1.3,0.42-2.34,0.41c-4.27-0.03-7.94-2.43-11.61-4.29
					c-0.55-0.28-1.27-0.06-1.43,0.58c-0.63,2.64-2.38,4.06-5.26,4.25c-1.24,0.13-1.25,2.08,0,1.95c3.51-0.36,6.24-2.13,7.14-5.68
					c-0.48,0.19-0.95,0.39-1.43,0.58c2.82,1.43,5.68,3.19,8.62,4.35c2.66,1.05,0.76,0.44,3.49,0.65c0.57,0.04,0.96-0.71,1.47-0.72
					c2.14-0.02,3.33,1.88,5.5,1.21c1.86-0.58,2.01-2.25,3.2-3.44c2.1-2.11,2.91,1.13,4.96,2.4c1.58,0.97,3.59,1.55,5.44,1.2
					c3.75-0.69,4.92-4.08,5.49-7.43c-0.54,0.14-1.09,0.29-1.63,0.43c1.84,1.65,5.08,6.05,7.57,6.55c2.57,0.52,3.74-2.06,5.19-3.86
					C987.66,241.51,986.29,240.12,985.5,241.1L985.5,241.1z"/>
			</g>
		</g>
	</g>
</g>
</svg>
