<?xml version="1.0" encoding="utf-8"?>
<!-- Generator: Adobe Illustrator 23.0.1, SVG Export Plug-In . SVG Version: 6.00 Build 0)  -->
<svg version="1.1" xmlns="http://www.w3.org/2000/svg" xmlns:xlink="http://www.w3.org/1999/xlink" x="0px" y="0px"
	 viewBox="0 0 1440.42 485.35" style="enable-background:new 0 0 1440.42 485.35;" xml:space="preserve">
<style type="text/css">
	.st0{fill:#429973;}
	.st1{fill:#76B595;}
	.st2{fill:#9ECCB6;}
	.st3{fill:#7694B5;}
	.st4{fill:#417399;}
	.st5{fill:#9EB6CC;}
	.st6{fill:#9A4189;}
	.st7{fill:#B576A5;}
	.st8{fill:#CD9EC2;}
	.st9{fill:#9476B5;}
	.st10{fill:#6B429A;}
	.st11{fill:#B69ECB;}
	.st12{fill:#469945;}
	.st13{fill:#7AB576;}
	.st14{fill:#A1CC9E;}
	.st15{fill:#B5767F;}
	.st16{fill:#9A4155;}
	.st17{fill:#CD9EA6;}
	.st18{fill:#409992;}
	.st19{fill:#76B5B5;}
	.st20{fill:#9FCDCC;}
	.st21{fill:#42409A;}
	.st22{fill:#7775B7;}
	.st23{fill:#9E9BCC;}
	.st24{fill:#B476B2;}
	.st25{fill:#994395;}
	.st26{fill:#CC9EC9;}
	.st27{fill:#7676B4;}
	.st28{fill:#424399;}
	.st29{fill:none;stroke:#000000;stroke-width:2;stroke-linecap:round;stroke-miterlimit:10;}
	.st30{display:none;}
	.st31{display:inline;fill:none;stroke:#000000;stroke-width:5;stroke-linecap:round;stroke-miterlimit:10;}
	.st32{display:inline;stroke:#000000;stroke-width:5;stroke-linecap:round;stroke-linejoin:round;stroke-miterlimit:10;}
	.st33{display:inline;fill:none;stroke:#000000;stroke-width:5.4919;stroke-linecap:round;stroke-miterlimit:10;}
	.st34{display:inline;stroke:#000000;stroke-width:5.4919;stroke-linecap:round;stroke-linejoin:round;stroke-miterlimit:10;}
	.st35{display:inline;fill:none;stroke:#000000;stroke-width:4.2764;stroke-linecap:round;stroke-miterlimit:10;}
	.st36{display:inline;stroke:#000000;stroke-width:4.2764;stroke-linecap:round;stroke-linejoin:round;stroke-miterlimit:10;}
	.st37{fill:none;stroke:#000000;stroke-width:2.8926;stroke-linecap:round;stroke-miterlimit:10;}
	.st38{fill:none;stroke:#000000;stroke-width:2.1927;stroke-linecap:round;stroke-miterlimit:10;}
	.st39{stroke:#000000;stroke-width:1.9987;stroke-linecap:round;stroke-miterlimit:10;}
	.st40{fill:none;stroke:#000000;stroke-width:1.5082;stroke-linecap:round;stroke-miterlimit:10;}
	.st41{stroke:#000000;stroke-width:1.3747;stroke-linecap:round;stroke-miterlimit:10;}
	.st42{fill:#E7797C;}
	.st43{fill:none;stroke:#E7797C;stroke-width:2.1927;stroke-linecap:round;stroke-miterlimit:10;}
	.st44{fill:#FFFFFF;}
	.st45{fill:none;stroke:#E7797C;stroke-width:1.7096;stroke-linecap:round;stroke-miterlimit:10;}
	.st46{fill:none;stroke:#E7797C;stroke-width:1.6003;stroke-linecap:round;stroke-miterlimit:10;}
	.st47{fill:none;stroke:#000000;stroke-width:0.3649;stroke-linecap:round;stroke-miterlimit:10;}
	.st48{fill:none;stroke:#E7797C;stroke-width:1.5019;stroke-linecap:round;stroke-miterlimit:10;}
	.st49{fill:none;stroke:#E7797C;stroke-width:1.7275;stroke-linecap:round;stroke-miterlimit:10;}
	.st50{fill:none;stroke:#E7797C;stroke-width:2.6406;stroke-linecap:round;stroke-miterlimit:10;}
	.st51{fill:none;stroke:#000000;stroke-width:4.3309;stroke-linecap:round;stroke-miterlimit:10;}
	.st52{fill:none;stroke:#000000;stroke-width:3.8476;stroke-linecap:round;stroke-miterlimit:10;}
	.st53{fill:none;stroke:#000000;stroke-width:4.171;stroke-linecap:round;stroke-miterlimit:10;}
	.st54{fill:none;stroke:#000000;stroke-width:4.6045;stroke-linecap:round;stroke-miterlimit:10;}
	.st55{fill:none;}
	.st56{font-family:'SegoeUI-Semibold';}
	.st57{font-size:21px;}
	.st58{fill:none;stroke:#000000;stroke-width:2.6023;stroke-linecap:round;stroke-miterlimit:10;}
</style>
<g id="people">
	<g id="XMLID_7_">
		<g>
			<polygon class="st0" points="1177.71,213.13 1208.45,268.63 1182.23,376.74 1156.47,290.94 1156.46,290.94 1166.86,275.39 
				1146.07,233.36 			"/>
			<polygon class="st1" points="1134.32,324.05 1195.34,483.62 1069.81,483.62 			"/>
			<polygon class="st0" points="1146.07,233.36 1166.86,275.39 1132.51,249.44 1095.45,275.39 1107.2,239.27 			"/>
			<polygon class="st2" points="1166.86,275.39 1156.46,290.94 1134.32,324.05 1095.45,275.39 1132.51,249.44 			"/>
		</g>
	</g>
	<g id="XMLID_8_">
		<g>
			<polygon class="st3" points="1298.5,404.46 1318.07,485.6 1287.63,455.23 1290.53,485.6 1247.57,485.6 1247.57,456.68 
				1220.95,485.6 1239.99,407.39 1270.33,398.51 			"/>
			<polygon class="st4" points="1282.25,310.6 1309.34,355.29 1295.79,348.9 1295.79,348.89 1255.16,329.72 1239.99,347.03 
				1239.99,322.77 			"/>
			<polygon class="st5" points="1295.79,348.9 1295.79,381.48 1270.33,398.51 1239.99,387.17 1239.99,347.03 1255.16,329.72 
				1295.79,348.89 			"/>
		</g>
	</g>
	<g id="XMLID_6_">
		<g>
			<polygon class="st6" points="1045.96,324.91 1033.08,407.59 1019.34,370.79 1018.48,322.99 979.83,322.99 979.83,321.71 
				1009.89,297.66 			"/>
			<polygon class="st7" points="993.57,390.64 1039.52,489.38 947.2,485.03 			"/>
			<polygon class="st8" points="1018.48,322.99 1019.34,370.79 993.57,390.64 968.24,378.63 956.65,373.13 956.65,322.99 
				979.83,322.99 			"/>
			<polygon class="st6" points="979.83,321.71 979.83,322.99 956.65,322.99 956.65,373.13 968.24,378.63 956.65,413.6 
				937.75,340.98 956.65,309.47 			"/>
		</g>
	</g>
	<g id="XMLID_9_">
		<g>
			<polygon class="st9" points="811.99,427.45 860.15,483.98 767.58,486.16 			"/>
			<polygon class="st10" points="859.47,283.84 846.82,351.33 824.33,326.56 824.32,326.56 842.44,293.8 813.98,294.9 
				807.96,283.32 801.94,294.9 778.4,294.9 799.96,325.4 799.96,325.41 782.23,351.33 762.88,284.33 780.51,268.95 840.34,268.87 
							"/>
			<polygon class="st9" points="843.01,373.82 811.99,427.45 778.4,368.75 813.98,345.25 			"/>
			<polygon class="st11" points="842.44,293.8 824.32,326.56 813.98,345.25 799.96,325.41 799.96,325.4 778.4,294.9 801.94,294.9 
				807.96,283.32 813.98,294.9 			"/>
		</g>
	</g>
	<g id="XMLID_5_">
		<g>
			<polygon class="st12" points="707.06,337.34 715.66,370.98 698.45,389.5 698.45,352.46 661.88,333.04 637.15,352.46 
				637.15,389.5 617.79,370.98 626.39,337.34 661.88,315.83 684.47,324.97 			"/>
			<polygon class="st13" points="711.36,409.62 672.7,485.44 628.73,412.31 			"/>
			<polygon class="st14" points="698.45,352.46 698.45,389.5 670.49,410.78 637.15,389.5 637.15,352.46 661.88,333.04 			"/>
		</g>
	</g>
	<g id="XMLID_4_">
		<g>
			<polygon class="st15" points="606.91,414.98 607.63,485.71 525.91,485.71 525.91,414.98 564.49,396.28 			"/>
			<polygon class="st16" points="600.03,333.17 592.46,375 587.56,339 561.44,322.51 535.5,337.96 531.15,375 520.67,333.17 
				540.95,318.11 525.91,303.97 563.32,274.77 596.24,301.66 582.49,320.58 			"/>
			<polygon class="st17" points="587.56,339 592.46,375 564.49,396.28 531.15,375 535.5,337.96 561.44,322.51 			"/>
		</g>
	</g>
	<g id="XMLID_3_">
		<g>
			<polygon class="st18" points="436.19,302.29 441.1,363.92 431.27,377.82 417.08,363.92 417.08,311.5 375.03,265.64 
				361.38,282.15 358.11,321.88 376.27,334.47 376.27,334.48 359.74,377.82 342.82,354.5 359.74,247.62 404.52,247.62 			"/>
			<polygon class="st19" points="391.96,345.36 436.19,484.89 344.8,484.89 			"/>
			<polygon class="st20" points="375.03,265.64 417.08,311.5 391.96,345.36 376.27,334.48 376.27,334.47 358.11,321.88 
				361.38,282.15 			"/>
		</g>
	</g>
	<g id="XMLID_1_">
		<g>
			<polygon class="st21" points="131.85,393.32 120.8,418.73 117.32,375.56 117.94,338 79.78,321.81 59.73,347.51 66.13,378.97 
				65.05,423.5 57.06,410.2 43.95,388.36 39.68,329.91 79.78,285.98 125.42,297.92 142.91,367.88 			"/>
			<polygon class="st22" points="131.85,393.32 133.61,485.3 70.39,485.3 57.06,410.2 65.05,423.5 66.13,378.97 93.43,390.06 
				117.32,375.56 120.8,418.73 			"/>
			<polygon class="st23" points="117.94,338 117.32,375.56 93.43,390.06 66.13,378.97 59.73,347.51 79.78,321.81 			"/>
		</g>
	</g>
	<g id="XMLID_2_">
		<g>
			<polygon class="st24" points="237.65,378.36 275.15,489.13 175.32,484.56 208.45,379.97 225.42,393.08 			"/>
			<polygon class="st25" points="266.12,309.07 258.81,352.9 246.29,328.36 219.15,316.37 187.85,328.36 179.5,357.6 171.15,312.2 
				228.55,289.24 			"/>
			<polygon class="st26" points="246.29,328.36 258.81,352.9 237.65,378.36 225.42,393.08 208.45,379.97 179.5,357.6 187.85,328.36 
				219.15,316.37 			"/>
		</g>
	</g>
	<g id="Layer_3">
	</g>
</g>
<g id="eyes" class="st30">
	<line class="st31" x1="906.55" y1="250.81" x2="906.55" y2="264.54"/>
	<rect x="906.55" y="256.9" class="st32" width="7.64" height="7.64"/>
	<line class="st31" x1="929.05" y1="250.81" x2="929.05" y2="264.54"/>
	<rect x="929.05" y="256.9" class="st32" width="7.64" height="7.64"/>
	<line class="st31" x1="1041.99" y1="252.05" x2="1041.99" y2="265.78"/>
	<rect x="1041.99" y="258.14" class="st32" width="7.64" height="7.64"/>
	<line class="st31" x1="1064.5" y1="252.05" x2="1064.5" y2="265.78"/>
	<rect x="1064.5" y="258.14" class="st32" width="7.64" height="7.64"/>
	<line class="st31" x1="1192.77" y1="258.91" x2="1192.77" y2="272.64"/>
	<rect x="1192.77" y="265.01" class="st32" width="7.64" height="7.64"/>
	<line class="st31" x1="1215.28" y1="258.91" x2="1215.28" y2="272.64"/>
	<rect x="1215.28" y="265.01" class="st32" width="7.64" height="7.64"/>
	<line class="st31" x1="493.42" y1="256.45" x2="493.42" y2="270.18"/>
	<rect x="493.42" y="262.54" class="st32" width="7.64" height="7.64"/>
	<line class="st31" x1="515.93" y1="256.45" x2="515.93" y2="270.18"/>
	<rect x="515.93" y="262.54" class="st32" width="7.64" height="7.64"/>
	<line class="st31" x1="347.3" y1="255.41" x2="347.3" y2="269.14"/>
	<rect x="347.3" y="261.5" class="st32" width="7.64" height="7.64"/>
	<line class="st31" x1="369.81" y1="255.41" x2="369.81" y2="269.14"/>
	<rect x="369.81" y="261.5" class="st32" width="7.64" height="7.64"/>
	<line class="st33" x1="213.69" y1="255.41" x2="213.69" y2="270.49"/>
	<rect x="213.69" y="262.1" class="st34" width="8.39" height="8.39"/>
	<line class="st33" x1="238.41" y1="255.41" x2="238.41" y2="270.49"/>
	<rect x="238.41" y="262.1" class="st34" width="8.39" height="8.39"/>
	<line class="st31" x1="76.37" y1="257.47" x2="76.37" y2="271.2"/>
	<rect x="76.37" y="263.56" class="st32" width="7.64" height="7.64"/>
	<line class="st31" x1="98.88" y1="257.47" x2="98.88" y2="271.2"/>
	<rect x="98.88" y="263.56" class="st32" width="7.64" height="7.64"/>
	<line class="st31" x1="622.35" y1="261.95" x2="622.35" y2="275.68"/>
	<rect x="622.35" y="268.04" class="st32" width="7.64" height="7.64"/>
	<line class="st31" x1="644.85" y1="261.95" x2="644.85" y2="275.68"/>
	<rect x="644.85" y="268.04" class="st32" width="7.64" height="7.64"/>
	<line class="st35" x1="767.26" y1="251.57" x2="767.26" y2="263.32"/>
	<rect x="767.26" y="256.78" class="st36" width="6.53" height="6.53"/>
	<line class="st35" x1="786.51" y1="251.57" x2="786.51" y2="263.32"/>
	<rect x="786.51" y="256.78" class="st36" width="6.53" height="6.53"/>
</g>
<g id="messages">
	<g>
		<g id="XMLID_12_">
			<g>
				<path class="st42" d="M427.97,131.34c19.85,3.85,42.57,20.06,40.04,38.55c-2.39,17.41-26.74,33.68-56.79,29.67l-27.24-5.9
					c-2.42-1.85-20.01-15.75-17.48-32.78C369.66,139.55,402.43,126.38,427.97,131.34z"/>
				<polygon class="st42" points="411.22,199.56 386.23,219.63 383.98,193.66 				"/>
			</g>
			<g>
				<line class="st43" x1="386.23" y1="219.63" x2="383.98" y2="193.66"/>
				<line class="st43" x1="411.22" y1="199.56" x2="386.23" y2="219.63"/>
				<path class="st43" d="M383.98,193.66c-2.42-1.85-20.01-15.75-17.48-32.78c3.16-21.33,35.93-34.5,61.47-29.54
					c19.85,3.85,42.57,20.06,40.04,38.55c-2.39,17.41-26.74,33.68-56.79,29.67"/>
			</g>
		</g>
		<g>
			<g>
				<path class="st44" d="M391.41,178.34c1.38,5.4,7.43,3.1,10.03,0.13c0.57-0.65,1.41-2.33,2.26-2.64c1.88-0.7,3.41,1.43,4.36,2.36
					c0.96,0.95,1.14,2.07,2.44,2.84c2.77,1.65,5.79,0.13,8.14-1.49c2.32-1.6,4.12-3.99,6.6-1.11c0.6,0.7,0.59,1.87,1.3,2.57
					c1.38,1.38,2.9,1.15,4.51,0.23c2.47-1.42,3.78-4.32,6.7-2.75c0.7,0.38,0.86,1.4,1.87,1.79c1.11,0.42,2.32,0.1,3.43-0.12
					c3.58-0.72,6.22-1.51,9.91-0.54c1.56,0.41,2.22-2,0.66-2.41c-3.72-0.98-6.27-0.18-9.91,0.11c-1.4,0.77-2.76,0.54-4.09-0.68
					c-0.31-0.42-0.62-0.84-0.94-1.25c-0.62-0.24-1.15-0.5-1.89-0.53c-1.96-0.07-3.78,1.87-5.33,2.75c-4.83,2.75-2.94-1.08-5.61-3.31
					c-1.66-1.38-3.25-0.58-4.98,0.37c-0.94,0.52-1.84,1.39-2.68,2.03c-2.17,2.48-4.82,2.56-7.95,0.22c-0.42-0.94-0.95-1.82-1.6-2.62
					c-1.46-1.62-3.11-2.19-5.15-1.37c-1.59,0.64-8.25,10.17-9.64,4.73C393.42,176.12,391.01,176.78,391.41,178.34L391.41,178.34z"/>
			</g>
		</g>
		<g>
			<g>
				<path class="st44" d="M380.12,153.94c1.24,1.71,2.98,5.71,5.54,5.67c1.35-0.02,2.17-1.03,3.07-1.89
					c2.45-2.31,4.77-4.8,7.14-7.19c-0.7-0.18-1.39-0.37-2.09-0.55c0.65,4.48,2.14,9.6,7.41,10.12c5.37,0.53,8.86-4.23,11.46-8.18
					c-0.57,0.15-1.14,0.3-1.71,0.45c2.63,1.97,2.64,6.39,6.14,7.45c1.72,0.52,2.38-0.22,3.86-0.82c3.41-1.37,2.68,0.18,5.46,0.26
					c0.78,0.02,1.07-0.09,2-0.37c4.02-1.25,8.07-4.47,11.73-6.55c-0.61-0.25-1.22-0.5-1.84-0.75c0.95,4.5,4.2,7.2,8.72,7.66
					c1.6,0.16,1.59-2.34,0-2.5c-3.38-0.34-5.63-2.62-6.3-5.82c-0.17-0.81-1.17-1.13-1.84-0.75c-3,1.7-6.11,4.04-9.31,5.3
					c-2.85,1.12-4.47-0.26-6.88-0.21c-0.76,0.02-1.21,0.53-1.84,0.64c-1.3,0.23-3.72,0.42-5.04-0.71c-1.5-1.29-1.79-3.64-3.6-5
					c-0.56-0.42-1.37-0.06-1.71,0.45c-1.96,2.98-5.47,8.21-9.91,6.84c-3.33-1.03-3.96-5.31-4.39-8.18
					c-0.14-0.96-1.49-1.16-2.09-0.55c-1.95,1.96-3.89,3.92-5.84,5.88c-1.25,1.26-1.32,2.03-2.97,1.37
					c-1.39-0.56-2.18-2.19-3.01-3.34C381.34,151.39,379.17,152.63,380.12,153.94L380.12,153.94z"/>
			</g>
		</g>
	</g>
	<g>
		<g id="XMLID_11_">
			<g>
				<path class="st42" d="M301.28,229.41c12.17,2.95,26.1,15.35,24.55,29.5c-1.47,13.32-16.39,25.77-34.82,22.7l-16.7-4.51
					c-1.48-1.42-12.27-12.05-10.72-25.08C265.54,235.69,285.63,225.61,301.28,229.41z"/>
				<polygon class="st42" points="291.02,281.61 275.7,296.97 274.32,277.09 				"/>
			</g>
			<g>
				<line class="st48" x1="275.7" y1="296.97" x2="274.32" y2="277.09"/>
				<line class="st48" x1="291.02" y1="281.61" x2="275.7" y2="296.97"/>
				<path class="st48" d="M274.32,277.09c-1.48-1.42-12.27-12.05-10.72-25.08c1.94-16.32,22.03-26.4,37.69-22.6
					c12.17,2.95,26.1,15.35,24.55,29.5c-1.47,13.32-16.39,25.77-34.82,22.7"/>
			</g>
		</g>
		<g>
			<g>
				<path class="st44" d="M278.78,265.35c0.86,3.11,3.76,2.91,5.72,0.86c1.53-1.6,1.33-3.71,4.49-1c0.71,0.61,0.55,1.5,1.43,2.09
					c1.43,0.95,2.82,0.53,4.19-0.28c1.22-0.72,2.79-3.64,4.77-2.06c0.58,0.47,0.33,1.93,1.06,2.5c0.95,0.74,1.36,0.72,2.5,0.24
					c0.8-0.34,1.07-1.42,1.83-1.8c6.32-3.15,1.22-0.01,2.9,0.3c1.87,0.35,0.27,0.49,2.36,0.59c2.41,0.12,3.79-1.34,6.53-0.54
					c1.06,0.31,1.51-1.34,0.46-1.65c-2.7-0.79-6.06,0.82-8.45-0.28c-1.28-0.59-0.16-1.42-1.9-1.51c-1.73-0.09-2.65,2.52-3.95,2.74
					c-2.03,0.34-1.83-2.38-3.14-3.55c-0.22-0.19-0.54-0.33-0.83-0.22c-1.79,0.64-2.71,2.54-4.27,3.15c-5.05,1.99-3.6-2.48-6.02-3.61
					c-1.01-0.47-1.52-0.36-2.44,0.11c-0.78,0.4-4.75,6.53-5.59,3.47C280.14,263.83,278.49,264.28,278.78,265.35L278.78,265.35z"/>
			</g>
		</g>
		<g>
			<g>
				<path class="st44" d="M271.87,246.65c0.83,1.44,1.53,2.86,2.66,4.08c0.21,0.22,0.54,0.29,0.83,0.22
					c2.68-0.67,4.68-4.88,6.3-6.92c-0.49-0.2-0.97-0.4-1.46-0.61c0.34,2.78,0.82,7.16,4.24,7.86c3.8,0.77,6.09-3.47,7.52-6.17
					c-0.45,0.06-0.9,0.12-1.34,0.17c3.07,3.22,1.7,6.16,6.19,5.35c1.44-0.26,2.75,0.19,4.23-0.04c2.51-0.38,5.77-3.81,7.73-5.2
					c-0.42-0.17-0.84-0.34-1.26-0.51c0.58,2.95,2.12,5.24,5.2,5.75c1.08,0.18,1.54-1.47,0.46-1.65c-2.51-0.65-3.85-2.17-4.01-4.56
					c-0.1-0.51-0.83-0.82-1.26-0.51c-1.96,1.39-4.81,4.36-7.27,4.51c-0.98,0.06-1.69-0.76-2.52-0.62c-0.45,0.08-2.01,1.3-2.11,1.29
					c-1.57-0.08-3.14-3.93-4.19-5.03c-0.37-0.39-1.09-0.31-1.34,0.17c-1.38,2.6-0.98,2.49-4.65,2.6c-4.03,0.13-3.47,0.23-3.91-3.43
					c-0.08-0.63-0.94-1.26-1.46-0.61c-0.99,1.24-2.33,3.53-3.58,4.5c-0.4,0.5-0.8,1-1.19,1.5c-1.03-0.82-1.81-1.83-2.33-3.03
					C272.79,244.83,271.31,245.69,271.87,246.65L271.87,246.65z"/>
			</g>
		</g>
	</g>
	<g>
		<g id="XMLID_14_">
			<g>
				<path class="st42" d="M945.74,229.04c-16.1,2.95-34.53,15.35-32.48,29.5c1.94,13.32,21.69,25.77,46.06,22.7l22.09-4.51
					c1.96-1.42,16.23-12.05,14.18-25.08C993.04,235.33,966.46,225.25,945.74,229.04z"/>
				<polygon class="st42" points="959.33,281.25 979.6,296.61 981.42,276.73 				"/>
			</g>
			<g>
				<line class="st49" x1="979.6" y1="296.61" x2="981.42" y2="276.73"/>
				<line class="st49" x1="959.33" y1="281.25" x2="979.6" y2="296.61"/>
				<path class="st49" d="M981.42,276.73c1.96-1.42,16.23-12.05,14.18-25.08c-2.56-16.32-29.14-26.4-49.86-22.6
					c-16.1,2.95-34.53,15.35-32.48,29.5c1.94,13.32,21.69,25.77,46.06,22.7"/>
			</g>
		</g>
		<g>
			<g>
				<path class="st44" d="M973.47,264.5c-1.19,3.25-6.92-3.7-8.79-3.96c-1.29-0.18-2.33,0.52-3.2,1.38
					c-2.57,2.54-0.02,5.42-8.03,1.64c-0.96-0.45-1.71-1.35-2.72-1.77c-1.5-0.62-2.18-0.77-3.35,0.26c-0.54,0.47-0.59,1.37-1.05,1.84
					c-2.35,2.38-2.03,0.87-3.79,0.28c-1.3-0.44-2.62-2.06-4.18-1.8c-2.18,0.37-2.66,1.92-5.36,1.84c-2.79-0.08-5.12-0.77-8.02-0.08
					c-1.23,0.29-0.71,2.19,0.52,1.9c3.89-0.92,7.02,1.07,10.69,0.55c0.59-0.08,0.93-0.83,1.39-0.98c3.45-1.07,3.14,0.51,5.71,1.66
					c1.2,0.54,2.1,0.94,3.29,0.11c0.71-0.5,0.68-1.22,1.2-1.82c0.19-1.9,1.27-2.35,3.25-1.33c0.78,0.57,1.55,1.15,2.32,1.75
					c1.94,1.22,4.18,2.37,6.45,1.19c2.81-1.45,2.42-6,7.04-2.52c2.54,1.91,6.74,5.29,8.53,0.4
					C975.81,263.83,973.91,263.31,973.47,264.5L973.47,264.5z"/>
			</g>
		</g>
		<g>
			<g>
				<path class="st44" d="M982.83,245.36c-0.77,1.35-1.88,2.36-3.32,3c-0.63-0.6-1.26-1.2-1.89-1.8c-1.47-1.4-2.95-2.8-4.42-4.2
					c-0.49-0.46-1.52-0.33-1.65,0.43c-0.45,2.8-0.93,6.74-5.78,6.21c-2.45-0.27-4.66-3.46-5.87-5.19c-0.28-0.41-0.88-0.68-1.35-0.35
					c-1.22,0.86-1.48,1.69-2.42,2.83c-1.16,1.4-2.24,2.18-4.23,1.81c-0.74-0.14-0.9-0.61-1.87-0.77c-1.04-0.17-2.18,0.57-3.33,0.55
					c-3.21-0.05-7-2.93-9.81-4.44c-0.54-0.29-1.29-0.05-1.45,0.59c-0.55,2.69-2.26,4.16-5.14,4.43c-1.25,0.13-1.26,2.11,0,1.97
					c3.56-0.39,6.18-2.3,7.04-5.88c-0.48,0.2-0.96,0.39-1.45,0.59c2.91,1.56,6.57,4.42,9.81,5.1c1.6,0.33,2.32-0.61,3.56-0.64
					c2.32-0.05,3.07,2,5.4,1.25c2.12-0.68,1.89-3.21,3.42-4.06c1.95-1.08,2.4,1.56,4.48,2.9c1.44,0.93,3.1,1.52,4.83,1.37
					c4.19-0.34,5.47-4.15,6.05-7.75c-0.55,0.14-1.1,0.29-1.65,0.43c1.82,1.72,5.25,6.62,7.86,6.87c2.34,0.23,3.64-2.67,4.87-4.28
					C985.3,245.35,983.59,244.37,982.83,245.36L982.83,245.36z"/>
			</g>
		</g>
	</g>
	<g>
		<g id="XMLID_15_">
			<g>
				<path class="st42" d="M1192.15,91.13c24.59,4.51,52.75,23.48,49.61,45.12c-2.96,20.38-33.13,39.42-70.36,34.73l-33.75-6.91
					c-3-2.17-24.79-18.43-21.66-38.37C1119.91,100.74,1160.51,85.33,1192.15,91.13z"/>
				<polygon class="st42" points="1171.4,170.98 1140.44,194.47 1137.65,164.07 				"/>
			</g>
			<g>
				<line class="st50" x1="1140.44" y1="194.47" x2="1137.65" y2="164.07"/>
				<line class="st50" x1="1171.4" y1="170.98" x2="1140.44" y2="194.47"/>
				<path class="st50" d="M1137.65,164.07c-3-2.17-24.79-18.43-21.66-38.37c3.92-24.97,44.52-40.38,76.16-34.57
					c24.59,4.51,52.75,23.48,49.61,45.12c-2.96,20.38-33.13,39.42-70.36,34.73"/>
			</g>
		</g>
		<g>
			<g>
				<path class="st44" d="M1146.89,146.16c0.59,2.43,2.51,3.74,5,3.93c4.07,0.3,5.49-2.57,8.26-4.81c6.73-5.43,6.82,3.38,11.89,4.7
					c3.7,0.97,7.08-1.39,9.87-3.46c0.94-0.7,2.28-2.13,3.48-2.4c2.98-0.67,2.76,0.78,3.56,2.58c0.44,0.99,0.82,2.1,1.67,2.83
					c1.84,1.58,3.78,0.92,5.63-0.21c2.75-1.69,4.8-4.73,8.12-2.74c0.96,0.58,1.37,1.62,2.69,1.96c1.58,0.41,3.2-0.11,4.71-0.53
					c3.96-1.1,7.25-1.37,11.31-0.33c1.88,0.48,2.68-2.42,0.8-2.9c-4.48-1.15-7.84-0.42-12.26,0.13c-1.46,0.18-3.53,0.67-4.91-0.29
					c-0.35-0.24-0.28-0.99-0.68-1.24c-1.2-0.75-1.15-1.3-2.8-1.31c-3.72-0.04-6.19,4.37-9.6,4.27c-2.5-0.07-1.9-1.53-3.01-3.39
					c-0.49-0.83-1.1-1.68-1.99-2.11c-2.47-1.17-5.37,0.98-7.32,2.39c-2.97,2.13-4.81,4.4-8.53,2.92c-3.06-1.22-2.56-2.46-4.58-4.68
					c-1.76-1.92-4.14-2.81-6.59-1.59c-2.19,1.1-10.29,11.8-11.82,5.49C1149.34,143.47,1146.43,144.27,1146.89,146.16L1146.89,146.16
					z"/>
			</g>
		</g>
		<g>
			<g>
				<path class="st44" d="M1132.9,117.61c1.57,2.05,3.76,6.72,6.81,6.66c1.89-0.03,3.08-1.59,4.36-2.77
					c2.8-2.57,5.52-5.25,8.27-7.87c-0.84-0.22-1.68-0.44-2.52-0.66c0.82,5.33,2.72,11.15,8.89,11.87c6.6,0.77,11.06-4.77,14.4-9.59
					c-0.69,0.18-1.37,0.36-2.06,0.54c3.16,2.08,3.23,6.82,6.87,8.44c2.94,1.31,3.67-0.34,6.17-1.23c2.99-1.07,5.63,1.54,8.92,0.28
					c4.88-1.86,9.56-5.05,14.16-7.52c-0.74-0.3-1.47-0.6-2.21-0.9c1.09,5.38,5.41,8.59,10.76,8.99c1.93,0.15,1.92-2.86,0-3.01
					c-4-0.3-7.06-2.83-7.85-6.78c-0.2-0.99-1.41-1.33-2.21-0.9c-3.59,1.93-7.24,4.36-11.01,5.92c-1.09,0.85-2.34,1.2-3.74,1.04
					c-1.23,0.58-2.27,0.43-3.11-0.46c-0.88-0.18-1.43-0.59-2.34-0.54c-3.77,0.18-3.95,5.36-8.43-0.06c-1.81-2.19-1.9-4.19-4.45-5.87
					c-0.72-0.47-1.62-0.1-2.06,0.54c-2.57,3.71-5.79,8.34-10.89,7.97c-5.31-0.39-6.24-5.23-6.9-9.53c-0.18-1.18-1.78-1.37-2.52-0.66
					c-2.53,2.4-5.05,4.81-7.58,7.21c-1.58,1.5-1.94,2.81-4.37,0.99c-1.08-0.81-1.96-2.56-2.77-3.62
					C1134.33,114.57,1131.72,116.07,1132.9,117.61L1132.9,117.61z"/>
			</g>
		</g>
	</g>
	<g>
		<g id="XMLID_20_">
			<g>
				<path d="M897.08,91.77c43.13,6.93,92.47,36.05,86.96,69.27c-5.17,31.27-58.05,60.5-123.34,53.28l-59.14-10.58
					c-5.26-3.34-43.46-28.29-37.96-58.88C770.47,106.54,841.64,82.88,897.08,91.77z"/>
				<polygon points="860.7,214.32 806.45,250.37 801.57,203.74 				"/>
			</g>
			<g>
				<line class="st51" x1="806.45" y1="250.37" x2="801.57" y2="203.74"/>
				<line class="st51" x1="860.7" y1="214.32" x2="806.45" y2="250.37"/>
				<path class="st51" d="M801.57,203.74c-5.26-3.34-43.46-28.29-37.96-58.88c6.86-38.32,78.03-61.97,133.48-53.08
					c43.13,6.93,92.47,36.05,86.96,69.27c-5.17,31.27-58.05,60.5-123.34,53.28"/>
			</g>
		</g>
	</g>
	<g>
		<g id="XMLID_19_">
			<g>
				<path d="M1354.69,135.76c34.45,6.83,73.88,35.61,69.47,68.39c-4.13,30.89-46.39,59.75-98.56,52.64l-47.26-10.47
					c-4.2-3.28-34.73-27.94-30.34-58.16C1253.5,150.32,1310.37,126.96,1354.69,135.76z"/>
				<polygon points="1325.61,256.79 1282.25,292.4 1278.35,246.32 				"/>
			</g>
			<g>
				<line class="st52" x1="1282.25" y1="292.4" x2="1278.35" y2="246.32"/>
				<line class="st52" x1="1325.61" y1="256.79" x2="1282.25" y2="292.4"/>
				<path class="st52" d="M1278.35,246.32c-4.2-3.28-34.73-27.94-30.34-58.16c5.48-37.84,62.36-61.21,106.68-52.41
					c34.45,6.83,73.88,35.61,69.47,68.39c-4.13,30.89-46.39,59.75-98.56,52.64"/>
			</g>
		</g>
	</g>
	<g>
		<g id="XMLID_16_">
			<g>
				<path d="M198.25,101.18c37.84,7.31,81.15,38.09,76.33,73.17c-4.56,33.05-50.97,63.93-108.26,56.32l-51.93-11.2
					c-4.61-3.51-38.14-29.89-33.32-62.22C87.1,116.76,149.57,91.77,198.25,101.18z"/>
				<polygon points="166.32,230.67 118.69,268.76 114.4,219.47 				"/>
			</g>
			<g>
				<line class="st53" x1="118.69" y1="268.76" x2="114.4" y2="219.47"/>
				<line class="st53" x1="166.32" y1="230.67" x2="118.69" y2="268.76"/>
				<path class="st53" d="M114.4,219.47c-4.61-3.51-38.14-29.89-33.32-62.22c6.02-40.49,68.49-65.48,117.18-56.07
					c37.84,7.31,81.15,38.09,76.33,73.17c-4.56,33.05-50.97,63.93-108.26,56.32"/>
			</g>
		</g>
	</g>
	<g>
		<g id="XMLID_17_">
			<g>
				<path d="M582.63,102.05c-40.71,8.3-87.3,43.16-82.11,82.92c4.9,37.44,54.84,72.42,116.46,63.78l55.86-12.67
					c4.96-4,41.03-33.87,35.85-70.51C702.21,119.73,635.01,91.41,582.63,102.05z"/>
				<polygon points="616.98,248.75 668.23,291.9 672.84,236.08 				"/>
			</g>
			<g>
				<line class="st54" x1="668.23" y1="291.9" x2="672.84" y2="236.08"/>
				<line class="st54" x1="616.98" y1="248.75" x2="668.23" y2="291.9"/>
				<path class="st54" d="M672.84,236.08c4.96-4,41.03-33.87,35.85-70.51c-6.48-45.85-73.68-74.16-126.05-63.52
					c-40.71,8.3-87.3,43.16-82.11,82.92c4.9,37.44,54.84,72.42,116.46,63.78"/>
			</g>
		</g>
	</g>
</g>
<g id="text">
	<rect x="521.27" y="130.25" class="st55" width="162.43" height="99.73"/>
	<text transform="matrix(1 0 0 1 560.5081 145.7955)"><tspan x="0" y="0" class="st44 st56 st57">Consider </tspan><tspan x="-14.97" y="25.2" class="st44 st56 st57">cryotherapy </tspan><tspan x="-5.37" y="50.4" class="st44 st56 st57">instead of </tspan><tspan x="-26.73" y="75.6" class="st44 st56 st57">chemotherapy</tspan></text>
	<rect x="778.5" y="117.94" class="st55" width="190.52" height="80.8"/>
	<text transform="matrix(1 0 0 1 811.6613 133.4875)"><tspan x="0" y="0" class="st44 st56 st57">Lumpectomy</tspan><tspan x="-21.35" y="29" class="st44 st56 st57">is better for small </tspan><tspan x="28.2" y="58" class="st44 st56 st57">tumors</tspan></text>
	<rect x="1245.85" y="164.07" class="st55" width="180.38" height="73.8"/>
	<text transform="matrix(1 0 0 1 1279.1808 179.616)"><tspan x="0" y="0" class="st44 st56 st57">Satin sheets </tspan><tspan x="-14.32" y="25.2" class="st44 st56 st57">are better than </tspan><tspan x="25.67" y="50.4" class="st44 st56 st57">cotton</tspan></text>
	<rect x="102.6" y="129.92" class="st55" width="150.35" height="75.25"/>
	<text transform="matrix(1 0 0 1 135.6792 145.4608)"><tspan x="0" y="0" class="st44 st56 st57">Having a </tspan><tspan x="-31.12" y="25.2" class="st44 st56 st57">support system </tspan><tspan x="-15.79" y="50.4" class="st44 st56 st57">is important</tspan></text>
</g>
</svg>
